<svg width="32" height="33" viewBox="0 0 32 33" fill="none" xmlns="http://www.w3.org/2000/svg">
<g id="Group 427318781">
<circle id="Ellipse 13" cx="16" cy="16.5713" r="16" fill="#F7F8FC"/>
<g id="&#229;&#174;&#161;&#230;&#137;&#185; 1">
<path id="Vector" d="M22.5917 22.2842C23.0312 22.2842 23.4079 21.8447 23.3451 21.3425L23.094 19.7102C22.9056 19.0197 22.3406 18.4547 21.6501 18.4547H18.0089L17.695 16.5713C19.39 15.8807 20.52 14.3112 20.52 12.3651C20.52 9.85393 18.4483 7.78223 15.9372 7.78223C13.426 7.78223 11.3543 9.85393 11.3543 12.3651C11.3543 14.2485 12.4843 15.8807 14.1794 16.5713L13.9282 18.4547H10.2871C9.59648 18.4547 8.90591 19.0197 8.84314 19.6475L8.52924 21.3425C8.40368 21.7819 8.78036 22.2842 9.21981 22.2842H22.5917Z" fill="#2E3543"/>
<path id="Vector_2" d="M9.40824 22.8496H22.5918C23.0941 22.8496 23.5335 23.2891 23.5335 23.7913C23.5335 24.2935 23.0941 24.733 22.5918 24.733H9.40824C8.90601 24.733 8.46655 24.2935 8.46655 23.7913C8.46655 23.2891 8.90601 22.8496 9.40824 22.8496Z" fill="#A7ABBA"/>
</g>
</g>
</svg>
