<svg width="44" height="45" viewBox="0 0 44 45" fill="none" xmlns="http://www.w3.org/2000/svg">
<g id="Group 427318777">
<circle id="Ellipse 12" opacity="0.05" cx="22" cy="22.5713" r="22" fill="#409EFF"/>
<g id="&#228;&#184;&#138;&#231;&#143;&#173;">
<path id="Icon" fill-rule="evenodd" clip-rule="evenodd" d="M17.3338 14.39C18.1376 14.3258 18.9007 14.0097 19.5145 13.4867C20.9467 12.2661 23.0533 12.2661 24.4855 13.4867C25.0993 14.0097 25.8624 14.3258 26.6662 14.39C28.5421 14.5397 30.0316 16.0292 30.1813 17.9051C30.2455 18.7089 30.5615 19.472 31.0846 20.0858C32.3051 21.518 32.3051 23.6246 31.0846 25.0568C30.5615 25.6706 30.2455 26.4337 30.1813 27.2375C30.0316 29.1133 28.5421 30.6029 26.6662 30.7526C25.8624 30.8167 25.0993 31.1328 24.4855 31.6559C23.0533 32.8764 20.9467 32.8764 19.5145 31.6559C18.9007 31.1328 18.1376 30.8167 17.3338 30.7526C15.4579 30.6029 13.9684 29.1133 13.8187 27.2375C13.7545 26.4337 13.4385 25.6706 12.9154 25.0568C11.6949 23.6246 11.6949 21.518 12.9154 20.0858C13.4385 19.472 13.7545 18.7089 13.8187 17.9051C13.9684 16.0292 15.4579 14.5397 17.3338 14.39ZM26.6339 20.9552C27.122 20.467 27.122 19.6756 26.6339 19.1874C26.1457 18.6993 25.3543 18.6993 24.8661 19.1874L20.75 23.3035L19.1339 21.6874C18.6457 21.1992 17.8543 21.1992 17.3661 21.6874C16.878 22.1756 16.878 22.967 17.3661 23.4552L19.8661 25.9552C20.3543 26.4433 21.1457 26.4433 21.6339 25.9552L26.6339 20.9552Z" fill="#409EFF"/>
</g>
</g>
</svg>
