<?xml version="1.0" encoding="UTF-8"?>
<svg width="16px" height="16px" viewBox="0 0 16 16" version="1.1" xmlns="http://www.w3.org/2000/svg" xmlns:xlink="http://www.w3.org/1999/xlink">
    <title>bell-fill</title>
    <g id="页面-1" stroke="none" stroke-width="1" fill="none" fill-rule="evenodd">
        <g id="个人中心" transform="translate(-693, -555)" fill-rule="nonzero">
            <g id="bell-fill" transform="translate(693, 555)">
                <rect id="矩形" fill="#000000" opacity="0" x="0" y="0" width="16" height="16"></rect>
                <path d="M12.75,12 L12.375,12 L12.375,6.6875 C12.375,4.4828125 10.7453125,2.659375 8.625,2.35625 L8.625,1.75 C8.625,1.4046875 8.3453125,1.125 8,1.125 C7.6546875,1.125 7.375,1.4046875 7.375,1.75 L7.375,2.35625 C5.2546875,2.659375 3.625,4.4828125 3.625,6.6875 L3.625,12 L3.25,12 C2.9734375,12 2.75,12.2234375 2.75,12.5 L2.75,13 C2.75,13.06875 2.80625,13.125 2.875,13.125 L6.25,13.125 C6.25,14.090625 7.034375,14.875 8,14.875 C8.965625,14.875 9.75,14.090625 9.75,13.125 L13.125,13.125 C13.19375,13.125 13.25,13.06875 13.25,13 L13.25,12.5 C13.25,12.2234375 13.0265625,12 12.75,12 Z M8,13.875 C7.5859375,13.875 7.25,13.5390625 7.25,13.125 L8.75,13.125 C8.75,13.5390625 8.4140625,13.875 8,13.875 Z" id="形状" fill="#FF5C47"></path>
            </g>
        </g>
    </g>
</svg>