<?xml version="1.0" encoding="UTF-8"?>
<svg width="16px" height="16px" viewBox="0 0 16 16" version="1.1" xmlns="http://www.w3.org/2000/svg" xmlns:xlink="http://www.w3.org/1999/xlink">
    <title>bulb-fill</title>
    <g id="页面-1" stroke="none" stroke-width="1" fill="none" fill-rule="evenodd">
        <g id="个人中心-2" transform="translate(-1177, -556)" fill-rule="nonzero">
            <g id="编组-65" transform="translate(1096, 193)">
                <g id="bulb-fill" transform="translate(81, 363)">
                    <rect id="矩形" fill="#000000" opacity="0" x="0" y="0" width="16" height="16"></rect>
                    <path d="M5.4375,10.5640625 C3.90625,9.678125 2.875,8.021875 2.875,6.125 C2.875,3.2953125 5.1703125,1 8,1 C10.8296875,1 13.125,3.2953125 13.125,6.125 C13.125,8.021875 12.09375,9.678125 10.5625,10.5640625 L10.5625,12.375 C10.5625,12.6515625 10.3390625,12.875 10.0625,12.875 L5.9375,12.875 C5.6609375,12.875 5.4375,12.6515625 5.4375,12.375 L5.4375,10.5640625 Z M6.125,13.875 L9.875,13.875 C9.94375,13.875 10,13.93125 10,14 L10,14.5 C10,14.7765625 9.7765625,15 9.5,15 L6.5,15 C6.2234375,15 6,14.7765625 6,14.5 L6,14 C6,13.93125 6.05625,13.875 6.125,13.875 Z" id="形状" fill="#90A4AE"></path>
                </g>
            </g>
        </g>
    </g>
</svg>