<?xml version="1.0" encoding="UTF-8"?>
<svg width="16px" height="16px" viewBox="0 0 16 16" version="1.1" xmlns="http://www.w3.org/2000/svg" xmlns:xlink="http://www.w3.org/1999/xlink">
    <title>calendar-fill</title>
    <g id="页面-1" stroke="none" stroke-width="1" fill="none" fill-rule="evenodd">
        <g id="个人中心" transform="translate(-954, -481)" fill-rule="nonzero">
            <g id="calendar-fill" transform="translate(954, 481)">
                <rect id="矩形" fill="#000000" opacity="0" x="0" y="0" width="16" height="16"></rect>
                <path d="M1.75,13.75 C1.75,14.0265625 1.9734375,14.25 2.25,14.25 L13.75,14.25 C14.0265625,14.25 14.25,14.0265625 14.25,13.75 L14.25,7.1875 L1.75,7.1875 L1.75,13.75 Z M13.75,2.875 L11.125,2.875 L11.125,1.875 C11.125,1.80625 11.06875,1.75 11,1.75 L10.125,1.75 C10.05625,1.75 10,1.80625 10,1.875 L10,2.875 L6,2.875 L6,1.875 C6,1.80625 5.94375,1.75 5.875,1.75 L5,1.75 C4.93125,1.75 4.875,1.80625 4.875,1.875 L4.875,2.875 L2.25,2.875 C1.9734375,2.875 1.75,3.0984375 1.75,3.375 L1.75,6.125 L14.25,6.125 L14.25,3.375 C14.25,3.0984375 14.0265625,2.875 13.75,2.875 Z" id="形状" fill="#909599"></path>
            </g>
        </g>
    </g>
</svg>