<?xml version="1.0" encoding="UTF-8"?>
<svg width="16px" height="16px" viewBox="0 0 16 16" version="1.1" xmlns="http://www.w3.org/2000/svg" xmlns:xlink="http://www.w3.org/1999/xlink">
    <title>camera</title>
    <g id="页面-1" stroke="none" stroke-width="1" fill="none" fill-rule="evenodd">
        <g id="个人中心" transform="translate(-331, -227)" fill-rule="nonzero">
            <g id="编组-12" transform="translate(277, 171)">
                <g id="编组-5" transform="translate(51, 53)">
                    <g id="camera" transform="translate(3, 3)">
                        <rect id="矩形" fill="#000000" opacity="0" x="0" y="0" width="16" height="16"></rect>
                        <path d="M13.5,3.875 L11.375,3.875 L10.86875,2.45625 C10.796875,2.2578125 10.609375,2.125 10.396875,2.125 L5.603125,2.125 C5.3921875,2.125 5.203125,2.2578125 5.1328125,2.45625 L4.625,3.875 L2.5,3.875 C1.809375,3.875 1.25,4.434375 1.25,5.125 L1.25,12.25 C1.25,12.940625 1.809375,13.5 2.5,13.5 L13.5,13.5 C14.190625,13.5 14.75,12.940625 14.75,12.25 L14.75,5.125 C14.75,4.434375 14.190625,3.875 13.5,3.875 Z M13.625,12.25 C13.625,12.31875 13.56875,12.375 13.5,12.375 L2.5,12.375 C2.43125,12.375 2.375,12.31875 2.375,12.25 L2.375,5.125 C2.375,5.05625 2.43125,5 2.5,5 L5.4171875,5 L5.684375,4.253125 L6.0421875,3.25 L9.95625,3.25 L10.3140625,4.253125 L10.58125,5 L13.5,5 C13.56875,5 13.625,5.05625 13.625,5.125 L13.625,12.25 Z M8,6 C6.61875,6 5.5,7.11875 5.5,8.5 C5.5,9.88125 6.61875,11 8,11 C9.38125,11 10.5,9.88125 10.5,8.5 C10.5,7.11875 9.38125,6 8,6 Z M8,10 C7.171875,10 6.5,9.328125 6.5,8.5 C6.5,7.671875 7.171875,7 8,7 C8.828125,7 9.5,7.671875 9.5,8.5 C9.5,9.328125 8.828125,10 8,10 Z" id="形状" fill="#409EFF"></path>
                    </g>
                </g>
            </g>
        </g>
    </g>
</svg>