<?xml version="1.0" encoding="UTF-8"?>
<svg width="16px" height="16px" viewBox="0 0 16 16" version="1.1" xmlns="http://www.w3.org/2000/svg" xmlns:xlink="http://www.w3.org/1999/xlink">
    <title>id card</title>
    <g id="页面-1" stroke="none" stroke-width="1" fill="none" fill-rule="evenodd">
        <g id="个人中心" transform="translate(-1236, -173)" fill-rule="nonzero">
            <g id="编组-14" transform="translate(1236, 170)">
                <g id="id-card" transform="translate(0, 3)">
                    <rect id="矩形" fill="#000000" opacity="0" x="0" y="0" width="16" height="16"></rect>
                    <path d="M14.5,2.5 L1.5,2.5 C1.2234375,2.5 1,2.7234375 1,3 L1,13 C1,13.2765625 1.2234375,13.5 1.5,13.5 L14.5,13.5 C14.7765625,13.5 15,13.2765625 15,13 L15,3 C15,2.7234375 14.7765625,2.5 14.5,2.5 Z M13.875,12.375 L2.125,12.375 L2.125,3.625 L13.875,3.625 L13.875,12.375 Z M9.5359375,7.4375 L11.4640625,7.4375 C11.484375,7.4375 11.5,7.38125 11.5,7.3125 L11.5,6.5625 C11.5,6.49375 11.484375,6.4375 11.4640625,6.4375 L9.5359375,6.4375 C9.515625,6.4375 9.5,6.49375 9.5,6.5625 L9.5,7.3125 C9.5,7.38125 9.515625,7.4375 9.5359375,7.4375 Z M9.6109375,9.6875 L12.5125,9.6875 C12.5734375,9.6875 12.6234375,9.63125 12.6234375,9.5625 L12.6234375,8.8125 C12.6234375,8.74375 12.5734375,8.6875 12.5125,8.6875 L9.6109375,8.6875 C9.55,8.6875 9.5,8.74375 9.5,8.8125 L9.5,9.5625 C9.5,9.63125 9.55,9.6875 9.6109375,9.6875 L9.6109375,9.6875 Z M3.5,10.515625 L4.1859375,10.515625 C4.2515625,10.515625 4.3046875,10.4640625 4.309375,10.3984375 C4.36875,9.609375 5.028125,8.984375 5.828125,8.984375 C6.628125,8.984375 7.2875,9.609375 7.346875,10.3984375 C7.3515625,10.4640625 7.4046875,10.515625 7.4703125,10.515625 L8.15625,10.515625 C8.228125,10.515625 8.284375,10.45625 8.28125,10.384375 C8.2375,9.5515625 7.78125,8.8265625 7.115625,8.4140625 C7.3984375,8.103125 7.5703125,7.6890625 7.5703125,7.234375 C7.5703125,6.2671875 6.790625,5.484375 5.8296875,5.484375 C4.86875,5.484375 4.0890625,6.2671875 4.0890625,7.234375 C4.0890625,7.6890625 4.2609375,8.1015625 4.54375,8.4140625 C3.8765625,8.828125 3.421875,9.5515625 3.378125,10.384375 C3.371875,10.45625 3.428125,10.515625 3.5,10.515625 L3.5,10.515625 Z M5.828125,6.421875 C6.2734375,6.421875 6.6359375,6.7859375 6.6359375,7.234375 C6.6359375,7.6828125 6.2734375,8.046875 5.828125,8.046875 C5.3828125,8.046875 5.0203125,7.6828125 5.0203125,7.234375 C5.0203125,6.7859375 5.3828125,6.421875 5.828125,6.421875 Z" id="形状" fill="#409EFF"></path>
                </g>
            </g>
        </g>
    </g>
</svg>