<?xml version="1.0" encoding="UTF-8"?>
<svg width="16px" height="16px" viewBox="0 0 16 16" version="1.1" xmlns="http://www.w3.org/2000/svg" xmlns:xlink="http://www.w3.org/1999/xlink">
    <title>carry out</title>
    <g id="页面-1" stroke="none" stroke-width="1" fill="none" fill-rule="evenodd">
        <g id="个人中心" transform="translate(-1000, -173)" fill-rule="nonzero">
            <g id="编组-2" transform="translate(1000, 170)">
                <g id="carry-out" transform="translate(0, 3)">
                    <rect id="矩形" fill="#000000" opacity="0" x="0" y="0" width="16" height="16"></rect>
                    <path d="M13.75,2.875 L11.125,2.875 L11.125,1.875 C11.125,1.80625 11.06875,1.75 11,1.75 L10.125,1.75 C10.05625,1.75 10,1.80625 10,1.875 L10,2.875 L6,2.875 L6,1.875 C6,1.80625 5.94375,1.75 5.875,1.75 L5,1.75 C4.93125,1.75 4.875,1.80625 4.875,1.875 L4.875,2.875 L2.25,2.875 C1.9734375,2.875 1.75,3.0984375 1.75,3.375 L1.75,13.75 C1.75,14.0265625 1.9734375,14.25 2.25,14.25 L13.75,14.25 C14.0265625,14.25 14.25,14.0265625 14.25,13.75 L14.25,3.375 C14.25,3.0984375 14.0265625,2.875 13.75,2.875 Z M13.125,13.125 L2.875,13.125 L2.875,4 L4.875,4 L4.875,4.75 C4.875,4.81875 4.93125,4.875 5,4.875 L5.875,4.875 C5.94375,4.875 6,4.81875 6,4.75 L6,4 L10,4 L10,4.75 C10,4.81875 10.05625,4.875 10.125,4.875 L11,4.875 C11.06875,4.875 11.125,4.81875 11.125,4.75 L11.125,4 L13.125,4 L13.125,13.125 Z M10.75,6.5625 L9.8875,6.5625 C9.8078125,6.5625 9.73125,6.6015625 9.684375,6.665625 L7.3265625,9.9125 L6.315625,8.521875 C6.26875,8.4578125 6.19375,8.41875 6.1125,8.41875 L5.25,8.41875 C5.1484375,8.41875 5.0890625,8.534375 5.1484375,8.6171875 L7.1234375,11.3359375 C7.2234375,11.4734375 7.4296875,11.4734375 7.5296875,11.3359375 L10.8515625,6.7625 C10.9109375,6.678125 10.8515625,6.5625 10.75,6.5625 Z" id="形状" fill="#3F9EFF"></path>
                </g>
            </g>
        </g>
    </g>
</svg>