<?xml version="1.0" encoding="UTF-8"?>
<svg width="16px" height="16px" viewBox="0 0 16 16" version="1.1" xmlns="http://www.w3.org/2000/svg" xmlns:xlink="http://www.w3.org/1999/xlink">
    <title>database-fill</title>
    <g id="页面-1" stroke="none" stroke-width="1" fill="none" fill-rule="evenodd">
        <g id="个人中心" transform="translate(-985, -481)" fill-rule="nonzero">
            <g id="database-fill" transform="translate(985, 481)">
                <rect id="矩形" fill="#000000" opacity="0" x="0" y="0" width="16" height="16"></rect>
                <path d="M13,2 L3,2 C2.7234375,2 2.5,2.19151786 2.5,2.42857143 L2.5,5.42857143 L13.5,5.42857143 L13.5,2.42857143 C13.5,2.19151786 13.2765625,2 13,2 Z M4.5,4.25 C4.1546875,4.25 3.875,4.01026786 3.875,3.71428571 C3.875,3.41830357 4.1546875,3.17857143 4.5,3.17857143 C4.8453125,3.17857143 5.125,3.41830357 5.125,3.71428571 C5.125,4.01026786 4.8453125,4.25 4.5,4.25 Z M2.5,13.5714286 C2.5,13.8084821 2.7234375,14 3,14 L13,14 C13.2765625,14 13.5,13.8084821 13.5,13.5714286 L13.5,10.5714286 L2.5,10.5714286 L2.5,13.5714286 Z M4.5,11.75 C4.8453125,11.75 5.125,11.9897321 5.125,12.2857143 C5.125,12.5816964 4.8453125,12.8214286 4.5,12.8214286 C4.1546875,12.8214286 3.875,12.5816964 3.875,12.2857143 C3.875,11.9897321 4.1546875,11.75 4.5,11.75 Z M2.5,9.71428571 L13.5,9.71428571 L13.5,6.28571429 L2.5,6.28571429 L2.5,9.71428571 Z M4.5,7.46428571 C4.8453125,7.46428571 5.125,7.70401786 5.125,8 C5.125,8.29598214 4.8453125,8.53571429 4.5,8.53571429 C4.1546875,8.53571429 3.875,8.29598214 3.875,8 C3.875,7.70401786 4.1546875,7.46428571 4.5,7.46428571 Z" id="形状" fill="#409EFF"></path>
            </g>
        </g>
    </g>
</svg>