<?xml version="1.0" encoding="UTF-8"?>
<svg width="20px" height="20px" viewBox="0 0 20 20" version="1.1" xmlns="http://www.w3.org/2000/svg" xmlns:xlink="http://www.w3.org/1999/xlink">
    <title>duanxin</title>
    <g id="页面-1" stroke="none" stroke-width="1" fill="none" fill-rule="evenodd">
        <g id="个人中心" transform="translate(-304, -1021)" fill="#FF6767" fill-rule="nonzero">
            <g id="编组-39" transform="translate(293, 1010)">
                <g id="duanxin-2" transform="translate(11, 11)">
                    <g id="duanxin" transform="translate(1, 3)">
                        <path d="M14.9473547,0 L2.05264533,0 C0.671759647,0 0,0.681755972 0,2.045458 L0,10.227252 C0,11.5910301 0.630235104,12.2355485 1.97669738,12.2355485 L3.95347071,12.2355485 L3.71028536,14.318187 C3.7102417,14.5697796 3.849322,14.8007223 4.07158876,14.9181307 C4.17075245,14.9718396 4.28171687,15 4.3944625,15 C4.52714358,15 4.65993857,14.961717 4.77348076,14.8854172 L8.69765455,12.2355485 L15.0232836,12.2355485 C16.3918847,12.2355485 17,11.5910491 17,10.227252 L17,2.045458 C17,0.681755972 16.3158418,0 14.9473547,0 L14.9473547,0 Z M4.55068744,7.10736209 C4.00655833,7.10736209 3.56433238,6.66446591 3.56433238,6.12133834 C3.56433238,5.5782678 4.00657732,5.1335088 4.55068744,5.1335088 C5.09475959,5.1335088 5.53706148,5.57648101 5.53706148,6.12133834 C5.53696655,6.66627171 5.09291785,7.10736209 4.55068744,7.10736209 Z M8.49783548,7.10736209 C7.95083934,7.10736209 7.50644887,6.66446591 7.50644887,6.12133834 C7.50644887,5.5782678 7.95093427,5.1335088 8.49783548,5.1335088 C9.04477467,5.1335088 9.48916513,5.57648101 9.48916513,6.12133834 C9.48916513,6.66627171 9.042838,7.10736209 8.49785447,7.10736209 L8.49783548,7.10736209 Z M12.4511163,7.10736209 C11.9041012,7.10736209 11.4612677,6.66446591 11.4612677,6.12133834 C11.4612677,5.5782678 11.9041012,5.1335088 12.4510973,5.1335088 C12.9978656,5.1335088 13.442351,5.57648101 13.442351,6.12133834 C13.442351,6.66627171 12.9979606,7.10736209 12.4510973,7.10736209 L12.4511163,7.10736209 Z" id="形状"></path>
                    </g>
                </g>
            </g>
        </g>
    </g>
</svg>