<svg width="32" height="33" viewBox="0 0 32 33" fill="none" xmlns="http://www.w3.org/2000/svg">
<g id="Group 427318779">
<circle id="Ellipse 13" cx="16" cy="16.5713" r="16" fill="#F7F8FC"/>
<g id="Group 427318804">
<g id="Union">
<path d="M16.0382 17.3502C17.6192 17.3502 18.9008 16.0686 18.9008 14.4876C18.9008 12.9066 17.6192 11.625 16.0382 11.625C14.4572 11.625 13.1756 12.9066 13.1756 14.4876C13.1756 16.0686 14.4572 17.3502 16.0382 17.3502Z" fill="#2E3543"/>
<path d="M14.9313 17.7319C12.8233 17.7319 11.1145 19.4407 11.1145 21.5487V24.4494C11.1145 24.4494 12.7176 25.2128 16.0763 25.2128C19.4351 25.2128 21.0382 24.4494 21.0382 24.4494V21.5487C21.0382 19.4407 19.3293 17.7319 17.2214 17.7319H14.9313Z" fill="#2E3543"/>
</g>
<g id="Subtract">
<path d="M12.4691 13.8439C12.0234 14.1303 11.4929 14.2965 10.9237 14.2965C9.34272 14.2965 8.06109 13.0149 8.06109 11.4339C8.06109 9.85292 9.34272 8.57129 10.9237 8.57129C12.5047 8.57129 13.7863 9.85292 13.7863 11.4339C13.7863 11.5072 13.7835 11.5798 13.7781 11.6517C13.1049 12.189 12.6272 12.961 12.4691 13.8439Z" fill="#A7ABBA"/>
<path d="M12.4178 14.6907C12.3153 14.6824 12.2116 14.6782 12.1069 14.6782H9.8168C7.70884 14.6782 6 16.387 6 18.495V21.3957C6 21.3957 7.40847 22.0664 10.3511 22.1505V21.5484C10.3511 19.4838 11.7172 17.7383 13.5947 17.1663C12.9148 16.5459 12.472 15.6701 12.4178 14.6907Z" fill="#A7ABBA"/>
</g>
<g id="Subtract_2">
<path d="M23.8626 11.4339C23.8626 13.0149 22.581 14.2965 21 14.2965C20.5012 14.2965 20.0322 14.1689 19.6238 13.9446C19.4747 12.9511 18.9225 12.0895 18.1391 11.5317C18.138 11.4992 18.1375 11.4666 18.1375 11.4339C18.1375 9.85292 19.4191 8.57129 21 8.57129C22.581 8.57129 23.8626 9.85292 23.8626 11.4339Z" fill="#A7ABBA"/>
<path d="M21.8016 22.1455C24.6403 22.0432 26 21.3957 26 21.3957V18.495C26 16.387 24.2912 14.6782 22.1832 14.6782H19.8932C19.8145 14.6782 19.7364 14.6805 19.6589 14.6852C19.6065 15.6579 19.1709 16.5286 18.5004 17.1492C20.4075 17.7027 21.8016 19.4627 21.8016 21.5484V22.1455Z" fill="#A7ABBA"/>
</g>
</g>
</g>
</svg>
