<svg width="18" height="19" viewBox="0 0 18 19" fill="none" xmlns="http://www.w3.org/2000/svg">
<g id="Group 427318791">
<path id="Vector 131" d="M3.89185 14.6656V12.7332V12.2602C3.89185 11.984 4.1157 11.7602 4.39185 11.7602H14.0945C14.3707 11.7602 14.5945 11.5363 14.5945 11.2602V4.96289C14.5945 4.68675 14.8184 4.46289 15.0945 4.46289H17.5C17.7761 4.46289 18 4.68675 18 4.96289V17.3639C18 17.8093 17.4614 18.0324 17.1464 17.7174L14.741 15.312C14.6472 15.2183 14.5201 15.1656 14.3874 15.1656H4.39185C4.1157 15.1656 3.89185 14.9417 3.89185 14.6656Z" fill="#2E3543"/>
<path id="Vector 130" d="M13.6216 1.57129V9.30102C13.6216 9.8533 13.1739 10.301 12.6216 10.301H4.30611C4.04089 10.301 3.78654 10.4064 3.599 10.5939L1.70711 12.4858C1.07714 13.1158 0 12.6696 0 11.7787V1.57129C0 1.019 0.447716 0.571289 1 0.571289H12.6216C13.1739 0.571289 13.6216 1.019 13.6216 1.57129Z" fill="#A7ABBA"/>
</g>
</svg>
