<svg width="162" height="44" viewBox="0 0 162 44" fill="none" xmlns="http://www.w3.org/2000/svg">
<g id="logo&#229;&#155;&#190;&#230;&#150;&#135;">
<g id="logo">
<path id="Vector" d="M16.7619 13.7857C18.6667 9.2619 22.4257 2 31.7619 2C38.5921 2 42.5952 5.92857 44.8571 9.2619M33.5476 29.5C30.0952 36.4048 23.4363 41.1667 15.8095 41.1667C8.18273 41.1667 2 35.3411 2 27.7143C2 20.0875 8.18273 13.9048 15.8095 13.9048C20.2317 13.9048 22.8058 14.5999 25.3333 17.8333M33.4286 29.619C36.6438 23.1666 42.0364 16.0476 49.1392 16.0476C56.242 16.0476 62 21.4916 62 28.6188C62 35.7461 56.242 41.2857 49.1392 41.2857C45.0209 41.2857 43.2824 40.6169 40.9286 37.5952" stroke="url(#paint0_linear_333_16007)" stroke-width="3.68852" stroke-linecap="round"/>
</g>
<g id="Frame 1">
<path id="&#232;&#156;&#130;&#231;&#170;&#157;&#228;&#186;&#145;&#229;&#138;&#158;&#229;&#133;&#172;" d="M75.1618 20.7045C75.3954 21.2209 75.6167 21.7681 75.8257 22.3459C76.047 22.9238 76.2438 23.5201 76.4159 24.1349C76.4897 24.4054 76.5081 24.6082 76.4712 24.7435C76.4343 24.891 76.293 25.0017 76.047 25.0754C75.838 25.1369 75.6659 25.1369 75.5307 25.0754C75.4077 25.014 75.297 24.8295 75.1987 24.5222C75.1372 24.3377 75.0819 24.1595 75.0327 23.9873C74.9835 23.8275 74.9282 23.6615 74.8667 23.4894L70.0163 25.0754C69.7335 25.1738 69.5061 25.1984 69.3339 25.1492C69.1618 25.1123 69.0327 24.9709 68.9466 24.725C68.8729 24.516 68.8729 24.3254 68.9466 24.1533C69.0204 23.9812 69.2356 23.8398 69.5921 23.7291L71.9159 22.9914V20.0222H70.8831C70.6003 20.0222 70.3667 19.9976 70.1823 19.9484C70.0102 19.8992 69.8749 19.8193 69.7766 19.7086C69.6905 19.5857 69.629 19.4259 69.5921 19.2291C69.5675 19.0201 69.5552 18.7558 69.5552 18.4361V11.8152C69.5552 11.2496 69.6413 10.85 69.8134 10.6164C69.9979 10.3705 70.3544 10.2476 70.8831 10.2476H71.9159V8.56929C71.9159 8.0652 72.1434 7.81315 72.5983 7.81315C73.0286 7.81315 73.2438 8.0652 73.2438 8.56929V10.2476H74.129C74.6577 10.2476 75.0143 10.3705 75.1987 10.6164C75.3831 10.85 75.4753 11.2496 75.4753 11.8152V18.4361C75.4753 19.0017 75.3831 19.4074 75.1987 19.6533C75.0143 19.8992 74.6577 20.0222 74.129 20.0222H73.2438V22.5672L74.3872 22.2168C74.3257 22.0816 74.2643 21.9463 74.2028 21.8111C74.1413 21.6636 74.0798 21.516 74.0184 21.3685C73.9077 21.1349 73.8708 20.932 73.9077 20.7599C73.9446 20.5754 74.0675 20.434 74.2766 20.3357C74.4856 20.2373 74.6577 20.2127 74.793 20.2619C74.9282 20.3111 75.0511 20.4586 75.1618 20.7045ZM81.7827 24.725C81.7827 25.2045 81.5614 25.4443 81.1188 25.4443C80.8852 25.4443 80.7069 25.389 80.5839 25.2783C80.4733 25.1677 80.418 24.9832 80.418 24.725V22.9545H76.711C76.4528 22.9545 76.2684 22.8931 76.1577 22.7701C76.047 22.6595 75.9917 22.4996 75.9917 22.2906C75.9917 22.0816 76.047 21.9156 76.1577 21.7927C76.2684 21.6697 76.4528 21.6082 76.711 21.6082H80.418V20.1697H77.4856C77.0184 20.1697 76.7848 19.9545 76.7848 19.5242C76.7848 19.3152 76.8339 19.1492 76.9323 19.0263C77.043 18.9033 77.2274 18.8418 77.4856 18.8418H80.418V17.5324H77.1167C76.8708 17.5324 76.6864 17.4771 76.5634 17.3664C76.4528 17.2435 76.3975 17.0775 76.3975 16.8685C76.3975 16.6349 76.4466 16.4627 76.545 16.3521C76.6557 16.2291 76.8462 16.1677 77.1167 16.1677H80.418V15.3931C80.418 15.1349 80.4733 14.9504 80.5839 14.8398C80.7069 14.7291 80.8852 14.6738 81.1188 14.6738C81.5614 14.6738 81.7827 14.9136 81.7827 15.3931V16.1677H85.0286C85.2868 16.1677 85.4712 16.2291 85.5819 16.3521C85.6925 16.4627 85.7479 16.6349 85.7479 16.8685C85.7479 17.0775 85.6864 17.2435 85.5634 17.3664C85.4528 17.4771 85.2745 17.5324 85.0286 17.5324H81.7827V18.8418H84.752C84.961 18.8418 85.127 18.8972 85.2499 19.0078C85.3852 19.1062 85.4528 19.2722 85.4528 19.5058C85.4528 19.9484 85.2192 20.1697 84.752 20.1697H81.7827V21.6082H85.7294C85.9999 21.6082 86.1843 21.6697 86.2827 21.7927C86.3811 21.9156 86.4302 22.0816 86.4302 22.2906C86.4302 22.4996 86.3749 22.6595 86.2643 22.7701C86.1536 22.8931 85.9753 22.9545 85.7294 22.9545H81.7827V24.725ZM86.5225 15.6144C86.461 15.8603 86.3442 16.0201 86.172 16.0939C85.9999 16.1554 85.7417 16.1246 85.3975 16.0017C84.5491 15.7189 83.7991 15.43 83.1475 15.1349C82.4958 14.8398 81.8872 14.514 81.3216 14.1574C80.7684 14.5386 80.1413 14.8705 79.4405 15.1533C78.7397 15.4238 77.8729 15.7066 76.8401 16.0017C76.4343 16.1246 76.1454 16.1615 75.9733 16.1123C75.8011 16.0631 75.6843 15.9095 75.6229 15.6513C75.5614 15.4054 75.586 15.2148 75.6966 15.0795C75.8196 14.9443 76.0655 14.8275 76.4343 14.7291C77.2089 14.5201 77.8975 14.305 78.4999 14.0836C79.1024 13.85 79.6495 13.5857 80.1413 13.2906C79.5389 12.7865 78.9241 12.1718 78.297 11.4463C78.002 11.889 77.6516 12.35 77.2458 12.8295C77.0122 13.1 76.797 13.2476 76.6003 13.2722C76.4159 13.2968 76.2315 13.223 76.047 13.0509C75.8995 12.9156 75.8442 12.7558 75.8811 12.5713C75.9302 12.3869 76.0778 12.1533 76.3237 11.8705C76.5573 11.6123 76.7602 11.3664 76.9323 11.1328C77.1167 10.8869 77.2889 10.6349 77.4487 10.3767C77.6085 10.1185 77.7622 9.84184 77.9098 9.54675C78.0573 9.25167 78.211 8.91356 78.3708 8.53241C78.4692 8.28651 78.5921 8.12667 78.7397 8.0529C78.8872 7.96684 79.0839 7.97298 79.3298 8.07134C79.5143 8.15741 79.6249 8.27421 79.6618 8.42175C79.711 8.5693 79.6802 8.78446 79.5696 9.06725H83.627C83.9343 9.06725 84.1864 9.12257 84.3831 9.23323C84.5921 9.34389 84.7335 9.49143 84.8073 9.67585C84.8811 9.84798 84.8872 10.0509 84.8257 10.2845C84.7643 10.5181 84.6352 10.764 84.4384 11.0222C84.0696 11.4894 83.7253 11.9074 83.4057 12.2763C83.0983 12.6328 82.7848 12.9586 82.4651 13.2537C82.92 13.5119 83.4118 13.7517 83.9405 13.973C84.4692 14.1943 85.0778 14.4279 85.7663 14.6738C86.1229 14.7968 86.3503 14.9259 86.4487 15.0611C86.5593 15.184 86.5839 15.3685 86.5225 15.6144ZM70.8647 18.3254C70.8647 18.559 70.9261 18.6759 71.0491 18.6759H71.9159V11.6308H71.086C71.0245 11.6308 70.9692 11.6615 70.92 11.723C70.8831 11.7722 70.8647 11.8459 70.8647 11.9443V18.3254ZM74.2028 11.9443C74.2028 11.8459 74.172 11.7722 74.1106 11.723C74.0614 11.6615 74.0061 11.6308 73.9446 11.6308H73.2438V18.6759H73.963C74.1229 18.6759 74.2028 18.559 74.2028 18.3254V11.9443ZM78.9979 10.3213C79.4159 10.7763 79.8093 11.182 80.1782 11.5386C80.547 11.8828 80.9159 12.1963 81.2848 12.4791C81.6044 12.2209 81.9057 11.9381 82.1884 11.6308C82.4835 11.3111 82.7786 10.9607 83.0737 10.5795C83.172 10.4689 83.2151 10.4013 83.2028 10.3767C83.1905 10.3398 83.1352 10.3213 83.0368 10.3213H78.9979ZM91.4282 17.2558C90.838 17.2558 90.4261 17.1513 90.1925 16.9422C89.9589 16.7332 89.8421 16.3336 89.8421 15.7435V14.6369C89.8421 14.0468 89.9589 13.6472 90.1925 13.4381C90.4261 13.2168 90.838 13.1062 91.4282 13.1062H100.834C101.424 13.1062 101.836 13.2168 102.07 13.4381C102.315 13.6472 102.438 14.0468 102.438 14.6369V15.7435C102.438 16.3336 102.315 16.7332 102.07 16.9422C101.836 17.1513 101.424 17.2558 100.834 17.2558H96.7028C96.6659 17.6246 96.629 17.9136 96.5921 18.1226H102.199C102.813 18.1226 103.244 18.2332 103.49 18.4545C103.748 18.6759 103.877 19.1 103.877 19.7271V23.2127C103.877 24.0119 103.711 24.5713 103.379 24.891C103.047 25.2107 102.494 25.3705 101.719 25.3705C101.4 25.3705 101.043 25.3213 100.65 25.223C100.256 25.1369 99.8011 24.9771 99.2848 24.7435C98.793 24.5099 98.6577 24.1841 98.879 23.766C99.002 23.5324 99.1372 23.391 99.2848 23.3418C99.4446 23.2927 99.6536 23.3357 99.9118 23.4709C100.305 23.6677 100.65 23.8091 100.945 23.8951C101.24 23.9812 101.492 24.0242 101.701 24.0242C101.984 24.0242 102.174 23.9627 102.272 23.8398C102.383 23.7291 102.438 23.514 102.438 23.1943V19.764C102.438 19.6779 102.408 19.6164 102.346 19.5795C102.297 19.5427 102.242 19.5242 102.18 19.5242H96.5368C97.4589 19.9545 98.2889 20.3787 99.0266 20.7968C99.7643 21.2025 100.453 21.6205 101.092 22.0509C101.633 22.4197 101.756 22.807 101.461 23.2127C101.313 23.4218 101.154 23.5263 100.981 23.5263C100.809 23.5263 100.57 23.4218 100.262 23.2127C99.672 22.7947 99.0143 22.3767 98.2889 21.9586C97.5757 21.5283 96.6905 21.0427 95.6331 20.5017C95.2643 21.055 94.7602 21.5959 94.1208 22.1246C93.4815 22.6533 92.6393 23.2127 91.5942 23.8029C91.2868 23.975 91.0409 24.0488 90.8565 24.0242C90.672 24.0119 90.5122 23.9013 90.377 23.6922C90.254 23.4832 90.2233 23.2804 90.2848 23.0836C90.3585 22.8869 90.5552 22.7086 90.8749 22.5488C91.8831 22.0324 92.6884 21.5406 93.2909 21.0734C93.8934 20.5939 94.3544 20.0775 94.6741 19.5242H90.2848C90.1126 19.5242 90.002 19.5611 89.9528 19.6349C89.9036 19.6963 89.879 19.8254 89.879 20.0222V24.6881C89.879 24.9709 89.8114 25.1615 89.6761 25.2599C89.5532 25.3705 89.3872 25.4259 89.1782 25.4259C88.9569 25.4259 88.7786 25.3705 88.6434 25.2599C88.5081 25.1615 88.4405 24.9709 88.4405 24.6881V19.6902C88.4405 19.0754 88.5511 18.6636 88.7725 18.4545C89.0061 18.2332 89.3934 18.1226 89.9343 18.1226H95.1905C95.2397 17.8644 95.2766 17.5754 95.3011 17.2558H91.4282ZM89.8421 10.3951C89.7438 10.3951 89.6577 10.4504 89.5839 10.5611C89.5102 10.6595 89.4733 10.8131 89.4733 11.0222V11.6492C89.4733 11.8582 89.4057 12.0181 89.2704 12.1287C89.1475 12.2271 88.9815 12.2763 88.7725 12.2763C88.5757 12.2763 88.4098 12.2394 88.2745 12.1656C88.1516 12.0795 88.0901 11.9136 88.0901 11.6677V11.1328C88.0901 10.7394 88.1085 10.4136 88.1454 10.1554C88.1946 9.89716 88.2807 9.6943 88.4036 9.54675C88.5266 9.38692 88.6987 9.27626 88.92 9.21479C89.1536 9.15331 89.4487 9.12257 89.8052 9.12257H95.3749C95.3503 9.0611 95.3196 9.00577 95.2827 8.95659C95.2581 8.90741 95.2274 8.85208 95.1905 8.79061C95.0307 8.50782 94.9753 8.28651 95.0245 8.12667C95.0737 7.96684 95.2397 7.83774 95.5225 7.73938C95.7438 7.65331 95.922 7.65331 96.0573 7.73938C96.2048 7.81315 96.3524 7.99143 96.4999 8.27421C96.5491 8.37257 96.6044 8.49552 96.6659 8.64307C96.7274 8.77831 96.7889 8.93815 96.8503 9.12257H102.678C103.416 9.12257 103.926 9.26397 104.209 9.54675C104.504 9.82954 104.621 10.3029 104.559 10.9668C104.522 11.3849 104.467 11.7107 104.393 11.9443C104.332 12.1779 104.252 12.35 104.154 12.4607C104.068 12.559 103.963 12.6082 103.84 12.6082C103.729 12.5959 103.6 12.5652 103.453 12.516C103.207 12.4422 103.072 12.3193 103.047 12.1472C103.022 11.975 103.072 11.6922 103.195 11.2988C103.379 10.6963 103.219 10.3951 102.715 10.3951H98.9159V10.8009C98.9159 10.973 98.9282 11.0898 98.9528 11.1513C98.9897 11.2127 99.0696 11.2435 99.1925 11.2435H101.922C102.389 11.2435 102.623 11.4648 102.623 11.9074C102.623 12.3377 102.395 12.5529 101.94 12.5529H99.1372C98.8175 12.5529 98.5593 12.5345 98.3626 12.4976C98.1659 12.4484 98.0122 12.3685 97.9016 12.2578C97.7909 12.1349 97.711 11.9689 97.6618 11.7599C97.6249 11.5509 97.6065 11.2804 97.6065 10.9484V10.3951H94.0839C93.6413 11.0099 93.1495 11.4955 92.6085 11.8521C92.0798 12.1963 91.5204 12.5037 90.9302 12.7742C90.5491 12.9463 90.2663 13.0078 90.0819 12.9586C89.9098 12.9095 89.7807 12.7681 89.6946 12.5345C89.6331 12.3377 89.6454 12.1533 89.7315 11.9812C89.8298 11.809 90.002 11.6738 90.2479 11.5754C90.6044 11.4402 90.9548 11.2804 91.2991 11.0959C91.6557 10.9115 91.9876 10.6779 92.295 10.3951H89.8421ZM101.037 14.7291C101.037 14.5816 100.932 14.5078 100.723 14.5078H91.5389C91.3421 14.5078 91.2438 14.5816 91.2438 14.7291V15.6513C91.2438 15.7988 91.3421 15.8726 91.5389 15.8726H100.723C100.932 15.8726 101.037 15.7988 101.037 15.6513V14.7291ZM106.606 16.1677C106.324 16.1677 106.127 16.1185 106.016 16.0201C105.906 15.9095 105.85 15.7312 105.85 15.4853C105.85 15.2394 105.906 15.0611 106.016 14.9504C106.127 14.8398 106.324 14.7845 106.606 14.7845H122.559C122.842 14.7845 123.039 14.8398 123.15 14.9504C123.26 15.0611 123.315 15.2394 123.315 15.4853C123.315 15.7312 123.26 15.9095 123.15 16.0201C123.039 16.1185 122.842 16.1677 122.559 16.1677H114.131C113.652 16.8808 113.197 17.5324 112.766 18.1226C112.348 18.7127 111.936 19.266 111.531 19.7824C111.125 20.2865 110.719 20.7722 110.313 21.2394C109.92 21.7066 109.508 22.1738 109.078 22.641C108.856 22.8869 108.93 22.9976 109.299 22.973L120.033 22.4381C119.639 21.8603 119.221 21.2763 118.779 20.6861C118.336 20.0836 117.924 19.5242 117.543 19.0078C117.359 18.7496 117.26 18.5468 117.248 18.3992C117.236 18.2517 117.322 18.0857 117.506 17.9013C117.863 17.5447 118.281 17.6677 118.76 18.2701C119.092 18.7127 119.436 19.18 119.793 19.6718C120.15 20.1513 120.494 20.6369 120.826 21.1287C121.158 21.6082 121.471 22.0754 121.766 22.5304C122.061 22.9976 122.32 23.4279 122.541 23.8213C122.713 24.141 122.768 24.3992 122.707 24.5959C122.658 24.7927 122.529 24.9402 122.32 25.0386C122.135 25.1369 121.957 25.1431 121.785 25.057C121.625 24.9832 121.459 24.7804 121.287 24.4484C121.225 24.3377 121.158 24.2209 121.084 24.098C121.022 23.9873 120.949 23.8644 120.863 23.7291L108.82 24.3746C108.168 24.3992 107.695 24.3254 107.4 24.1533C107.117 23.9812 106.975 23.7353 106.975 23.4156C106.975 23.2189 107.031 23.016 107.141 22.807C107.252 22.6103 107.406 22.3951 107.602 22.1615C108.475 21.1779 109.299 20.2189 110.074 19.2845C110.848 18.3377 111.623 17.2988 112.397 16.1677H106.606ZM121.914 10.1C121.914 10.3459 121.859 10.5242 121.748 10.6349C121.637 10.7455 121.447 10.8009 121.176 10.8009H108.063C107.793 10.8009 107.602 10.7455 107.492 10.6349C107.381 10.5242 107.326 10.3459 107.326 10.1C107.326 9.85413 107.381 9.67585 107.492 9.5652C107.602 9.44225 107.793 9.38077 108.063 9.38077H121.176C121.447 9.38077 121.637 9.44225 121.748 9.5652C121.859 9.67585 121.914 9.85413 121.914 10.1ZM131.891 10.432C131.916 10.1615 131.928 9.89102 131.928 9.62052C131.94 9.33774 131.953 9.0488 131.965 8.75372C131.99 8.17585 132.236 7.88692 132.703 7.88692C132.998 7.88692 133.201 7.96684 133.311 8.12667C133.434 8.27421 133.49 8.53856 133.477 8.91971C133.453 9.1779 133.428 9.4361 133.404 9.6943C133.391 9.9402 133.373 10.1861 133.348 10.432H135.137C135.641 10.432 136.053 10.475 136.373 10.5611C136.705 10.6472 136.963 10.7886 137.147 10.9853C137.344 11.182 137.479 11.4402 137.553 11.7599C137.639 12.0795 137.688 12.473 137.701 12.9402C137.725 13.6533 137.738 14.4463 137.738 15.3193C137.738 16.18 137.725 17.0406 137.701 17.9013C137.676 18.7496 137.639 19.555 137.59 20.3172C137.553 21.0672 137.51 21.682 137.461 22.1615C137.338 23.182 136.988 23.932 136.41 24.4115C135.844 24.891 135.033 25.1308 133.975 25.1308C133.766 25.1308 133.557 25.1246 133.348 25.1123C133.152 25.1 132.943 25.0816 132.721 25.057C132.5 25.0324 132.26 24.9894 132.002 24.9279C131.744 24.8787 131.455 24.8111 131.135 24.725C130.373 24.5037 130.109 24.1287 130.342 23.6C130.428 23.3541 130.582 23.2127 130.803 23.1759C131.025 23.139 131.277 23.1636 131.559 23.2496C132.088 23.3972 132.518 23.5078 132.85 23.5816C133.195 23.6554 133.545 23.6922 133.902 23.6922C134.652 23.7045 135.18 23.5324 135.488 23.1759C135.795 22.8316 135.998 22.3459 136.096 21.7189C136.133 21.473 136.164 21.141 136.188 20.723C136.225 20.2927 136.256 19.8131 136.281 19.2845C136.318 18.7558 136.342 18.1963 136.354 17.6062C136.379 17.016 136.397 16.432 136.41 15.8541C136.422 15.2763 136.428 14.723 136.428 14.1943C136.44 13.6656 136.44 13.1984 136.428 12.7927C136.404 12.4238 136.305 12.184 136.133 12.0734C135.961 11.9627 135.629 11.9074 135.137 11.9074H133.201C133.004 13.6656 132.727 15.2148 132.371 16.555C132.027 17.8828 131.578 19.0754 131.025 20.1328C130.484 21.1779 129.82 22.1062 129.033 22.9177C128.258 23.7414 127.348 24.516 126.303 25.2414C126.082 25.389 125.848 25.4504 125.602 25.4259C125.369 25.4013 125.197 25.2845 125.086 25.0754C125 24.8664 124.981 24.6759 125.031 24.5037C125.092 24.3439 125.246 24.1779 125.492 24.0058C126.463 23.3664 127.311 22.6656 128.037 21.9033C128.762 21.1287 129.377 20.2558 129.881 19.2845C130.397 18.3009 130.809 17.2066 131.117 16.0017C131.436 14.7845 131.664 13.4197 131.799 11.9074H127.022C126.457 11.9074 126.174 11.6615 126.174 11.1697C126.174 10.9484 126.254 10.7701 126.414 10.6349C126.574 10.4996 126.777 10.432 127.022 10.432H131.891ZM141.74 20.225C141.9 21.0119 141.721 21.4422 141.205 21.516C140.922 21.5406 140.719 21.473 140.596 21.3131C140.473 21.1533 140.363 20.8521 140.264 20.4095C140.092 19.4013 139.877 18.473 139.619 17.6246C139.373 16.7763 139.053 15.9279 138.66 15.0795C138.34 14.391 138.389 13.9484 138.807 13.7517C139.029 13.6287 139.238 13.6164 139.434 13.7148C139.643 13.8131 139.852 14.0959 140.061 14.5631C140.418 15.3869 140.731 16.2599 141.002 17.182C141.285 18.0918 141.531 19.1062 141.74 20.225ZM128.719 15.098C128.387 16.057 128.006 16.9976 127.576 17.9197C127.158 18.8295 126.635 19.7517 126.008 20.6861C125.725 21.1164 125.479 21.3562 125.27 21.4054C125.061 21.4545 124.852 21.3931 124.643 21.2209C124.471 21.0857 124.397 20.9013 124.422 20.6677C124.459 20.434 124.57 20.1881 124.754 19.93C125.356 19.0816 125.873 18.2209 126.303 17.348C126.734 16.4627 127.072 15.5959 127.318 14.7476C127.44 14.3172 127.588 14.0468 127.76 13.9361C127.945 13.8254 128.141 13.8009 128.35 13.8623C128.596 13.9361 128.744 14.0898 128.793 14.3234C128.842 14.5447 128.818 14.8029 128.719 15.098ZM153.967 18.0857C153.672 17.6185 153.721 17.2619 154.115 17.016C154.361 16.8685 154.57 16.8254 154.742 16.8869C154.914 16.9361 155.086 17.1144 155.258 17.4218C155.959 18.6144 156.574 19.764 157.102 20.8705C157.631 21.9648 158.129 23.0898 158.596 24.2455C158.707 24.5283 158.744 24.7619 158.707 24.9463C158.67 25.1431 158.51 25.2968 158.227 25.4074C157.981 25.5058 157.779 25.5058 157.619 25.4074C157.471 25.3213 157.33 25.1123 157.195 24.7804C157.121 24.5836 157.047 24.3869 156.973 24.1902C156.9 24.0058 156.826 23.8213 156.752 23.6369L145.981 24.2824C145.588 24.307 145.268 24.264 145.022 24.1533C144.777 24.055 144.604 23.9074 144.506 23.7107C144.42 23.514 144.414 23.2742 144.488 22.9914C144.561 22.7209 144.727 22.4259 144.986 22.1062C145.477 21.4914 145.975 20.8336 146.479 20.1328C146.984 19.4197 147.475 18.6943 147.955 17.9566C148.434 17.2189 148.895 16.475 149.338 15.725C149.781 14.975 150.186 14.2373 150.555 13.5119C150.703 13.2291 150.863 13.0324 151.035 12.9218C151.207 12.8111 151.41 12.8111 151.643 12.9218C151.914 13.057 152.055 13.2353 152.068 13.4566C152.092 13.6656 152.018 13.9238 151.846 14.2312C151.453 14.9689 151.041 15.7066 150.611 16.4443C150.18 17.182 149.738 17.9074 149.283 18.6205C148.828 19.3213 148.373 19.9976 147.918 20.6492C147.463 21.2886 147.014 21.8849 146.572 22.4381C146.522 22.4996 146.486 22.5734 146.461 22.6595C146.449 22.7578 146.535 22.8009 146.719 22.7886L156.143 22.2537C155.848 21.5898 155.516 20.9259 155.147 20.2619C154.791 19.5857 154.397 18.8603 153.967 18.0857ZM154.41 10.432C154.311 10.0754 154.195 9.83569 154.059 9.71274C153.924 9.58979 153.727 9.52831 153.469 9.52831H151.404C150.949 9.52831 150.721 9.32544 150.721 8.91971C150.721 8.48938 150.949 8.27421 151.404 8.27421H153.561C153.906 8.27421 154.182 8.29266 154.391 8.32954C154.613 8.35413 154.797 8.42175 154.945 8.53241C155.092 8.64307 155.215 8.80905 155.313 9.03036C155.424 9.23938 155.535 9.52831 155.645 9.89716C155.83 10.4873 156.045 11.016 156.291 11.4832C156.537 11.9381 156.82 12.3562 157.139 12.7373C157.471 13.1185 157.84 13.4689 158.246 13.7886C158.652 14.1082 159.113 14.4218 159.629 14.7291C160.195 15.0734 160.354 15.4545 160.109 15.8726C159.986 16.0816 159.807 16.1922 159.574 16.2045C159.352 16.2045 159.057 16.0877 158.688 15.8541C157.57 15.1779 156.654 14.4033 155.94 13.5304C155.24 12.6574 154.729 11.6246 154.41 10.432ZM148.969 10.3767C148.453 11.4218 147.813 12.4177 147.051 13.3644C146.289 14.3111 145.459 15.2455 144.561 16.1677C144.328 16.4136 144.1 16.5427 143.879 16.555C143.658 16.5672 143.449 16.4935 143.252 16.3336C143.104 16.2107 143.043 16.0509 143.068 15.8541C143.104 15.6574 143.221 15.4545 143.418 15.2455C144.389 14.2004 145.231 13.223 145.945 12.3131C146.658 11.4033 147.211 10.5427 147.604 9.73118C147.74 9.44839 147.9 9.27011 148.084 9.19634C148.268 9.11028 148.453 9.11028 148.637 9.19634C148.834 9.28241 148.969 9.42995 149.043 9.63897C149.129 9.84798 149.104 10.0939 148.969 10.3767Z" fill="black"/>
<path id="cloud office" d="M72.3097 37.2631C70.3035 37.2631 69.0128 35.8023 69.0128 33.531V33.526C69.0128 31.2547 70.2985 29.8038 72.3097 29.8038C73.8106 29.8038 74.9762 30.7144 75.2514 32.0802L75.2614 32.1302H74.3509L74.3159 32.0201C74.0357 31.1446 73.3253 30.6343 72.3097 30.6343C70.8689 30.6343 69.9383 31.77 69.9383 33.526V33.531C69.9383 35.287 70.8739 36.4327 72.3097 36.4327C73.3203 36.4327 74.0207 35.9324 74.3359 34.9818L74.3509 34.9368H75.2614L75.2514 34.9868C74.9762 36.3676 73.8206 37.2631 72.3097 37.2631ZM76.327 37.1431V29.9239H77.2275V36.3326H80.7095V37.1431H76.327ZM84.4517 37.2631C82.4005 37.2631 81.1198 35.8273 81.1198 33.536V33.526C81.1198 31.2397 82.4055 29.8038 84.4517 29.8038C86.4929 29.8038 87.7736 31.2397 87.7736 33.526V33.536C87.7736 35.8273 86.4979 37.2631 84.4517 37.2631ZM84.4517 36.4327C85.9376 36.4327 86.8531 35.297 86.8531 33.536V33.526C86.8531 31.755 85.9225 30.6343 84.4517 30.6343C82.9758 30.6343 82.0403 31.75 82.0403 33.526V33.536C82.0403 35.312 82.9708 36.4327 84.4517 36.4327ZM91.7659 37.2631C89.9749 37.2631 88.8943 36.1825 88.8943 34.6116V29.9239H89.7948V34.5516C89.7948 35.6622 90.5152 36.4327 91.7659 36.4327C93.0166 36.4327 93.727 35.6622 93.727 34.5516V29.9239H94.6276V34.6116C94.6276 36.1825 93.5569 37.2631 91.7659 37.2631ZM96.0284 37.1431V29.9239H98.4548C100.591 29.9239 101.862 31.2547 101.862 33.521V33.531C101.862 35.8073 100.601 37.1431 98.4548 37.1431H96.0284ZM96.9289 36.3326H98.3947C100.031 36.3326 100.941 35.332 100.941 33.541V33.531C100.941 31.7299 100.031 30.7344 98.3947 30.7344H96.9289V36.3326ZM108.135 37.2631C106.084 37.2631 104.803 35.8273 104.803 33.536V33.526C104.803 31.2397 106.089 29.8038 108.135 29.8038C110.177 29.8038 111.457 31.2397 111.457 33.526V33.536C111.457 35.8273 110.182 37.2631 108.135 37.2631ZM108.135 36.4327C109.621 36.4327 110.537 35.297 110.537 33.536V33.526C110.537 31.755 109.606 30.6343 108.135 30.6343C106.659 30.6343 105.724 31.75 105.724 33.526V33.536C105.724 35.312 106.654 36.4327 108.135 36.4327ZM112.578 37.1431V29.9239H116.96V30.7344H113.478V33.2158H116.675V34.0163H113.478V37.1431H112.578ZM117.991 37.1431V29.9239H122.374V30.7344H118.892V33.2158H122.088V34.0163H118.892V37.1431H117.991ZM123.404 37.1431V29.9239H124.305V37.1431H123.404ZM128.722 37.2631C126.716 37.2631 125.425 35.8023 125.425 33.531V33.526C125.425 31.2547 126.711 29.8038 128.722 29.8038C130.223 29.8038 131.389 30.7144 131.664 32.0802L131.674 32.1302H130.763L130.728 32.0201C130.448 31.1446 129.738 30.6343 128.722 30.6343C127.281 30.6343 126.351 31.77 126.351 33.526V33.531C126.351 35.287 127.286 36.4327 128.722 36.4327C129.733 36.4327 130.433 35.9324 130.748 34.9818L130.763 34.9368H131.674L131.664 34.9868C131.389 36.3676 130.233 37.2631 128.722 37.2631ZM132.74 37.1431V29.9239H137.212V30.7344H133.64V33.0507H137.027V33.8512H133.64V36.3326H137.212V37.1431H132.74Z" fill="#2E3543"/>
</g>
</g>
<defs>
<linearGradient id="paint0_linear_333_16007" x1="61.9618" y1="41.5048" x2="18.9713" y2="8.97143" gradientUnits="userSpaceOnUse">
<stop stop-color="#3D67FF"/>
<stop offset="1" stop-color="#409EFF"/>
</linearGradient>
</defs>
</svg>
