<svg width="50" height="51" viewBox="0 0 50 51" fill="none" xmlns="http://www.w3.org/2000/svg">
<g id="Frame 427318705">
<g id="Group 427318793">
<circle id="Ellipse 28" opacity="0.4" cx="25" cy="25.5713" r="24.5" stroke="#409EFF"/>
<g id="Icon/Solid/volume-up">
<g id="Icon">
<path fill-rule="evenodd" clip-rule="evenodd" d="M24.3827 18.6472C24.7564 18.802 25 19.1666 25 19.5711V31.5711C25 31.9755 24.7564 32.3402 24.3827 32.495C24.009 32.6497 23.5789 32.5642 23.2929 32.2782L19.5858 28.5711H17C16.4477 28.5711 16 28.1234 16 27.5711V23.5711C16 23.0188 16.4477 22.5711 17 22.5711H19.5858L23.2929 18.864C23.5789 18.578 24.009 18.4924 24.3827 18.6472Z" fill="#409EFF"/>
<path fill-rule="evenodd" clip-rule="evenodd" d="M29.6568 18.4999C30.0474 18.1094 30.6805 18.1094 31.0711 18.4999C32.8796 20.3085 34 22.8098 34 25.571C34 28.3321 32.8796 30.8335 31.0711 32.6421C30.6805 33.0326 30.0474 33.0326 29.6568 32.6421C29.2663 32.2515 29.2663 31.6184 29.6568 31.2278C31.1057 29.779 32 27.7804 32 25.571C32 23.3616 31.1057 21.3629 29.6568 19.9141C29.2663 19.5236 29.2663 18.8904 29.6568 18.4999ZM26.8284 21.3284C27.2189 20.9378 27.8521 20.9378 28.2426 21.3284C28.7685 21.8542 29.1976 22.4779 29.5003 23.1706C29.822 23.907 30 24.7195 30 25.571C30 27.2276 29.3273 28.7289 28.2426 29.8136C27.8521 30.2042 27.2189 30.2042 26.8284 29.8136C26.4379 29.4231 26.4379 28.7899 26.8284 28.3994C27.5534 27.6745 28 26.6758 28 25.571C28 25.0003 27.8811 24.4599 27.6676 23.9714C27.4663 23.5106 27.1802 23.0943 26.8284 22.7426C26.4379 22.352 26.4379 21.7189 26.8284 21.3284Z" fill="#409EFF"/>
</g>
</g>
</g>
</g>
</svg>
