<svg width="32" height="33" viewBox="0 0 32 33" fill="none" xmlns="http://www.w3.org/2000/svg">
<g id="Group 427318783">
<circle id="Ellipse 13" cx="16" cy="16.5713" r="16" fill="#F7F8FC"/>
<g id="&#232;&#167;&#146;&#232;&#137;&#178;&#231;&#174;&#161;&#231;&#144;&#134; 1">
<g id="Group 427318782">
<path id="Vector" d="M20.8422 9.57129C21.1772 9.57129 21.4985 9.70437 21.7354 9.94126C21.9723 10.1782 22.1054 10.4994 22.1054 10.8345V15.5873C21.5374 15.232 20.8807 15.044 20.2106 15.045C18.234 15.045 16.6317 16.6474 16.6317 18.624L16.6327 18.7084C16.6432 19.1583 16.7373 19.5939 16.9045 19.9962L16.9262 20.0468L16.9213 20.051C16.368 20.5253 15.9239 21.1137 15.6195 21.7759C15.3151 22.4381 15.1576 23.1584 15.158 23.8872C15.158 24.1087 15.1959 24.3213 15.2658 24.5188H9.26317C8.92816 24.5188 8.60686 24.3857 8.36997 24.1488C8.13308 23.9119 8 23.5906 8 23.2556V10.8345C8 10.4994 8.13308 10.1782 8.36997 9.94126C8.60686 9.70437 8.92816 9.57129 9.26317 9.57129H20.8422ZM14.7369 18.5187H11.1579L11.1209 18.5198C10.9599 18.5291 10.8087 18.5996 10.698 18.7168C10.5874 18.834 10.5257 18.9891 10.5257 19.1503C10.5257 19.3115 10.5874 19.4666 10.698 19.5838C10.8087 19.7011 10.9599 19.7716 11.1209 19.7809L11.1579 19.7819H14.7369L14.774 19.7809C14.9349 19.7716 15.0862 19.7011 15.1968 19.5838C15.3075 19.4666 15.3691 19.3115 15.3691 19.1503C15.3691 18.9891 15.3075 18.834 15.1968 18.7168C15.0862 18.5996 14.9349 18.5291 14.774 18.5198L14.7369 18.5187ZM16.8422 13.7819H11.1579L11.1209 13.7829C10.9599 13.7922 10.8087 13.8627 10.698 13.9799C10.5874 14.0971 10.5257 14.2522 10.5257 14.4134C10.5257 14.5746 10.5874 14.7297 10.698 14.847C10.8087 14.9642 10.9599 15.0347 11.1209 15.044L11.1579 15.045H16.8422L16.8792 15.044C17.0402 15.0347 17.1915 14.9642 17.3021 14.847C17.4127 14.7297 17.4744 14.5746 17.4744 14.4134C17.4744 14.2522 17.4127 14.0971 17.3021 13.9799C17.1915 13.8627 17.0402 13.7922 16.8792 13.7829L16.8422 13.7819Z" fill="#2E3543"/>
<path id="Vector_2" d="M20.2107 16.3086C21.4896 16.3086 22.5265 17.3454 22.5265 18.6244C22.5265 19.3379 22.2037 19.976 21.6966 20.4008C23.0507 20.9781 24.0002 22.3221 24.0002 23.8876C24.0002 24.0551 23.9336 24.2158 23.8152 24.3342C23.6967 24.4527 23.5361 24.5192 23.3686 24.5192H17.0527C16.8852 24.5192 16.7246 24.4527 16.6061 24.3342C16.4877 24.2158 16.4211 24.0551 16.4211 23.8876C16.4211 22.3221 17.3704 20.9783 18.7247 20.4004C18.4646 20.1834 18.2555 19.9117 18.112 19.6048C17.9686 19.2979 17.8945 18.9632 17.8948 18.6244C17.8948 17.3454 18.9317 16.3086 20.2107 16.3086Z" fill="#A7ABBA"/>
</g>
</g>
</g>
</svg>
