<?xml version="1.0" encoding="UTF-8"?>
<svg width="20px" height="20px" viewBox="0 0 20 20" version="1.1" xmlns="http://www.w3.org/2000/svg" xmlns:xlink="http://www.w3.org/1999/xlink">
    <title>qiyeweixin</title>
    <g id="页面-1" stroke="none" stroke-width="1" fill="none" fill-rule="evenodd">
        <g id="个人中心" transform="translate(-305, -919)" fill-rule="nonzero">
            <g id="编组-10" transform="translate(293, 908)">
                <g id="qiyeweixin-2" transform="translate(12, 11)">
                    <g id="qiyeweixin" transform="translate(0, 2)">
                        <path d="M12.6757443,12.7409108 C12.6206892,12.7958904 12.5925316,12.8726283 12.5988228,12.950545 C12.6051139,13.0284618 12.64521,13.0995841 12.7083581,13.1448385 C13.2776587,13.6829957 13.6441205,14.4040458 13.7451029,15.1847368 C13.8905357,15.723296 14.4107214,16.068056 14.958084,15.9886562 C15.5054465,15.9092565 15.9084117,15.4305853 15.8977276,14.8724797 C15.8870435,14.314374 15.4660591,13.8517756 14.9160663,13.793782 C14.1958367,13.6578773 13.5393131,13.2881644 13.0464134,12.7409108 C12.9440417,12.6376212 12.7781161,12.6376212 12.6757443,12.7409108 L12.6757443,12.7409108 Z" id="路径" fill="#FB6500"></path>
                        <path d="M17.1231473,10.9897132 C16.9456525,11.1682518 16.8346399,11.4031377 16.808298,11.6544846 C16.6752863,12.3824764 16.3101027,13.0465954 15.7684173,13.5456007 C15.6963665,13.6160187 15.6704252,13.7217588 15.7015943,13.8179805 C15.7327634,13.9142022 15.8155807,13.9840434 15.9149263,13.9978868 C16.0142719,14.0117303 16.1127364,13.9671502 16.1685644,13.8830513 C16.7015876,13.3083494 17.4159749,12.9386045 18.18937,12.8371444 C18.6343844,12.716092 18.9567823,12.3268676 18.9960038,11.8633121 C19.0352253,11.3997565 18.7828846,10.9609802 18.3646519,10.7655017 C17.9464192,10.5700232 17.4517148,10.6596368 17.1269104,10.9897132 L17.1231473,10.9897132 L17.1231473,10.9897132 Z" id="路径" fill="#0082EF"></path>
                        <path d="M14.0367462,7.87035298 C13.7392324,8.17180591 13.6394162,8.61881677 13.7800418,9.01996234 C13.9206674,9.42110791 14.2767959,9.70524827 14.6959227,9.75070614 C15.4168757,9.88510429 16.0745405,10.253728 16.5687115,10.8004117 C16.6386131,10.8723321 16.7429072,10.8979454 16.8377264,10.8664785 C16.9325456,10.8350116 17.0014381,10.7519242 17.0154269,10.6521638 C17.0294157,10.5524034 16.9860736,10.4532791 16.9036308,10.396484 C16.3342273,9.85858419 15.967549,9.13776833 15.8662589,8.35721882 C15.7620997,7.97824024 15.4664124,7.68360095 15.0896632,7.58337564 C14.7129139,7.48315034 14.311779,7.5924164 14.036119,7.87035298 L14.0367462,7.87035298 Z" id="路径" fill="#2DBC00"></path>
                        <path d="M13.4986173,9.5987584 L13.4791744,9.61838498 C12.9443536,10.213013 12.2177787,10.5966721 11.4288909,10.7010126 C11.0498154,10.8015167 10.7535026,11.0999276 10.6530495,11.4823477 C10.5525964,11.8647677 10.6635059,12.2721776 10.943446,12.5490768 C11.2420774,12.8494015 11.6849044,12.9501608 12.0822954,12.8082065 C12.4796864,12.6662523 12.7611674,12.3067591 12.8061998,11.8836724 C12.9404947,11.1552889 13.3069894,10.4911888 13.8498436,9.99255627 C13.9575701,9.89465145 13.9662749,9.72712927 13.8692865,9.61838499 C13.772298,9.50964072 13.6063438,9.5008536 13.4986173,9.5987584 L13.4986173,9.5987584 Z" id="路径" fill="#FFCC00"></path>
                        <path d="M6.87925596,0.0526422772 C4.91552465,0.27106715 3.13430556,1.11880886 1.85483833,2.44391969 C1.35603999,2.95423332 0.941630874,3.54206791 0.627427847,4.18498742 C-0.341229593,6.15341967 -0.17926847,8.49679549 1.05078098,10.3103803 C1.39824414,10.840298 1.96898688,11.5025368 2.49080881,11.9729417 L2.25435825,13.8469637 L2.22801627,13.9261031 C2.22174438,13.9495284 2.22174438,13.9761193 2.21860841,13.9989114 L2.21233652,14.0590574 L2.21860841,14.1185702 C2.23637928,14.3249336 2.35788313,14.5076271 2.54036602,14.6023658 C2.7228489,14.6971045 2.94074081,14.6906134 3.11737143,14.5851764 L3.12677928,14.5851764 L3.16315628,14.5585855 L3.72762712,14.2736836 L5.40975022,13.4196107 C6.20941725,13.6519641 7.037935,13.766558 7.87021588,13.76086 C8.89880718,13.7633924 9.91987221,13.5835876 10.8876261,13.2309423 C10.4022531,13.0690305 10.0929798,12.5890335 10.1431518,12.0755064 C9.14215683,12.4002947 8.08471479,12.506025 7.04044375,12.3869992 L6.87298406,12.363574 C6.49590892,12.3139248 6.12311973,12.2354031 5.75784057,12.1286881 C5.55871501,12.0660821 5.34285958,12.0887413 5.16075586,12.1913665 L5.114971,12.2147918 L3.73013589,13.0359427 L3.67118005,13.0720303 C3.63793898,13.0916568 3.62163204,13.0986211 3.60532511,13.0986211 C3.55415364,13.0949059 3.51507153,13.0509777 3.51689134,12.999222 L3.56894809,12.7839627 L3.63166708,12.5490768 L3.73013589,12.1616101 L3.84491162,11.7310915 C3.92124386,11.4907291 3.83660259,11.22803 3.63480303,11.0789825 C3.09078115,10.6713564 2.61842177,10.1744169 2.23742412,9.60888825 C1.26481437,8.18102562 1.13425607,6.33351741 1.89623285,4.78074914 C2.15096025,4.26851067 2.48317133,3.7994481 2.88092086,3.39042742 C3.93020944,2.29767 5.40598708,1.60250913 7.03918936,1.42333743 C7.6036602,1.36065899 8.17440294,1.36065899 8.73887378,1.42333743 C10.362041,1.61200586 11.8315468,2.31729658 12.8751906,3.40372283 C13.2708737,3.81468381 13.5996171,4.28628185 13.8492164,4.80100884 C14.1701307,5.45439929 14.3375333,6.17366548 14.3384245,6.90295244 C14.3384245,6.97955941 14.3315254,7.05553328 14.3277623,7.12834157 C14.7585571,6.8604693 15.315193,6.92622019 15.6730844,7.28725356 L15.7220052,7.34739954 C15.806175,6.26591111 15.599907,5.18152151 15.1249205,4.2084127 C14.8140516,3.56678544 14.4044359,2.97893059 13.9113082,2.46671184 C12.5688171,1.10440671 10.8001596,0.253784068 8.90633345,0.0596065519 C8.23271474,-0.0176926493 7.55270831,-0.0198158504 6.87862878,0.053275399 L6.87925596,0.0526422772 Z" id="路径" fill="#0082EF"></path>
                    </g>
                </g>
            </g>
        </g>
    </g>
</svg>