<?xml version="1.0" encoding="UTF-8"?>
<svg width="20px" height="20px" viewBox="0 0 20 20" version="1.1" xmlns="http://www.w3.org/2000/svg" xmlns:xlink="http://www.w3.org/1999/xlink">
    <title>read-fill</title>
    <defs>
        <path d="M502,0 L19,0 C8.50658975,-1.92760819e-15 0,8.50658975 0,19 L0,387 C0,397.49341 8.50658975,406 19,406 L502,406 C512.49341,406 521,397.49341 521,387 L521,19 C521,8.50658975 512.49341,1.92760819e-15 502,0 Z" id="path-1"></path>
        <filter x="-2.5%" y="-2.7%" width="105.0%" height="106.4%" filterUnits="objectBoundingBox" id="filter-2">
            <feOffset dx="0" dy="2" in="SourceAlpha" result="shadowOffsetOuter1"></feOffset>
            <feGaussianBlur stdDeviation="4" in="shadowOffsetOuter1" result="shadowBlurOuter1"></feGaussianBlur>
            <feColorMatrix values="0 0 0 0 0   0 0 0 0 0   0 0 0 0 0  0 0 0 0.15 0" type="matrix" in="shadowBlurOuter1"></feColorMatrix>
        </filter>
    </defs>
    <g id="页面-1" stroke="none" stroke-width="1" fill="none" fill-rule="evenodd">
        <g id="个人中心-2" transform="translate(-385, -908)">
            <g id="编组-66" transform="translate(365, 882)">
                <g id="Combined-Shape">
                    <use fill="black" fill-opacity="1" filter="url(#filter-2)" xlink:href="#path-1"></use>
                    <use fill="#FFFFFF" fill-rule="evenodd" xlink:href="#path-1"></use>
                </g>
                <g id="read-fill" transform="translate(20, 26)" fill-rule="nonzero">
                    <rect id="矩形" fill="#000000" opacity="0" x="0" y="0" width="20" height="20"></rect>
                    <path d="M18.125,3.14453125 L13.65625,3.14453125 C12.6972656,3.14453125 11.7597656,3.41992187 10.953125,3.93945312 L10,4.55078125 L9.046875,3.93945312 C8.2421875,3.41992187 7.30273437,3.14453125 6.34375,3.14453125 L1.875,3.14453125 C1.52929688,3.14453125 1.25,3.42382812 1.25,3.76953125 L1.25,14.8632812 C1.25,15.2089844 1.52929688,15.4882812 1.875,15.4882812 L6.34375,15.4882812 C7.30273438,15.4882812 8.24023438,15.7636719 9.046875,16.2832031 L9.9140625,16.8417969 C9.93945313,16.8574219 9.96875,16.8671875 9.99804688,16.8671875 C10.0273438,16.8671875 10.0566406,16.859375 10.0820313,16.8417969 L10.9492188,16.2832031 C11.7578125,15.7636719 12.6972656,15.4882812 13.65625,15.4882812 L18.125,15.4882812 C18.4707031,15.4882812 18.75,15.2089844 18.75,14.8632812 L18.75,3.76953125 C18.75,3.42382812 18.4707031,3.14453125 18.125,3.14453125 Z M7.890625,10.8105469 C7.890625,10.890625 7.828125,10.9570312 7.75195312,10.9570312 L4.12304688,10.9570312 C4.046875,10.9570312 3.984375,10.890625 3.984375,10.8105469 L3.984375,9.93164062 C3.984375,9.8515625 4.046875,9.78515625 4.12304688,9.78515625 L7.75,9.78515625 C7.82617187,9.78515625 7.88867188,9.8515625 7.88867188,9.93164062 L7.88867188,10.8105469 L7.890625,10.8105469 Z M7.890625,8.07617187 C7.890625,8.15625 7.828125,8.22265625 7.75195312,8.22265625 L4.12304688,8.22265625 C4.046875,8.22265625 3.984375,8.15625 3.984375,8.07617187 L3.984375,7.19726562 C3.984375,7.1171875 4.046875,7.05078125 4.12304688,7.05078125 L7.75,7.05078125 C7.82617187,7.05078125 7.88867188,7.1171875 7.88867188,7.19726562 L7.88867188,8.07617187 L7.890625,8.07617187 Z M16.015625,10.8105469 C16.015625,10.890625 15.953125,10.9570312 15.8769531,10.9570312 L12.2480469,10.9570312 C12.171875,10.9570312 12.109375,10.890625 12.109375,10.8105469 L12.109375,9.93164062 C12.109375,9.8515625 12.171875,9.78515625 12.2480469,9.78515625 L15.875,9.78515625 C15.9511719,9.78515625 16.0136719,9.8515625 16.0136719,9.93164062 L16.0136719,10.8105469 L16.015625,10.8105469 Z M16.015625,8.07617187 C16.015625,8.15625 15.953125,8.22265625 15.8769531,8.22265625 L12.2480469,8.22265625 C12.171875,8.22265625 12.109375,8.15625 12.109375,8.07617187 L12.109375,7.19726562 C12.109375,7.1171875 12.171875,7.05078125 12.2480469,7.05078125 L15.875,7.05078125 C15.9511719,7.05078125 16.0136719,7.1171875 16.0136719,7.19726562 L16.0136719,8.07617187 L16.015625,8.07617187 Z" id="形状" fill="#909599"></path>
                </g>
            </g>
        </g>
    </g>
</svg>