<?xml version="1.0" encoding="UTF-8"?>
<svg width="16px" height="16px" viewBox="0 0 16 16" version="1.1" xmlns="http://www.w3.org/2000/svg" xmlns:xlink="http://www.w3.org/1999/xlink">
    <title>setting</title>
    <g id="页面-1" stroke="none" stroke-width="1" fill="none" fill-rule="evenodd">
        <g id="个人中心" transform="translate(-924, -445)" fill-rule="nonzero">
            <g id="编组-18" transform="translate(924, 442)">
                <g id="setting" transform="translate(0, 3)">
                    <rect id="矩形" fill="#000000" opacity="0" x="0" y="0" width="16" height="16"></rect>
                    <path d="M14.45,9.7765625 L13.4265625,8.9015625 C13.475,8.6046875 13.5,8.3015625 13.5,7.9984375 C13.5,7.6953125 13.475,7.3921875 13.4265625,7.0953125 L14.45,6.2203125 C14.6078125,6.0859375 14.665625,5.8671875 14.5953125,5.6703125 L14.58125,5.6296875 C14.2984375,4.840625 13.8796875,4.115625 13.3359375,3.475 L13.3078125,3.4421875 C13.1734375,3.284375 12.95625,3.225 12.759375,3.29375 L11.4890625,3.7453125 C11.0203125,3.3609375 10.496875,3.0578125 9.93125,2.8453125 L9.6859375,1.5171875 C9.6484375,1.3125 9.4875,1.153125 9.2828125,1.115625 L9.240625,1.1078125 C8.4265625,0.9609375 7.5703125,0.9609375 6.75625,1.1078125 L6.7140625,1.115625 C6.509375,1.153125 6.3484375,1.3125 6.3109375,1.5171875 L6.0640625,2.8515625 C5.503125,3.0640625 4.9828125,3.365625 4.5171875,3.7484375 L3.2375,3.29375 C3.0421875,3.225 2.8234375,3.2828125 2.6890625,3.4421875 L2.6609375,3.475 C2.1171875,4.1171875 1.6984375,4.8421875 1.415625,5.6296875 L1.4015625,5.6703125 C1.33125,5.865625 1.3890625,6.084375 1.546875,6.2203125 L2.5828125,7.1046875 C2.534375,7.3984375 2.5109375,7.6984375 2.5109375,7.996875 C2.5109375,8.296875 2.534375,8.596875 2.5828125,8.8890625 L1.546875,9.7734375 C1.3890625,9.9078125 1.33125,10.1265625 1.4015625,10.3234375 L1.415625,10.3640625 C1.6984375,11.1515625 2.1171875,11.878125 2.6609375,12.51875 L2.6890625,12.5515625 C2.8234375,12.709375 3.040625,12.76875 3.2375,12.7 L4.5171875,12.2453125 C4.9828125,12.628125 5.503125,12.93125 6.0640625,13.1421875 L6.3109375,14.4765625 C6.3484375,14.68125 6.509375,14.840625 6.7140625,14.878125 L6.75625,14.8859375 C7.1640625,14.959375 7.58125,14.996875 7.9984375,14.996875 C8.415625,14.996875 8.834375,14.959375 9.240625,14.8859375 L9.2828125,14.878125 C9.4875,14.840625 9.6484375,14.68125 9.6859375,14.4765625 L9.93125,13.1484375 C10.496875,12.9359375 11.0203125,12.634375 11.4890625,12.2484375 L12.759375,12.7 C12.9546875,12.76875 13.1734375,12.7109375 13.3078125,12.5515625 L13.3359375,12.51875 C13.8796875,11.8765625 14.2984375,11.1515625 14.58125,10.3640625 L14.5953125,10.3234375 C14.665625,10.13125 14.6078125,9.9125 14.45,9.7765625 L14.45,9.7765625 Z M12.3171875,7.2796875 C12.35625,7.515625 12.3765625,7.7578125 12.3765625,8 C12.3765625,8.2421875 12.35625,8.484375 12.3171875,8.7203125 L12.2140625,9.346875 L13.38125,10.3453125 C13.2046875,10.753125 12.98125,11.1375 12.715625,11.4953125 L11.265625,10.98125 L10.775,11.384375 C10.4015625,11.690625 9.9859375,11.93125 9.5359375,12.1 L8.940625,12.3234375 L8.6609375,13.8390625 C8.221875,13.8890625 7.7734375,13.8890625 7.3328125,13.8390625 L7.053125,12.3203125 L6.4625,12.09375 C6.0171875,11.925 5.603125,11.684375 5.2328125,11.3796875 L4.7421875,10.975 L3.2828125,11.49375 C3.0171875,11.1359375 2.7953125,10.75 2.6171875,10.34375 L3.796875,9.3359375 L3.6953125,8.7109375 C3.6578125,8.478125 3.6375,8.2375 3.6375,8 C3.6375,7.7609375 3.65625,7.521875 3.6953125,7.2890625 L3.796875,6.6640625 L2.6171875,5.65625 C2.79375,5.2484375 3.0171875,4.8640625 3.2828125,4.50625 L4.7421875,5.025 L5.2328125,4.6203125 C5.603125,4.315625 6.0171875,4.075 6.4625,3.90625 L7.0546875,3.6828125 L7.334375,2.1640625 C7.7734375,2.1140625 8.221875,2.1140625 8.6625,2.1640625 L8.9421875,3.6796875 L9.5375,3.903125 C9.9859375,4.071875 10.403125,4.3125 10.7765625,4.61875 L11.2671875,5.021875 L12.7171875,4.5078125 C12.9828125,4.865625 13.2046875,5.2515625 13.3828125,5.6578125 L12.215625,6.65625 L12.3171875,7.2796875 Z M8,5.09375 C6.48125,5.09375 5.25,6.325 5.25,7.84375 C5.25,9.3625 6.48125,10.59375 8,10.59375 C9.51875,10.59375 10.75,9.3625 10.75,7.84375 C10.75,6.325 9.51875,5.09375 8,5.09375 Z M9.2375,9.08125 C8.90625,9.4109375 8.4671875,9.59375 8,9.59375 C7.5328125,9.59375 7.09375,9.4109375 6.7625,9.08125 C6.4328125,8.75 6.25,8.3109375 6.25,7.84375 C6.25,7.3765625 6.4328125,6.9375 6.7625,6.60625 C7.09375,6.275 7.5328125,6.09375 8,6.09375 C8.4671875,6.09375 8.90625,6.275 9.2375,6.60625 C9.5671875,6.9375 9.75,7.3765625 9.75,7.84375 C9.75,8.3109375 9.5671875,8.75 9.2375,9.08125 Z" id="形状" fill="#409EFF"></path>
                </g>
            </g>
        </g>
    </g>
</svg>