<?xml version="1.0" encoding="UTF-8"?>
<svg width="20px" height="20px" viewBox="0 0 20 20" version="1.1" xmlns="http://www.w3.org/2000/svg" xmlns:xlink="http://www.w3.org/1999/xlink">
    <title>sound-fill</title>
    <g id="页面-1" stroke="none" stroke-width="1" fill="none" fill-rule="evenodd">
        <g id="个人中心-2" transform="translate(-388, -1070)" fill-rule="nonzero">
            <g id="编组-66" transform="translate(365, 882)">
                <g id="sound-fill" transform="translate(23, 188)">
                    <rect id="矩形" fill="#000000" opacity="0" x="0" y="0" width="20" height="20"></rect>
                    <path d="M17.4238281,14.4101563 L15.2695313,13.1660156 C15.2207031,13.1386719 15.1679688,13.125 15.1152344,13.125 C15.0078125,13.125 14.9023438,13.1816406 14.8457031,13.28125 L14.4570313,13.9550781 C14.3710938,14.1035156 14.421875,14.2949219 14.5703125,14.3808594 L16.7246094,15.625 C16.7734375,15.6523438 16.8261719,15.6660156 16.8789062,15.6660156 C16.9863281,15.6660156 17.0917969,15.609375 17.1484375,15.5097656 L17.5371094,14.8359375 C17.6230469,14.6875 17.5703125,14.4960938 17.4238281,14.4101563 L17.4238281,14.4101563 Z M14.84375,6.71875 C14.9003906,6.81835938 15.0058594,6.875 15.1132813,6.875 C15.1660156,6.875 15.21875,6.86132812 15.2675781,6.83398438 L17.421875,5.58984375 C17.5703125,5.50390625 17.6210938,5.3125 17.5351563,5.1640625 L17.1484375,4.4921875 C17.0917969,4.39257812 16.9863281,4.3359375 16.8789063,4.3359375 C16.8261719,4.3359375 16.7734375,4.34960938 16.7246094,4.37695312 L14.5703125,5.62109375 C14.421875,5.70703125 14.3710938,5.8984375 14.4570313,6.046875 L14.84375,6.71875 Z M18.2421875,9.296875 L15.7421875,9.296875 C15.5703125,9.296875 15.4296875,9.4375 15.4296875,9.609375 L15.4296875,10.390625 C15.4296875,10.5625 15.5703125,10.703125 15.7421875,10.703125 L18.2421875,10.703125 C18.4140625,10.703125 18.5546875,10.5625 18.5546875,10.390625 L18.5546875,9.609375 C18.5546875,9.4375 18.4140625,9.296875 18.2421875,9.296875 Z M12.2246094,2.24609375 C12.109375,2.24609375 11.9921875,2.27734375 11.8847656,2.34960938 L4.9609375,6.875 L1.7578125,6.875 C1.5859375,6.875 1.4453125,7.015625 1.4453125,7.1875 L1.4453125,12.8125 C1.4453125,12.984375 1.5859375,13.125 1.7578125,13.125 L4.9609375,13.125 L11.8847656,17.6503906 C11.9921875,17.7207031 12.1113281,17.7539062 12.2246094,17.7539062 C12.5507812,17.7539062 12.8515625,17.4941406 12.8515625,17.1269531 L12.8515625,2.87304688 C12.8515625,2.50585937 12.5507812,2.24609375 12.2246094,2.24609375 Z" id="形状" fill="#909599"></path>
                </g>
            </g>
        </g>
    </g>
</svg>