<svg width="44" height="45" viewBox="0 0 44 45" fill="none" xmlns="http://www.w3.org/2000/svg">
<g id="Group 427318774">
<circle id="Ellipse 12" opacity="0.05" cx="22" cy="22.5713" r="22" fill="#33B376"/>
<g id="&#228;&#187;&#187;&#229;&#138;&#161;&#230;&#151;&#165;&#231;&#168;&#139;">
<path id="Icon" fill-rule="evenodd" clip-rule="evenodd" d="M17.5834 13.0713C16.9275 13.0713 16.3959 13.603 16.3959 14.2588V15.4463H15.2084C13.8967 15.4463 12.8334 16.5096 12.8334 17.8213V29.6963C12.8334 31.008 13.8967 32.0713 15.2084 32.0713H29.4584C30.7701 32.0713 31.8334 31.008 31.8334 29.6963V17.8213C31.8334 16.5096 30.7701 15.4463 29.4584 15.4463H28.2709V14.2588C28.2709 13.603 27.7392 13.0713 27.0834 13.0713C26.4275 13.0713 25.8959 13.603 25.8959 14.2588V15.4463H18.7709V14.2588C18.7709 13.603 18.2392 13.0713 17.5834 13.0713ZM17.5834 19.0088C16.9275 19.0088 16.3959 19.5405 16.3959 20.1963C16.3959 20.8521 16.9275 21.3838 17.5834 21.3838H27.0834C27.7392 21.3838 28.2709 20.8521 28.2709 20.1963C28.2709 19.5405 27.7392 19.0088 27.0834 19.0088H17.5834Z" fill="#33B376"/>
</g>
</g>
</svg>
