<svg width="44" height="45" viewBox="0 0 44 45" fill="none" xmlns="http://www.w3.org/2000/svg">
<g id="Group 427318775">
<circle id="Ellipse 12" opacity="0.05" cx="22" cy="22.5713" r="22" fill="#FF3C3C"/>
<g id="&#229;&#190;&#133;&#229;&#138;&#158;">
<g id="Group 427318801">
<path id="Vector" d="M27.6196 24.9262C28.4988 24.9262 29.3779 25.2229 30.0636 25.7174H30.1603V14.0603C30.1603 13.4669 29.7691 13.0713 29.1823 13.0713H14.5229C13.9361 13.0713 13.5449 13.4669 13.5449 14.0603V30.8515C13.5449 31.4449 13.9361 31.8405 14.5229 31.8405H24.0043C23.5163 31.1482 23.2218 30.2603 23.2218 29.3702C23.2218 26.9021 25.1757 24.9262 27.6196 24.9262ZM16.7493 17.0713H26.9054C26.9098 17.0713 26.9142 17.0713 26.9185 17.0735C26.9317 17.0735 26.9471 17.0713 26.9603 17.0713C27.3054 17.0713 27.5867 17.3504 27.5867 17.6977C27.5867 18.0427 27.3076 18.324 26.9603 18.324C26.9471 18.324 26.9317 18.324 26.9185 18.3218C26.9142 18.3218 26.9098 18.324 26.9054 18.324H16.7493C16.4043 18.324 16.1229 18.0449 16.1229 17.6977C16.1229 17.3504 16.4043 17.0713 16.7493 17.0713ZM16.7493 21.6867H26.9054C26.9098 21.6867 26.9142 21.6867 26.9185 21.6889C26.9317 21.6889 26.9471 21.6867 26.9603 21.6867C27.3054 21.6867 27.5867 21.9658 27.5867 22.313C27.5867 22.6581 27.3076 22.9394 26.9603 22.9394C26.9471 22.9394 26.9317 22.9394 26.9185 22.9372C26.9142 22.9372 26.9098 22.9394 26.9054 22.9394H16.7493C16.4043 22.9394 16.1229 22.6603 16.1229 22.313C16.1229 21.9658 16.4043 21.6867 16.7493 21.6867ZM21.2021 28.0471C21.1889 28.0471 21.1735 28.0471 21.1603 28.0449C21.1559 28.0449 21.1515 28.0471 21.1471 28.0471H16.6065C16.2614 28.0471 15.9801 27.768 15.9801 27.4207C15.9801 27.0757 16.2592 26.7944 16.6065 26.7944H21.1471C21.1515 26.7944 21.1559 26.7944 21.1603 26.7966C21.1735 26.7966 21.1889 26.7944 21.2021 26.7944C21.5471 26.7944 21.8284 27.0735 21.8284 27.4207C21.8284 27.768 21.5493 28.0471 21.2021 28.0471Z" fill="#FF3C3C"/>
<path id="Vector_2" d="M27.8065 25.9941C25.8856 25.9941 24.2681 27.6117 24.2681 29.5326C24.2681 31.4535 25.8856 33.0711 27.8065 33.0711C29.7274 33.0711 31.345 31.4535 31.345 29.5326C31.345 27.6117 29.7274 25.9941 27.8065 25.9941ZM29.8285 30.0381H27.8065C27.6043 30.0381 27.4021 30.0381 27.4021 29.937C27.4021 29.8359 27.301 29.6337 27.301 29.5326V27.5106C27.301 27.2073 27.5032 27.0051 27.8065 27.0051C28.1098 27.0051 28.312 27.2073 28.312 27.5106V29.0271H29.8285C30.1318 29.0271 30.334 29.2293 30.334 29.5326C30.334 29.8359 30.1318 30.0381 29.8285 30.0381Z" fill="#FF3C3C"/>
</g>
</g>
</g>
</svg>
