<?xml version="1.0" encoding="UTF-8"?>
<svg width="20px" height="20px" viewBox="0 0 20 20" version="1.1" xmlns="http://www.w3.org/2000/svg" xmlns:xlink="http://www.w3.org/1999/xlink">
    <title>xitongguanli</title>
    <g id="页面-1" stroke="none" stroke-width="1" fill="none" fill-rule="evenodd">
        <g id="个人中心" transform="translate(-304, -670)" fill="#8253FF" fill-rule="nonzero">
            <g id="编组" transform="translate(293, 659)">
                <g id="xitongguanli-2" transform="translate(11, 11)">
                    <g id="xitongguanli" transform="translate(1, 1)">
                        <path d="M6.37450822,0.467591172 L1.59312481,0.467591172 C0.717207511,0.467591172 0,1.18479868 0,2.06272496 L0,6.84410837 C0,7.72002567 0.717207511,8.43723318 1.59312481,8.43723318 L6.37450822,8.43723318 C7.25042551,8.43723318 7.96763724,7.72002567 7.96763724,6.84410837 L7.96763724,2.06272496 C7.96964201,1.18479868 7.2524345,0.467591172 6.37450822,0.467591172 Z M6.37450822,10.030358 L1.59312481,10.030358 C0.717207511,10.030358 0,10.7475655 0,11.6254918 L0,16.4068752 C0,17.2827925 0.717207511,18 1.59312481,18 L6.37450822,18 C7.25042551,18 7.96763724,17.2827925 7.96763724,16.4068752 L7.96763724,11.6254918 C7.96964201,10.7475655 7.2524345,10.030358 6.37450822,10.030358 L6.37450822,10.030358 Z M15.937275,10.030358 L11.1558916,10.030358 C10.2799743,10.030358 9.56276682,10.7475655 9.56276682,11.6234828 L9.56276682,16.4048662 C9.56276682,17.2807835 10.2799743,17.997991 11.1558916,17.997991 L15.937275,17.997991 C16.8131923,17.997991 17.5304041,17.2807835 17.5304041,16.4048662 L17.5304041,11.6234828 C17.5324088,10.7475655 16.8152013,10.030358 15.937275,10.030358 Z M17.5344178,3.32637629 L14.6736237,0.465582187 C14.0528475,-0.155194062 13.0403192,-0.155194062 12.419543,0.465582187 L9.55874885,3.32637629 C8.9379726,3.94715254 8.9379726,4.95968079 9.55874885,5.58045704 L12.419543,8.44125115 C13.0403192,9.0620274 14.0528475,9.0620274 14.6736237,8.44125115 L17.5344178,5.58045704 C18.1551941,4.95968079 18.1551941,3.94514356 17.5344178,3.32637629 L17.5344178,3.32637629 Z" id="形状"></path>
                    </g>
                </g>
            </g>
        </g>
    </g>
</svg>