<?xml version="1.0" encoding="UTF-8"?>
<svg width="20px" height="20px" viewBox="0 0 20 20" version="1.1" xmlns="http://www.w3.org/2000/svg" xmlns:xlink="http://www.w3.org/1999/xlink">
    <title>youjian</title>
    <g id="页面-1" stroke="none" stroke-width="1" fill="none" fill-rule="evenodd">
        <g id="个人中心" transform="translate(-304, -568)" fill="#FF8216" fill-rule="nonzero">
            <g id="编组-3" transform="translate(293, 557)">
                <g id="youjian-2" transform="translate(11, 11)">
                    <g id="youjian" transform="translate(0, 3)">
                        <path d="M12.3566667,9.31869324 L18.72625,15 L1.07583334,15 L7.34333334,9.4841237 C8.39625,10.3046087 9.07708334,10.7246437 9.75125,10.7246437 C10.4533333,10.7246437 11.1570833,10.276273 12.285,9.37244772 C12.3070833,9.35702975 12.3333333,9.33577798 12.3566667,9.31869324 Z M20,3.33652804 L20,14.1757647 C20,14.2628553 19.97625,14.3420285 19.9508333,14.4174515 L13.3516667,8.5315443 C15.1595833,7.10475872 18.0220833,4.87498959 20,3.33652804 Z M0,3.77781482 C1.6475,5.08042337 3.36375,6.40845072 4.85166666,7.55604635 C5.38875,7.97108094 5.88,8.34902909 6.33791666,8.70655889 L0.0191666602,14.2678557 C0.0158333398,14.2370198 0,14.2091008 0,14.1757647 Z M18.75,0 C19.2066667,0 20,0.793399456 20,1.25135428 L20,1.80098342 C19.7575431,1.98957672 19.492769,2.19554811 19.2110673,2.41474069 L18.3205686,3.10782517 C15.9426174,4.95915732 12.8864799,7.34327 11.5808333,8.38694891 C9.76041666,9.84248687 9.76041666,9.84248687 7.97708332,8.4436203 C7.31541666,7.92691058 6.47708332,7.27810651 5.54166666,6.55596299 C3.84541666,5.24752063 1.84333334,3.70280857 0,2.23518627 L0,1.25010418 C0,0.794649561 0.79375,0 1.25,0 Z" id="形状结合"></path>
                    </g>
                </g>
            </g>
        </g>
    </g>
</svg>