<?xml version="1.0" encoding="UTF-8"?>
<svg width="20px" height="20px" viewBox="0 0 20 20" version="1.1" xmlns="http://www.w3.org/2000/svg" xmlns:xlink="http://www.w3.org/1999/xlink">
    <title>形状</title>
    <g id="页面-1" stroke="none" stroke-width="1" fill="none" fill-rule="evenodd">
        <g id="个人中心" transform="translate(-303.9633, -770.2006)" fill="#24DB5A" fill-rule="nonzero">
            <g id="编组-13" transform="translate(293, 761)">
                <g id="weixin" transform="translate(10.9633, 9.2006)">
                    <path d="M13.5913004,7.63520089 C13.8133213,7.63520089 14.0353421,7.63520089 14.2573629,7.67079105 C13.6298142,4.87251495 10.5917535,2.79938829 7.10965111,2.79938829 C3.22202084,2.79938829 0.0367014046,5.41748923 0.0367014046,8.68955929 C0.0367014046,10.5802864 1.07430902,12.1796191 2.85047576,13.3807869 L2.14589941,15.4539135 L4.6266425,14.2549701 C5.51472587,14.4373697 6.21930222,14.6175448 7.10738559,14.6175448 C7.32940643,14.6175448 7.55142728,14.6175448 7.81196194,14.5819547 C7.66470322,14.1081607 7.5899411,13.6365911 7.5899411,13.127207 C7.59220662,10.1087168 10.2224739,7.63520089 13.5913004,7.63520089 Z M9.77616674,5.74447379 C10.3312188,5.74447379 10.6642501,6.10704852 10.6642501,6.61643264 C10.6642501,7.12581677 10.2949705,7.48839149 9.77616674,7.48839149 C9.22111464,7.48839149 8.70231083,7.12359238 8.70231083,6.61643264 C8.70231083,6.07145836 9.25962845,5.74447379 9.77616674,5.74447379 L9.77616674,5.74447379 Z M4.87584957,7.3704991 C4.31626643,7.3704991 3.79293158,7.01014876 3.79293158,6.50743779 C3.79293158,5.96691228 4.35251473,5.64437648 4.87584957,5.64437648 C5.39918441,5.64437648 5.77073974,6.00472682 5.77073974,6.50743779 C5.77299502,7.01237314 5.39918441,7.3704991 4.87584957,7.3704991 Z" id="形状"></path>
                    <path d="M20.0367014,13.0538023 C20.0367014,10.2533018 17.2229271,8 14.0376076,8 C10.6665156,8 8,10.2911164 8,13.0538023 C8,15.8543028 10.6665156,18.1076046 14.0376076,18.1076046 C14.742184,18.1076046 15.4444948,17.9252051 16.1490711,17.7450299 L18.0747621,18.7993883 L17.5559583,17.0532462 C18.9628455,15.9988878 20.0367014,14.6175448 20.0367014,13.0538023 L20.0367014,13.0538023 Z M12.0734028,12.1818435 C11.7403715,12.1818435 11.3688265,11.8548589 11.3688265,11.4900598 C11.3688265,11.1630752 11.738106,10.7982761 12.0734028,10.7982761 C12.5922066,10.7982761 12.9614862,11.1608508 12.9614862,11.4900598 C12.9614862,11.8548589 12.6284549,12.1818435 12.0734028,12.1818435 Z M16.1060263,12.0127902 C15.7707295,12.0127902 15.3969189,11.68803 15.3969189,11.3299041 C15.3969189,11.0051439 15.7707295,10.6470179 16.1060263,10.6470179 C16.6293611,10.6470179 17.0009062,11.0073683 17.0009062,11.3299041 C17.0009062,11.6902544 16.6293611,12.0127902 16.1060263,12.0127902 Z" id="形状"></path>
                </g>
            </g>
        </g>
    </g>
</svg>