<svg width="44" height="45" viewBox="0 0 44 45" fill="none" xmlns="http://www.w3.org/2000/svg">
<g id="&#229;&#190;&#174;&#228;&#191;&#161;">
<g clip-path="url(#clip0_333_16035)">
<path id="Vector" d="M22.0002 0.285645C9.84945 0.285645 0 10.1351 0 22.2858C0 34.4362 9.84945 44.2856 22.0002 44.2856C34.1506 44.2856 44 34.4362 44 22.2858C44 10.1351 34.1506 0.285645 22.0002 0.285645ZM32.1656 19.3395C32.1216 19.5307 32.0073 19.8144 31.8489 20.153H31.8533L31.8357 20.1859C30.9118 22.1604 28.5011 26.0344 28.5011 26.0344L28.4902 26.008L27.7862 27.2348H31.1801L24.696 35.8515L26.1696 29.9898H23.4972L24.4254 26.1136C23.6755 26.294 22.7867 26.5423 21.7354 26.8809C21.7354 26.8809 20.3144 27.7121 17.6399 25.2804C17.6399 25.2804 15.8361 23.6906 16.8833 23.2949C17.3276 23.1257 19.0409 22.9101 20.3893 22.7298C22.2148 22.4836 23.3344 22.3517 23.3344 22.3517C23.3344 22.3517 17.7146 22.4352 16.3817 22.2264C15.0487 22.0175 13.3574 19.7924 12.9966 17.8377C12.9966 17.8377 12.4401 16.7648 14.1954 17.2726C15.9507 17.7807 23.2156 19.2516 23.2156 19.2516C23.2156 19.2516 13.7687 16.3559 13.1373 15.6478C12.5082 14.9443 11.2876 11.7913 11.4459 9.85661C11.4459 9.85661 11.5142 9.37286 12.0113 9.50471C12.0113 9.50471 18.9969 12.6929 23.7721 14.4408C28.5495 16.1888 32.7022 17.077 32.1656 19.3395Z" fill="#3AA2EB"/>
</g>
</g>
<defs>
<clipPath id="clip0_333_16035">
<rect y="0.285645" width="44" height="44" rx="22" fill="white"/>
</clipPath>
</defs>
</svg>
