<svg width="500" height="400" viewBox="0 0 500 400" fill="none" xmlns="http://www.w3.org/2000/svg">
<g id="&#230;&#154;&#130;&#230;&#151;&#160;&#230;&#157;&#131;&#233;&#153;&#144; " clip-path="url(#clip0_306_18519)">
<path id="Vector" d="M94.2027 207.259L96.3682 230.082L82.8018 228.565L94.2027 207.259Z" fill="#E4EFFF"/>
<path id="Vector_2" d="M93.5615 207.259L107.596 225.275L95.6906 230.082L93.5615 207.259Z" fill="#F3F8FF"/>
<path id="Vector_3" d="M46.9394 212.965L49.5882 241.969L33.2148 240.035L46.9394 212.965Z" fill="#E4EFFF"/>
<path id="Vector_4" d="M47.248 212.965L64.5579 235.888L49.9006 241.969L47.248 212.965Z" fill="#F3F8FF"/>
<path id="Vector_5" d="M69.4604 192.995L73.9144 241.018L43.9746 238.027L69.4604 192.995Z" fill="#E4EFFF"/>
<path id="Vector_6" d="M68.7676 192.995L100.111 230.733L73.2265 241.018L68.7676 192.995Z" fill="#F3F8FF"/>
<path id="Vector_7" d="M78.2312 87.4528C76.4825 77.9344 68.3053 71.1019 58.874 71.2767C53.8263 71.2537 48.9568 73.174 45.2272 76.6687C43.1408 75.699 40.8775 75.2002 38.5852 75.2002C31.3244 75.0815 24.9674 80.1788 23.3254 87.4388C17.7442 88.7032 13.7208 93.7061 13.5664 99.5689C13.7811 106.705 19.5631 112.326 26.5152 112.158H74.9987C81.9558 112.334 87.7416 106.71 87.9475 99.5689C87.7981 93.7201 83.7936 88.7274 78.2312 87.4528Z" fill="url(#paint0_linear_306_18519)"/>
<path id="Vector_8" d="M406.947 105.101C404.43 101.083 400.168 98.5926 395.532 98.4216C392.833 94.1753 388.206 91.6554 383.28 91.7409C379.337 91.7026 375.538 93.3 372.745 96.1811C371.469 95.7626 370.135 95.5444 368.797 95.5444C362.593 95.5444 357.472 99.9667 356.943 105.563C352.213 106.723 348.807 110.978 348.606 115.985C348.606 122.015 353.968 126.926 360.461 126.926H405.988C412.575 126.926 417.842 122.015 417.842 115.985C417.945 110.256 413.075 105.549 406.947 105.101Z" fill="url(#paint1_linear_306_18519)"/>
<path id="Vector_9" d="M468.384 24.6023C463.94 15.297 454.663 9.37164 444.475 9.33846C438.8 9.35377 433.28 11.2217 428.733 14.6692C423.325 3.95154 411.574 -1.82071 399.944 0.514221C388.31 2.85298 379.613 12.7388 378.63 24.735C366.117 28.7477 358.351 41.4188 360.34 54.5901C362.332 67.7614 373.479 77.489 386.601 77.5031H460.632C473.83 77.5273 485.052 67.718 486.984 54.4664C488.921 41.2109 480.983 28.5193 468.346 24.6546L468.384 24.6023Z" fill="url(#paint2_linear_306_18519)"/>
<path id="Vector_10" d="M479.036 277.63C479.036 298.062 453.802 317.651 408.883 332.096C363.964 346.541 303.042 354.658 239.518 354.658C175.994 354.658 115.072 346.541 70.1532 332.096C25.2335 317.651 0 298.062 0 277.63C0 257.199 25.2335 237.609 70.1532 223.164C115.072 208.719 175.994 200.602 239.518 200.602C303.042 200.602 363.964 208.719 408.883 223.164C453.802 237.609 479.036 257.199 479.036 277.63Z" fill="url(#paint3_linear_306_18519)"/>
<path id="Vector_11" d="M423.835 212.965L421.556 243.395L404.654 238.413L423.835 212.965Z" fill="#E4EFFF"/>
<path id="Vector_12" d="M423.297 212.965L437.402 239.777L421.028 243.395L423.297 212.965Z" fill="#F3F8FF"/>
<path id="Vector_13" d="M180.14 111.388H321.868C330.187 111.388 336.932 118.243 336.932 126.699V228.134C336.932 236.59 330.187 243.445 321.868 243.445H180.14C171.821 243.445 165.076 236.59 165.076 228.134V126.699C165.076 118.243 171.821 111.388 180.14 111.388Z" fill="url(#paint4_linear_306_18519)"/>
<path id="Vector_14" d="M258.097 183.564C266.571 180.6 272.659 172.426 272.659 162.807C272.659 150.687 262.992 140.861 251.067 140.861C239.143 140.861 229.476 150.687 229.476 162.807C229.476 172.331 235.443 180.44 243.786 183.477V206.826C243.786 210.843 246.99 214.099 250.942 214.099C254.894 214.099 258.097 210.843 258.097 206.826V183.564Z" fill="white"/>
<path id="Vector_15" d="M247.677 43.8914H254.331C270.624 43.8914 283.831 57.3153 283.831 73.8754V111.387H308.938V73.8754C308.938 43.2228 284.489 18.373 254.331 18.373H247.677C217.519 18.373 193.07 43.2228 193.07 73.8754V111.387H218.177V73.8754C218.177 57.3153 231.384 43.8914 247.677 43.8914Z" fill="url(#paint5_linear_306_18519)"/>
<path id="Vector_16" d="M172.859 243.445L321.008 400L499.937 334.8L328.772 243.445H172.859Z" fill="url(#paint6_linear_306_18519)" fill-opacity="0.385356"/>
<path id="Vector_17" d="M154.069 273.907C154.566 273.311 155.445 273.239 156.031 273.745L177.535 292.309C178.122 292.814 178.193 293.707 177.696 294.302L176.422 295.826C175.925 296.422 175.046 296.495 174.461 295.988L152.956 277.425C152.37 276.92 152.298 276.027 152.796 275.431L154.069 273.907Z" fill="#D9E8FF" fill-opacity="0.7"/>
<path id="Vector_18" d="M164.879 287.717L167.731 290.179L164.75 293.748C164.493 294.057 164.038 294.094 163.736 293.832L161.979 292.316C161.677 292.055 161.639 291.594 161.897 291.286L164.879 287.717Z" fill="#D9E8FF" fill-opacity="0.7"/>
<path id="Vector_19" d="M170.292 292.389L173.144 294.853L170.163 298.42C169.906 298.729 169.451 298.766 169.147 298.505L167.392 296.99C167.09 296.729 167.052 296.267 167.31 295.958L170.292 292.389Z" fill="#D9E8FF" fill-opacity="0.7"/>
<path id="Vector_20" fill-rule="evenodd" clip-rule="evenodd" d="M141.881 278.551C146.265 282.334 152.835 281.79 156.558 277.335C160.28 272.879 159.746 266.201 155.362 262.417C150.978 258.633 144.408 259.177 140.685 263.633C136.963 268.088 137.499 274.766 141.881 278.551ZM144.864 274.982C147.307 277.091 150.971 276.787 153.047 274.303C155.122 271.82 154.823 268.096 152.379 265.985C149.936 263.876 146.272 264.18 144.196 266.664C142.121 269.147 142.42 272.871 144.864 274.982Z" fill="#D9E8FF" fill-opacity="0.7"/>
<path id="Vector_21" d="M88.1883 269.016C88.0302 268.447 88.3565 267.857 88.9152 267.697L109.447 261.818C110.006 261.659 110.587 261.989 110.744 262.558L111.148 264.013C111.305 264.582 110.98 265.172 110.42 265.332L89.8893 271.21C89.3307 271.37 88.7495 271.039 88.5913 270.47L88.1883 269.016Z" fill="#D9E8FF" fill-opacity="0.5"/>
<path id="Vector_22" d="M101.272 267.951L103.995 267.172L104.939 270.579C105.021 270.872 104.853 271.178 104.564 271.261L102.888 271.741C102.598 271.823 102.298 271.652 102.216 271.358L101.272 267.951Z" fill="#D9E8FF" fill-opacity="0.5"/>
<path id="Vector_23" d="M106.439 266.471L109.164 265.692L110.108 269.099C110.189 269.393 110.021 269.698 109.731 269.781L108.055 270.261C107.766 270.344 107.465 270.173 107.383 269.878L106.439 266.471Z" fill="#D9E8FF" fill-opacity="0.5"/>
<path id="Vector_24" fill-rule="evenodd" clip-rule="evenodd" d="M85.9105 278.746C90.0958 277.548 92.5324 273.129 91.3536 268.875C90.1749 264.623 85.8264 262.146 81.6424 263.344C77.4571 264.542 75.0205 268.961 76.1992 273.215C77.378 277.467 81.7265 279.944 85.9105 278.746ZM84.9665 275.339C87.3002 274.671 88.6584 272.207 88.0019 269.835C87.3441 267.464 84.92 266.082 82.5864 266.751C80.2527 267.418 78.8944 269.883 79.551 272.254C80.2088 274.626 82.6328 276.008 84.9665 275.339Z" fill="#D9E8FF" fill-opacity="0.5"/>
<path id="Vector_25" fill-rule="evenodd" clip-rule="evenodd" d="M381.901 267.312L381.8 267.962L381.523 268.602L381.031 269.25L380.28 269.925L379.17 270.65L377.722 271.363L375.858 272.055L373.959 272.606L371.784 273.088L369.301 273.494L366.815 273.78L364.14 273.955L361.276 274.022L358.407 273.955L355.736 273.78L353.245 273.494L350.763 273.088L348.588 272.606L346.69 272.055L344.829 271.363L343.376 270.65L342.272 269.925L341.52 269.25L341.028 268.602L340.747 267.962L340.65 267.312L340.747 266.668L341.028 266.027L341.52 265.374L342.272 264.704L343.376 263.978L344.829 263.266L346.69 262.57L348.588 262.024L350.763 261.541L353.245 261.132L355.736 260.85L358.407 260.671L361.276 260.606L364.14 260.671L366.815 260.85L369.301 261.132L371.784 261.541L373.959 262.024L375.858 262.57L377.722 263.266L379.17 263.978L380.28 264.704L381.031 265.374L381.523 266.027L381.8 266.668L381.901 267.312Z" fill="#84C1FF" fill-opacity="0.15"/>
<path id="Vector_26" fill-rule="evenodd" clip-rule="evenodd" d="M355.757 188.489H362.359V195.199H355.757V188.489Z" fill="url(#paint7_linear_306_18519)"/>
<path id="Vector_27" fill-rule="evenodd" clip-rule="evenodd" d="M365.752 183.511L365.348 184.249L364.87 184.749L364.496 184.966L364.156 185.035L363.833 184.984L363.564 184.791L363.371 184.501L363.249 184.078L363.244 183.386L363.459 182.567L363.862 181.828L364.34 181.329L364.714 181.111L365.054 181.039L365.378 181.095L365.647 181.282L365.844 181.577L365.962 181.999L365.966 182.691L365.752 183.511Z" fill="#FEE0BC"/>
<path id="Vector_28" fill-rule="evenodd" clip-rule="evenodd" d="M351.758 183.532L352.174 184.261L352.661 184.753L353.039 184.962L353.379 185.026L353.703 184.97L353.966 184.773L354.156 184.48L354.269 184.056L354.261 183.361L354.034 182.545L353.614 181.815L353.132 181.324L352.753 181.115L352.412 181.047L352.09 181.107L351.825 181.303L351.632 181.597L351.519 182.02L351.527 182.716L351.758 183.532Z" fill="#FEE0BC"/>
<path id="Vector_29" fill-rule="evenodd" clip-rule="evenodd" d="M364.717 181.771L364.616 183.305L364.344 184.713L363.903 186.015L363.312 187.196L362.603 188.198L361.764 189.034L360.843 189.654L359.845 190.039L358.757 190.181L357.669 190.039L356.674 189.654L355.748 189.034L354.914 188.198L354.204 187.196L353.612 186.015L353.169 184.713L352.899 183.305L352.796 181.771L352.899 180.235L353.169 178.83L353.612 177.525L354.204 176.347L354.914 175.345L355.748 174.51L356.674 173.885L357.669 173.504L358.757 173.359L359.845 173.504L360.843 173.885L361.764 174.51L362.603 175.345L363.312 176.347L363.903 177.525L364.344 178.83L364.616 180.235L364.717 181.771Z" fill="url(#paint8_linear_306_18519)"/>
<path id="Vector_30" d="M354.934 262.464L354.594 264.739L353.22 264.893L351.718 265.299L350.046 265.985L349.378 266.489L349.097 266.818L348.959 267.172L348.912 267.578L349.043 267.706L349.831 267.834L352.271 267.856L357.125 267.613C357.525 267.594 357.84 267.257 357.84 266.849V261.632L354.934 262.464Z" fill="url(#paint9_linear_306_18519)"/>
<path id="Vector_31" d="M367.496 262.464L367.836 264.739L369.209 264.893L370.713 265.299L372.384 265.985L373.052 266.489L373.333 266.818L373.473 267.172L373.518 267.578L373.388 267.706L372.599 267.834L370.158 267.856L365.305 267.613C364.905 267.594 364.59 267.257 364.59 266.849V261.632L367.496 262.464Z" fill="url(#paint10_linear_306_18519)"/>
<path id="Vector_32" d="M351.75 220.948L354.104 262.775C354.12 263.047 354.344 263.26 354.612 263.256L358.328 263.205C358.592 263.202 358.809 262.99 358.823 262.722L360.817 224.141L363.92 262.705C363.942 262.973 364.165 263.179 364.429 263.173L367.867 263.117C368.136 263.112 368.354 262.894 368.362 262.621L369.519 221.041L351.75 220.948Z" fill="#153F82"/>
<path id="Vector_33" fill-rule="evenodd" clip-rule="evenodd" d="M378.033 203.322L378.676 202.917L379.306 202.733L379.948 202.746L380.372 202.703L380.603 202.589L380.717 202.409L381.418 202.396L381.654 202.554L381.641 202.866L381.443 203.233L381.258 203.357L381.061 203.322L382.119 203.817L383.127 203.091L383.887 203.173L384.324 203.353L384.555 203.595L384.635 203.919L384.547 204.372L384.223 204.8L383.74 205.235L383.152 205.564L382.431 205.755L381.649 205.734L380.717 205.426L380.091 205.068L379.587 204.996L378.033 203.322Z" fill="#FECCA9"/>
<path id="Vector_34" fill-rule="evenodd" clip-rule="evenodd" d="M341.792 206.129L341.314 205.536L340.777 205.152L340.167 204.955L339.776 204.772L339.596 204.584L339.55 204.379L338.89 204.136L338.618 204.209L338.53 204.508L338.596 204.917L338.731 205.096L338.933 205.13L337.769 205.246L337.051 204.229L336.304 204.055L335.833 204.076L335.54 204.235L335.359 204.511L335.3 204.968L335.463 205.481L335.783 206.053L336.236 206.557L336.858 206.974L337.601 207.214L338.584 207.236L339.285 207.098L339.785 207.196L341.792 206.129Z" fill="#FECCA9"/>
<path id="Vector_35" fill-rule="evenodd" clip-rule="evenodd" d="M355.517 192.476L356.176 192.917C358.192 194.267 360.859 194.016 362.598 192.314L366.409 193.377C369.556 194.255 371.935 196.878 372.539 200.137L373.698 206.384L377.982 202.746L380.842 205.406L374.21 215.531L373.278 216.406L372.527 216.879L371.905 217.063L371.372 217.034L370.885 216.799L370.414 216.329L369.956 215.531L368.167 203.237L370.07 221.43L351.23 221.627L352.544 203.246L352.321 207.241L351.968 210.178L351.527 212.265L351.036 213.691L350.523 214.617L350.003 215.172L349.474 215.463L348.899 215.531L347.857 215.092L346.109 213.989L343.346 211.873L339.201 208.304L340.449 204.91L346.336 208.056L347.067 201.326C347.377 198.47 349.057 195.957 351.555 194.611L355.517 192.476Z" fill="#429CFD"/>
<path id="Vector_36" d="M354.505 179.683C353.812 178.816 352.485 182.486 352.485 179.683C352.485 179.683 352.209 180.292 351.992 179.082C351.697 177.429 351.648 177.129 352.732 175.977C353.766 174.879 352.634 174.777 353.914 173.023C355.195 171.272 356.968 171.873 358.889 171.421C360.81 170.971 363.47 172.974 363.175 173.474C362.878 173.975 364.652 175.027 364.652 175.477C364.652 175.927 365.144 179.883 364.8 180.583C364.455 181.285 364.652 180.183 364.455 179.282C364.266 178.417 362.681 179.482 361.992 179.282C361.423 179.117 361.085 178.044 360.663 178.181C359.726 178.481 359.726 179.682 358.889 179.482C358.069 179.287 357.755 178.08 356.968 178.381C356.53 178.547 355.786 181.285 354.505 179.683Z" fill="#003A8C"/>
</g>
<defs>
<linearGradient id="paint0_linear_306_18519" x1="50.7572" y1="112.213" x2="50.7572" y2="71.2504" gradientUnits="userSpaceOnUse">
<stop stop-color="white" stop-opacity="0.1"/>
<stop offset="1" stop-color="#D9E9FF"/>
</linearGradient>
<linearGradient id="paint1_linear_306_18519" x1="383.284" y1="126.926" x2="383.284" y2="91.7406" gradientUnits="userSpaceOnUse">
<stop stop-color="white" stop-opacity="0.1"/>
<stop offset="0.14" stop-color="#F8FBFF" stop-opacity="0.27"/>
<stop offset="0.37" stop-color="#EDF5FF" stop-opacity="0.52"/>
<stop offset="0.58" stop-color="#E4F0FF" stop-opacity="0.73"/>
<stop offset="0.76" stop-color="#DEECFF" stop-opacity="0.88"/>
<stop offset="0.91" stop-color="#DAEAFF" stop-opacity="0.97"/>
<stop offset="1" stop-color="#D9E9FF"/>
</linearGradient>
<linearGradient id="paint2_linear_306_18519" x1="423.658" y1="77.4504" x2="423.658" y2="-0.0628479" gradientUnits="userSpaceOnUse">
<stop stop-color="white" stop-opacity="0.1"/>
<stop offset="0.09" stop-color="#FEFEFF" stop-opacity="0.13"/>
<stop offset="0.23" stop-color="#FBFCFF" stop-opacity="0.21"/>
<stop offset="0.4" stop-color="#F5F9FF" stop-opacity="0.33"/>
<stop offset="0.59" stop-color="#EEF5FF" stop-opacity="0.51"/>
<stop offset="0.79" stop-color="#E4EFFF" stop-opacity="0.74"/>
<stop offset="1" stop-color="#D9E9FF"/>
</linearGradient>
<linearGradient id="paint3_linear_306_18519" x1="239.518" y1="354.658" x2="239.518" y2="200.602" gradientUnits="userSpaceOnUse">
<stop stop-color="white" stop-opacity="0.1"/>
<stop offset="0.13" stop-color="#FBFDFF" stop-opacity="0.19"/>
<stop offset="0.41" stop-color="#F1F7FF" stop-opacity="0.43"/>
<stop offset="0.81" stop-color="#E1EEFF" stop-opacity="0.82"/>
<stop offset="1" stop-color="#D9E9FF"/>
</linearGradient>
<linearGradient id="paint4_linear_306_18519" x1="184.471" y1="183.668" x2="321.123" y2="177.678" gradientUnits="userSpaceOnUse">
<stop stop-color="#EDF7FF"/>
<stop offset="1" stop-color="#3396FB"/>
</linearGradient>
<linearGradient id="paint5_linear_306_18519" x1="251.067" y1="123.317" x2="252.463" y2="86.0224" gradientUnits="userSpaceOnUse">
<stop stop-color="#3497FC"/>
<stop offset="1" stop-color="#BDDCFC"/>
</linearGradient>
<linearGradient id="paint6_linear_306_18519" x1="320.139" y1="321.322" x2="312.175" y2="285.327" gradientUnits="userSpaceOnUse">
<stop stop-color="white" stop-opacity="0"/>
<stop offset="1" stop-color="#C1DDFD"/>
</linearGradient>
<linearGradient id="paint7_linear_306_18519" x1="359.058" y1="187.213" x2="359.058" y2="195.199" gradientUnits="userSpaceOnUse">
<stop stop-color="#FFCDA5"/>
<stop offset="1" stop-color="#FFE8D1"/>
</linearGradient>
<linearGradient id="paint8_linear_306_18519" x1="358.756" y1="173.359" x2="358.756" y2="190.181" gradientUnits="userSpaceOnUse">
<stop stop-color="#FFF2DF"/>
<stop offset="1" stop-color="#FEE0BC"/>
</linearGradient>
<linearGradient id="paint9_linear_306_18519" x1="356.56" y1="262.36" x2="350.949" y2="268.179" gradientUnits="userSpaceOnUse">
<stop stop-color="#003A8C"/>
<stop offset="1" stop-color="#5792F0"/>
</linearGradient>
<linearGradient id="paint10_linear_306_18519" x1="372.237" y1="262.36" x2="366.627" y2="268.179" gradientUnits="userSpaceOnUse">
<stop stop-color="#003A8C"/>
<stop offset="1" stop-color="#5792F0"/>
</linearGradient>
<clipPath id="clip0_306_18519">
<rect width="500" height="400" fill="white"/>
</clipPath>
</defs>
</svg>
