<svg width="500" height="350" viewBox="0 0 500 350" fill="none" xmlns="http://www.w3.org/2000/svg">
<g id="&#230;&#173;&#163;&#229;&#156;&#168;&#229;&#188;&#128;&#229;&#143;&#145;&#228;&#184;&#173;" clip-path="url(#clip0_306_18556)">
<path id="Vector" d="M97.1792 193.508L99.413 216.517L85.418 214.988L97.1792 193.508Z" fill="#E4EFFF"/>
<path id="Vector_2" d="M96.5176 193.508L110.996 211.671L98.7139 216.517L96.5176 193.508Z" fill="#F3F8FF"/>
<path id="Vector_3" d="M48.4219 199.261L51.1544 228.501L34.2637 226.551L48.4219 199.261Z" fill="#E4EFFF"/>
<path id="Vector_4" d="M48.7422 199.261L66.599 222.37L51.4785 228.501L48.7422 199.261Z" fill="#F3F8FF"/>
<path id="Vector_5" d="M71.6544 179.129L76.2491 227.542L45.3633 224.527L71.6544 179.129Z" fill="#E4EFFF"/>
<path id="Vector_6" d="M70.9395 179.129L103.273 217.174L75.5393 227.542L70.9395 179.129Z" fill="#F3F8FF"/>
<path id="Vector_7" d="M80.7022 72.7284C78.8983 63.1327 70.4627 56.2446 60.7333 56.4208C55.5261 56.3976 50.5028 58.3335 46.6554 61.8567C44.5031 60.8791 42.1682 60.3761 39.8035 60.3761C32.3132 60.2565 25.7553 65.3952 24.0615 72.7142C18.3039 73.989 14.1534 79.0325 13.9941 84.943C14.2156 92.1372 20.1804 97.8034 27.3521 97.6349H77.3676C84.5445 97.8124 90.5132 92.1424 90.7256 84.943C90.5715 79.0467 86.4404 74.0134 80.7022 72.7284Z" fill="url(#paint0_linear_306_18556)"/>
<path id="Vector_8" d="M377.071 72.1262C374.474 68.0756 370.078 65.5648 365.295 65.3924C362.511 61.1116 357.738 58.5712 352.656 58.6574C348.588 58.6188 344.67 60.2292 341.788 63.1337C340.471 62.7118 339.096 62.4918 337.716 62.4918C331.316 62.4918 326.032 66.9501 325.487 72.5918C320.607 73.761 317.094 78.0508 316.887 83.0982C316.887 89.1772 322.418 94.1282 329.115 94.1282H376.081C382.876 94.1282 388.31 89.1772 388.31 83.0982C388.416 77.3228 383.393 72.5776 377.071 72.1262Z" fill="url(#paint1_linear_306_18556)"/>
<path id="Vector_9" d="M480.465 24.8023C475.881 15.4214 466.311 9.44913 455.8 9.4144C449.946 9.42983 444.252 11.313 439.561 14.7885C433.982 3.98367 421.86 -1.83551 409.863 0.518402C397.861 2.87617 388.889 12.8424 387.875 24.9361C374.966 28.9815 366.956 41.7556 369.007 55.034C371.062 68.3124 382.562 78.1191 396.098 78.1332H472.468C486.083 78.1577 497.66 68.2687 499.653 54.9093C501.651 41.546 493.462 28.7512 480.426 24.855L480.465 24.8023Z" fill="url(#paint2_linear_306_18556)"/>
<path id="Vector_10" d="M494.172 264.453C494.172 285.05 468.142 304.798 421.803 319.361C375.465 333.924 312.617 342.106 247.086 342.106C181.555 342.106 118.708 333.924 72.3699 319.361C26.0308 304.798 0 285.05 0 264.453C0 243.855 26.0308 224.105 72.3699 209.543C118.708 194.981 181.555 186.798 247.086 186.798C312.617 186.798 375.465 194.981 421.803 209.543C468.142 224.105 494.172 243.855 494.172 264.453Z" fill="url(#paint3_linear_306_18556)"/>
<path id="Vector_11" d="M437.228 199.261L434.877 229.939L417.441 224.916L437.228 199.261Z" fill="#E4EFFF"/>
<path id="Vector_12" d="M436.672 199.261L451.223 226.291L434.332 229.939L436.672 199.261Z" fill="#F3F8FF"/>
<path id="Vector_13" fill-rule="evenodd" clip-rule="evenodd" d="M84.0449 248.167L84.1589 248.896L84.4839 249.62L85.0511 250.355L85.9175 251.116L87.1957 251.931L88.8727 252.741L91.0224 253.522L93.22 254.142L95.731 254.686L98.6007 255.145L101.474 255.468L104.563 255.666L107.876 255.742L111.188 255.666L114.277 255.468L117.15 255.145L120.02 254.686L122.531 254.142L124.729 253.522L126.878 252.741L128.555 251.936L129.834 251.116L130.701 250.355L131.268 249.62L131.592 248.896L131.706 248.167L131.592 247.439L131.268 246.715L130.701 245.98L129.834 245.219L128.555 244.403L126.878 243.594L124.729 242.813L122.531 242.193L120.02 241.648L117.15 241.189L114.277 240.867L111.188 240.669L107.876 240.593L104.563 240.669L101.474 240.867L98.6007 241.189L95.731 241.648L93.22 242.193L91.0224 242.813L88.8727 243.594L87.1957 244.403L85.9175 245.219L85.0511 245.98L84.4839 246.715L84.1589 247.439L84.0449 248.167Z" fill="#84C1FF" fill-opacity="0.15"/>
<path id="Vector_14" d="M115.202 242.695L115.597 245.261L117.18 245.436L118.92 245.89L120.85 246.667L121.622 247.236L121.947 247.605L122.109 248.007L122.16 248.461L122.008 248.608L121.098 248.755L118.281 248.778L111.842 248.461V241.753L115.202 242.695Z" fill="url(#paint4_linear_306_18556)"/>
<path id="Vector_15" d="M99.9504 242.695L100.345 245.261L101.928 245.436L103.667 245.89L105.598 246.667L106.37 247.236L106.693 247.605L106.855 248.007L106.908 248.461L106.756 248.608L105.845 248.755L103.029 248.778L96.5898 248.461V241.753L99.9504 242.695Z" fill="url(#paint5_linear_306_18556)"/>
<path id="Vector_16" d="M103.358 189.934L101.104 190.013L99.5071 190.16L98.9023 190.236L99.0021 191.765L99.1782 195.847L99.2546 201.726L99.1976 205.063L99.0448 208.661L98.3585 218.394L97.5154 227.944L96.6866 236.171L96.0572 241.937L95.8086 244.11H100.732L101.328 242.061L102.825 236.569L104.765 228.629L105.752 224.113L106.7 219.247L107.524 214.314L108.177 209.414L108.602 204.566L108.739 200.121L109.303 203.383L109.802 207.18L110.199 211.114L110.526 215.294L110.974 223.678L111.209 231.561L111.299 238.154L111.303 242.686L111.294 244.366L116.476 243.855L116.666 241.875L117.148 236.621L117.752 229.127L118.343 220.411L118.753 211.511L118.83 207.198L118.805 203.397L118.572 196.926L118.272 192.646L118.124 191.098L115.579 190.861L113.033 190.833L110.48 191.008L110.46 191.013L108.597 190.483L106.499 190.1L105.023 189.971L103.602 189.934H103.358Z" fill="#153F82"/>
<path id="Vector_17" fill-rule="evenodd" clip-rule="evenodd" d="M105.283 149.467H109.945L110.398 156.413L104.959 156.22L105.283 149.467Z" fill="url(#paint6_linear_306_18556)"/>
<path id="Vector_18" fill-rule="evenodd" clip-rule="evenodd" d="M110.979 153.492L111.866 153.955L112.728 154.49L113.818 155.309L114.844 156.298L115.754 157.515L116.665 159.229L117.485 161.15L118.194 163.125L118.767 164.956L119.562 167.959L119.834 169.175L119.93 169.871L120.429 171.774L120.906 173.019L121.66 174.586L123.141 177.129L123.947 178.236L124.19 178.473L124.615 178.757L125.606 179.386L126.731 180.05L127.565 180.419L128.719 180.788L129.948 181.281L130.515 181.526L129.109 185.829L128.141 185.716L125.71 185.338L124.199 185.025L122.517 184.608L120.849 184.093L119.272 183.473L118.209 182.856L117.332 182.113L116.588 181.27L116.026 180.461L115.287 179.059L115.054 178.473L110.979 153.492Z" fill="#429CFD"/>
<path id="Vector_19" fill-rule="evenodd" clip-rule="evenodd" d="M109.645 155.504C109.522 155.922 109.042 156.119 108.658 155.908L103.626 153.145C103.401 153.021 103.121 153.056 102.933 153.231L102.447 153.715L101.847 154.154L101.585 154.353L101.151 154.633L100.179 155.437L99.6542 156L99.1686 156.682L98.8487 157.449L98.5767 158.604L98.2918 161.152L98.1908 163.367L98.1869 164.319L98.2193 165.629V168.953L98.0432 173.337L97.691 179.416L97.4436 185.02L97.2999 189.135L97.252 190.73L98.3294 190.782L101.055 190.905L104.688 191.032L108.472 191.104L113.31 191.052L116.975 190.91L118.428 190.829L115.335 162.652L115.236 161.857L114.877 159.893L114.587 158.694L114.187 157.402L113.686 156.143L113.086 155.016L112.609 154.457L112.018 154.008L110.855 153.434C110.556 153.336 110.233 153.505 110.145 153.806L109.645 155.504Z" fill="#429CFD"/>
<path id="Vector_20" d="M103.478 171.994L103.482 171.998L103.486 172.001L116.379 181.41L114.038 186.573L106.512 182.441L105.542 181.851L105.541 181.85L103.193 180.378H103.192L100.307 178.481L97.7115 176.613L96.7208 175.767L96.2727 175.246L95.8881 174.455L95.677 173.684L95.5488 172.368L95.5773 171.815L95.6576 170.614L95.9011 167.657L96.3155 163.914L96.5965 162.009L96.906 160.355L97.2997 158.861L97.6765 157.963L98.2696 157.154L99.079 156.336L100.685 155.043L101.402 154.551L101.793 155.099L102.721 156.563L103.204 157.458L103.606 158.37L103.894 159.43L104.022 160.519L103.984 162.396L103.885 163.196L103.757 163.933L103.46 165.708V165.709L103.113 167.882V167.883L102.836 169.805V169.807V169.809L102.759 170.837L102.758 170.849L102.763 170.862L102.925 171.318L102.928 171.325L102.932 171.332L103.161 171.673L103.165 171.678L103.169 171.682L103.478 171.994Z" fill="#429CFD"/>
<g id="Group">
<path id="Vector_21" d="M103.478 171.994L103.482 171.998L103.486 172.001L116.379 181.41L114.038 186.573L106.512 182.441L105.542 181.851L105.541 181.85L103.193 180.378H103.192L100.307 178.481L97.7115 176.613L96.7208 175.767L96.2727 175.246L95.8881 174.455L95.677 173.684L95.5488 172.368L95.5773 171.815L95.6576 170.614L95.9011 167.657L96.3155 163.914L96.5965 162.009L96.906 160.355L97.2997 158.861L97.6765 157.963L98.2696 157.154L99.079 156.336L100.685 155.043L101.402 154.551L101.793 155.099L102.721 156.563L103.204 157.458L103.606 158.37L103.894 159.43L104.022 160.519L103.984 162.396L103.885 163.196L103.757 163.933L103.46 165.708V165.709L103.113 167.882V167.883L102.836 169.805V169.807V169.809L102.759 170.837L102.758 170.849L102.763 170.862L102.925 171.318L102.928 171.325L102.932 171.332L103.161 171.673L103.165 171.678L103.169 171.682L103.478 171.994Z" stroke="url(#paint7_linear_306_18556)"/>
</g>
<path id="Vector_22" fill-rule="evenodd" clip-rule="evenodd" d="M132.627 174.729H118.147L117.876 174.78L117.648 174.932L117.495 175.154L117.442 175.419L117.023 184.859L117.075 185.124L117.228 185.352L117.457 185.499L117.724 185.55H131.64L131.912 185.499L132.141 185.352L132.294 185.124L132.346 184.859L133.328 175.419L133.276 175.154L133.123 174.932L132.894 174.78L132.627 174.729Z" fill="black"/>
<path id="Vector_23" fill-rule="evenodd" clip-rule="evenodd" d="M116.459 181.527L120.478 181.654L120.659 181.726L120.778 181.877L120.854 182.279L120.782 182.502L120.602 182.659L119.601 183.037L121.102 183.288H123.104L123.314 183.349L123.437 183.496L123.481 183.913L123.333 185.059L123.228 185.674L123.075 186.052L122.803 186.327L122.231 186.55L120.668 186.711L119.005 186.781L118.228 186.801L117.16 186.777L116.102 186.677L115.392 186.507L114.677 186.285L114.354 186.175L114.663 185.395L115.344 183.713L115.86 182.601L116.459 181.527ZM132.43 181.589L129.009 181.389L128.851 181.442L128.742 181.574L128.646 181.953L128.689 182.166L128.833 182.332L129.653 182.767L128.36 182.885L126.664 182.724L126.479 182.767L126.369 182.899L126.297 183.293L126.34 184.386L126.383 184.978L126.459 185.29L126.626 185.555L126.865 185.759L127.165 185.891L128.479 186.161L129.886 186.365L130.544 186.446L132.359 186.497L132.727 186.488L133.084 186.389L133.323 186.142L133.494 185.844L133.613 184.575L133.479 183.307L133.145 182.166L132.879 181.769L132.43 181.589Z" fill="#FEE0BC"/>
<path id="Vector_24" d="M103.537 145.801C103.537 149.744 104.585 152.94 107.552 152.94C110.52 152.94 112.149 149.744 112.149 145.801C112.149 141.859 110.52 138.662 107.552 138.662C104.585 138.662 103.537 141.859 103.537 145.801Z" fill="#FFE7CA"/>
<path id="Vector_25" d="M109.434 138.058L109.641 137.808L109.897 137.631L110.327 137.497L110.829 137.511L111.587 137.77L112.224 138.225L112.498 138.68L112.585 139.185L112.532 139.63L112.353 140.257L112.364 140.502L112.474 140.67L112.663 140.742L112.986 140.684L113.381 140.569L113.884 140.584L114.357 140.799L114.858 141.409L114.998 142.017L114.877 142.85L114.521 143.675L113.96 144.39L113.488 144.744L112.967 144.932L112.369 144.951L111.098 144.619L110.206 144.164L109.463 143.594L108.932 143.081L108.126 142.439L107.663 142.194L107.286 142.089L106.972 142.142L106.799 142.409L106.664 143.378L106.544 144.308L106.427 144.586L106.293 144.596L106.167 144.404L106.066 143.997L105.804 143.128L105.544 142.813L105.125 142.683L104.695 142.794L104.449 143.086L104.353 143.488L104.392 143.988L104.565 144.476L104.849 144.912L105.08 145.215L105.018 145.521L104.898 145.985L104.574 146.495L104.135 146.882L103.981 146.853L103.744 146.532L103.503 146.038L103.227 145.162L103.087 144.116L103.17 142.458L103.199 142.031L103.131 141.811L102.731 141.379L102.466 141.063L102.238 140.646L102.176 140.181L102.388 139.563L102.803 139.06L103.165 138.872L104.029 138.844L104.434 138.81L104.579 138.71L104.652 138.264L104.82 137.626L105.043 137.223L105.38 136.845L105.81 136.576L106.394 136.476L107.252 136.625L107.813 136.926L108.242 137.358L108.526 137.803L108.802 138.144L109.024 138.23L109.25 138.182L109.434 138.058Z" fill="#003A8C"/>
<path id="Vector_26" d="M185.236 266.157C184.987 266.285 184.844 266.552 184.836 266.832C184.794 268.275 183.985 269.653 182.604 270.364C181.733 270.813 180.775 270.924 179.884 270.745C178.815 270.53 178.931 269.219 179.9 268.72L180.103 268.616C180.797 268.259 181.068 267.41 180.708 266.719C180.348 266.029 179.493 265.761 178.799 266.118L178.585 266.228C177.619 266.725 176.473 266.068 176.907 265.076C177.274 264.242 177.918 263.521 178.796 263.068C180.182 262.356 181.785 262.496 182.999 263.3C183.233 263.456 183.535 263.494 183.786 263.366L189.106 260.626C189.882 260.226 190.836 260.527 191.239 261.297C191.64 262.068 191.337 263.016 190.562 263.414L185.236 266.157Z" fill="#D9E8FF" fill-opacity="0.7"/>
<path id="Vector_27" d="M288.649 238.611L262.346 224.611L261.493 224.071L260.714 223.43L257.674 220.991L254.342 218.946L280.643 232.931L283.984 234.984L287.033 237.43L287.803 238.071L288.649 238.611Z" fill="url(#paint8_linear_306_18556)"/>
<path id="Vector_28" d="M288.649 238.611L262.346 224.611L261.493 224.071L260.714 223.43L257.674 220.991L254.342 218.946L280.643 232.931L283.984 234.984L287.033 237.43L287.803 238.071L288.649 238.611Z" fill="url(#paint9_linear_306_18556)"/>
<path id="Vector_29" d="M343.755 96.7497L318.008 82.8604L319.409 83.564L321.634 84.4052L323.997 85.002L326.383 85.5693L328.676 86.2883L329.854 86.8311L355.578 100.736L354.417 100.193L352.122 99.4587L349.737 98.8927L347.366 98.2959L345.133 97.4688L343.755 96.7497Z" fill="url(#paint10_linear_306_18556)"/>
<path id="Vector_30" d="M318.346 82.3022L319.498 82.8669L345.905 96.4913L344.752 95.9189L318.346 82.3022Z" fill="url(#paint11_linear_306_18556)"/>
<path id="Vector_31" d="M349.46 97.5935L323.07 83.8662L326.924 84.665L353.329 99.0612L352.493 98.8759L352.147 98.8001L351.633 98.584" fill="url(#paint12_linear_306_18556)"/>
<path id="Vector_32" d="M352.921 99.0018L326.895 84.8706L329.339 85.6167L330.123 85.9511L357.041 100.737L355.849 100.051L354.312 99.5189L353.129 99.0018H352.921Z" fill="url(#paint13_linear_306_18556)"/>
<path id="Vector_33" d="M356.633 99.6346L330.156 85.8765L330.587 86.0694L357.04 99.843L356.633 99.6346Z" fill="url(#paint14_linear_306_18556)"/>
<path id="Vector_34" d="M298.463 153.56L299.835 150.274L299.95 149.961V149.777L300.374 148.516L300.752 147.439L301.136 146.155L301.476 145.038L301.807 143.724L302.069 142.632L302.361 141.279L302.585 140.179L302.808 138.772L302.978 137.695L303.147 136.196L303.216 135.63L303.27 135.188L303.386 133.544V132.65V130.106L303.208 125.972L302.708 122.057L301.915 118.352L300.828 114.828L299.419 111.374L297.763 108.172L295.867 105.192L293.725 102.425L291.329 99.8573L288.742 97.5562L285.952 95.5084L282.956 93.7127L256.656 79.6201L259.66 81.4158L262.448 83.4558L265.037 85.757L267.433 88.3245L269.575 91.0913L271.469 94.0716L273.125 97.2745L274.536 100.72L275.622 104.251L276.415 107.958L276.908 111.871L277.086 116.013V118.573V119.451L276.978 121.095L276.861 122.104L276.678 123.616L276.592 124.213L276.516 124.679L276.292 126.086L276.069 127.186L275.792 128.555L275.506 129.647L275.175 130.969L274.844 132.062L274.466 133.346L274.097 134.439L273.65 135.684L273.465 136.173L272.093 139.467L271.947 139.811L270.306 143.09L269.959 143.747L268.396 146.392V146.506L266.762 148.951L266.262 149.67L264.945 151.497L264.498 152.062L262.641 154.24L262.247 154.661L260.653 156.319L260.021 156.946L258.419 158.444L257.918 158.902L255.638 160.729L255.099 161.149L253.127 162.571L252.534 162.976L249.506 164.802L248.952 165.115L245.739 166.759L245.2 166.995L242.92 167.966L242.21 168.24L239.367 169.188L238.975 169.303L236.417 169.96L235.631 170.144L232.642 170.672L230.848 170.87L228.93 171.015H227.781H225.216H223.937L221.503 170.763L220.348 170.618L217.304 169.991H216.934L213.629 168.975L212.659 168.608L210.418 167.653L208.561 166.743L234.876 180.813L236.232 181.509L236.772 181.745L239.014 182.701L239.96 183.068L243.289 184.091H243.62L246.663 184.71L247.819 184.856L250.253 185.092H251.533H254.098H255.245L257.124 184.985L258.958 184.749L260.538 184.489L261.955 184.214L262.749 184.03L265.314 183.372L265.706 183.266L268.527 182.319L269.251 182.021L271.531 181.073L271.947 180.904H272.07L275.283 179.261L275.845 178.932L278.873 177.106L279.073 176.976L279.466 176.702L281.323 175.279L281.877 174.86L284.165 173.033L284.296 172.919L284.666 172.574L286.261 171.077L286.893 170.45L288.471 168.768L288.787 168.463V168.349L290.644 166.177L291.075 165.605L292.408 163.778L292.685 163.41L292.909 163.082L294.542 160.637V160.523L296.107 157.855L296.29 157.549L296.46 157.221L298.093 153.942L298.463 153.56Z" fill="url(#paint15_linear_306_18556)"/>
<path id="Vector_35" d="M206.422 240.621L180.758 227.436L176.602 224.992L172.623 222.297L168.812 219.333L167.408 217.671L166.266 215.818L192.452 230.2L193.594 232.053L194.99 233.714L196.861 235.155L198.663 236.356L202.405 238.485L206.422 240.621Z" fill="url(#paint16_linear_306_18556)"/>
<path id="Vector_36" d="M180.845 227.486L176.687 225.056L172.705 222.376L168.891 219.429L167.396 218.05L166.727 217.349L166.152 216.488L192.348 229.443L192.969 230.433L193.828 231.529L195.562 233.426L201.301 237.385L204.141 239.19L207.21 240.957L180.845 227.486Z" fill="url(#paint17_linear_306_18556)"/>
<path id="Vector_37" d="M149.955 167.104L175.964 181.191L178.959 183.138L181.692 185.353L184.187 187.844L186.412 190.581L188.329 193.532L189.946 196.711L191.554 200.506L192.764 204.407L193.58 208.415L194.003 212.562L194.05 216.694L193.765 221.062L193.133 225.676L192.109 230.567L166.109 216.479L167.124 211.612L167.764 207.013L168.049 202.651L168.002 198.513L167.579 194.366L166.771 190.343L165.561 186.426L163.961 182.602L162.343 179.421L160.426 176.47L158.202 173.734L155.698 171.243L152.958 169.036L149.955 167.104Z" fill="url(#paint18_linear_306_18556)"/>
<path id="Vector_38" d="M166.058 216.479L167.072 211.612L167.708 207.013L167.993 202.651L167.947 198.513L167.524 194.366L166.719 190.343L165.513 186.426L163.916 182.602L162.306 179.421L160.394 176.47L158.176 173.734L155.682 171.243L152.949 169.036L149.955 167.104L176.552 180.188L179.521 182.149L182.208 184.411L184.642 186.97L186.798 189.768L188.664 192.765L190.261 195.961L191.864 199.762L193.062 203.702L193.867 207.803L194.267 212.08L194.274 216.334L193.914 220.816L193.154 225.554L191.979 230.567L166.058 216.479Z" fill="url(#paint19_linear_306_18556)"/>
<path id="Vector_39" d="M295.073 25.767L298.944 27.0598L300.121 27.4868L302.791 28.5261L304.083 29.0689L306.699 30.2227L307.799 30.7347L311.484 32.5381L285.402 18.5844L282.202 16.9714L281.778 16.7733L280.67 16.2691L278.054 15.1075L276.762 14.5647L274.115 13.5563L272.93 13.1202L269.045 11.8133L268.553 11.6911L267.959 11.5767H267.537H266.374L265.343 11.8674L264.697 12.234L264.574 12.3407L264.39 12.4861L264.113 12.6996L263.705 13.1202L263.505 13.3196L262.674 14.3512L261.051 16.4144L260.52 17.0485L260.035 17.6209L259.397 18.3709L258.919 18.8751L257.457 20.3955L256.796 21.0682L255.434 22.3288L254.788 22.932L252.748 24.6132H252.656L250.464 26.2031L249.91 26.5851L247.348 28.175L247.163 28.2894L244.416 29.6954L243.793 29.9861L241.746 30.8569L241.416 30.9868L239.038 31.7972L238.376 31.9798L236.537 32.4545L235.837 32.6153L233.422 33.0269L232.022 33.1877L230.498 33.3021H227.528H226.513L224.512 33.0809L223.589 32.9741L220.842 32.4159H220.735L217.933 31.5451L217.102 31.2158L215.171 30.4067L213.51 29.6118L239.616 43.55L240.793 44.161L241.269 44.3604L243.108 45.1553L243.962 45.4988L246.755 46.3554H246.87L249.617 46.8969L250.517 47.0191L252.541 47.2185H253.556H255.604H256.519L257.988 47.1568L259.45 46.951L261.866 46.5149L262.567 46.3696L264.405 45.9039L265.052 45.6981L267.428 44.9032L267.776 44.7578L269.798 43.9089L270.138 43.779L270.445 43.6195L273.191 42.2058L273.376 42.0836L275.938 40.4861L276.269 40.2867L276.484 40.1272L278.678 38.5296L280.709 36.8484L280.963 36.6491L281.37 36.267L282.733 34.9833L283.395 34.3337L284.849 32.8133L285.218 32.4159L285.333 32.286L286.456 30.9868L286.987 30.3527L288.587 28.2894L289.511 27.1665L289.71 26.9671L290.395 26.333L290.58 26.2031L291.389 25.7143L292.443 25.4082H293.597H294.026L295.073 25.767Z" fill="url(#paint20_linear_306_18556)"/>
<path id="Vector_40" d="M136.22 162.76L135.144 161.912L134.367 160.82L133.929 159.561L133.86 158.187L133.645 137.979L133.729 117.748L133.914 117.031L134.506 116.107L135.305 115.221L136.273 114.359L137.318 113.61L138.234 113.1L142.285 111.076L145.998 108.847L149.38 106.405L152.471 103.747L155.276 100.884L157.813 97.7851L160.489 93.8156L162.803 89.5245L164.74 84.9067L166.316 79.9056L167.508 74.5006L167.945 70.8591L168.031 67.1572L167.83 63.4463L167.423 59.7366L166.262 52.4459L165.978 50.5525L165.947 48.9562L166.123 47.6056L166.585 46.354L167.431 45.1012L168.753 43.8264L197.289 21.1298L198.619 20.2371L200.125 19.7329L201.263 19.7638L202.324 20.1522L228.246 34.3298L227.184 33.9168L226.055 33.8873L224.547 34.4056L223.217 35.2996L194.659 58.0335L193.33 59.3005L192.484 60.5534L192.022 61.8049L191.846 63.1646L191.877 64.7596L192.153 66.653L193.33 73.8742L193.744 77.5697L193.936 81.2948L193.852 85.0135L193.414 88.7077L192.23 94.1127L190.67 99.1061L188.733 103.724L186.434 108.015L183.766 111.984L181.237 115.077L178.431 117.946L175.341 120.604L171.943 123.047L168.215 125.283L164.141 127.307L163.203 127.81L162.164 128.551L161.196 129.414L160.404 130.299L159.828 131.23L159.635 131.955L159.535 142.086L159.567 152.194L159.766 172.394L159.85 173.76L160.297 175.013L161.073 176.089L162.141 176.936L136.22 162.76Z" fill="url(#paint21_linear_306_18556)"/>
<path id="Vector_41" d="M139.455 112.356L138.291 112.871H138.176L136.995 113.568L135.722 114.573L134.841 115.455L134.319 116.1L134.028 116.559L133.86 116.943L133.744 117.457L133.645 127.587L133.676 137.687L133.875 157.865L133.944 159.238L134.388 160.504L135.17 161.593L136.259 162.436L162.417 176.602L161.328 175.75L160.553 174.661L160.109 173.403L160.033 172.03L159.818 151.83L159.91 131.621L160.002 131.108L160.186 130.717L160.477 130.264L160.976 129.62L161.879 128.716L163.137 127.726L164.333 127.028H164.449L165.591 126.513L139.455 112.356Z" fill="url(#paint22_linear_306_18556)"/>
<path id="Vector_42" d="M192.925 66.7275L192.587 64.8971V63.0744L192.925 61.244L166.736 47.2183L166.39 49.0487V50.8636L166.736 52.694L167.882 59.9165L168.266 63.6159L168.436 67.3384L168.329 71.0597L167.866 74.7359L167.19 78.2218L166.298 81.6381L165.197 85.0095L163.791 88.3963L162.159 91.6764L160.306 94.7879L158.23 97.7464L155.915 100.553L154.115 102.484L152.215 104.314L149.731 106.205L147.131 107.952L143.401 110.301L139.494 112.337L165.844 126.546L169.805 124.518L173.589 122.176L176.073 120.353L178.443 118.377L180.35 116.555L182.141 114.617L183.818 112.634L185.388 110.56L186.956 108.204L188.387 105.755L190.017 102.468L191.425 99.0738L193.055 93.948L194.217 88.7012L194.647 85.0172L194.725 81.3037L194.524 77.5966L194.11 73.9127L192.925 66.7275Z" fill="url(#paint23_linear_306_18556)"/>
<path id="Vector_43" d="M168.661 44.6484L167.937 45.3739L167.437 45.972L167.046 46.592L166.715 47.3329L192.898 61.2956L193.23 60.5547L193.622 59.9424L194.121 59.3225L194.837 58.6189L168.661 44.6484Z" fill="url(#paint24_linear_306_18556)"/>
<path id="Vector_44" d="M194.834 58.615L168.627 44.5185L169.141 44.0837L198.013 21.4553L198.551 21.0732L224.757 35.1466L224.22 35.5505L195.348 58.157L194.834 58.5995" fill="url(#paint25_linear_306_18556)"/>
<path id="Vector_45" d="M224.831 35.1518L198.66 21.1313L199.71 20.5151L225.882 34.5512L224.831 35.1518Z" fill="url(#paint26_linear_306_18556)"/>
<path id="Vector_46" d="M225.994 34.6118L199.787 20.4098L201.061 20.0252L201.73 19.957L202.39 20.0252L228.583 34.3043L227.93 34.2349L227.27 34.3043L225.994 34.7044" fill="url(#paint27_linear_306_18556)"/>
<path id="Vector_47" d="M228.628 34.3222L202.262 20.0688L202.988 20.3313L229.37 34.5937L228.628 34.3222Z" fill="url(#paint28_linear_306_18556)"/>
<path id="Vector_48" d="M229.312 34.5923L202.936 20.5151H203.105L229.482 34.5923H229.312Z" fill="url(#paint29_linear_306_18556)"/>
<path id="Vector_49" d="M359.067 103.246L359.874 110.008L360.359 116.816L360.528 123.693L360.39 128.829L359.975 134.019L359.267 139.262L358.275 144.567L357.607 146.223L356.654 147.704L355.447 148.994L354.001 150.046L350.233 152.062L346.696 154.359L343.39 156.946L340.293 159.839L337.44 162.968L334.872 166.288L332.573 169.791L330.552 173.5L328.821 177.362L327.429 181.293L326.369 185.323L325.631 189.444L325.246 193.612V197.756L325.623 201.9L326.384 206.059L326.691 207.586L326.707 209.074L326.43 210.547L325.877 211.944L325.07 213.203L323.992 214.332L319.479 218.867L314.759 223.155L309.816 227.208L304.68 231.001L299.351 234.527L293.84 237.787L292.293 238.557L290.633 239.031L289.411 239.007L288.241 238.71L287.181 238.146L286.274 237.336L283.79 235.284L281.161 233.528L278.377 232.047L275.456 230.842L272.458 229.94L269.359 229.331L266.215 229.032L263.047 229.048L259.833 229.383L255.943 230.192L252.222 231.322L248.639 232.788L245.186 234.581L241.911 236.688L238.874 239.069L236.045 241.733L233.432 244.694L232.409 245.938L231.186 246.945L229.795 247.709L228.257 248.204L226.612 248.22L224.997 247.892L219.569 246.25L214.302 244.259L209.181 241.908L204.231 239.207L199.487 236.184L194.935 232.818L193.552 231.192L192.414 229.383L193.437 224.529L194.074 219.942L194.359 215.592L194.312 211.463L193.89 207.318L193.068 203.304L191.859 199.404L190.238 195.589L188.085 191.65L185.686 188.216L183.05 185.239L180.173 182.69L177.652 180.926L174.93 179.446L171.985 178.24L168.794 177.309L165.335 176.661L163.744 176.347L162.482 175.829L161.498 175.142L160.76 174.226L160.268 172.974L160.068 171.271L159.854 151.183L159.938 131.081L160.123 130.363L160.715 129.432L161.521 128.555L162.498 127.699L163.544 126.96L164.466 126.463L168.548 124.448L172.286 122.228L175.699 119.8L178.805 117.16L181.626 114.305L184.171 111.23L186.87 107.276L189.192 103.017L191.145 98.4221L192.728 93.4609L193.921 88.0958L194.367 84.471L194.451 80.7922L194.251 77.098L193.836 73.4114L192.652 66.1761L192.375 64.2904L192.344 62.7031L192.529 61.3602L192.982 60.1086L193.843 58.8648L195.173 57.6055L223.913 35.0066L225.251 34.1204L226.765 33.602L227.958 33.6779L229.057 34.0445L230.041 34.6632L230.856 35.5173L233.424 38.1658L236.199 40.4631L239.212 42.4324L242.419 44.0506L245.764 45.3021L249.254 46.1871L252.822 46.6913L256.435 46.7904L260.125 46.4855L264.031 45.7137L267.906 44.493L271.766 42.799L275.649 40.6007L279.231 38.0744L282.699 35.0825L286.066 31.5941L289.326 27.5577L290.049 26.5415L290.948 25.7106L292.002 25.0687L293.17 24.6494L294.523 24.6726L295.845 24.9774L301.358 26.8631L306.709 29.091L311.9 31.6636L316.911 34.5629L321.717 37.785L326.33 41.3326L327.384 42.4787L327.876 43.5618L328.007 44.7297L327.861 45.9581L327.16 48.5307L326.277 52.324L325.699 56.0632L325.423 59.7575L325.447 63.4208L325.754 67.0842L326.33 70.6176L327.168 74.0224L328.275 77.3192L329.652 80.5324L331.266 83.5243L333.104 86.3258L335.172 88.9357L337.486 91.3398L340 93.4763L342.73 95.3466L345.682 96.957L347.942 97.797L350.34 98.3989L352.763 98.9714L355.085 99.72L356.338 100.337L357.591 101.17L358.599 102.185L359.067 103.246ZM259.649 184.132L263.34 183.445L266.898 182.476L270.351 181.225L273.704 179.69L277.971 177.247L281.976 174.401L285.743 171.127L289.196 167.517L292.324 163.586L295.138 159.32L297.568 154.817L299.597 150.092L301.243 145.108L302.434 140.01L303.165 134.774L303.419 129.372L303.05 124.486L302.288 119.983L301.167 115.831L299.698 112L297.814 108.283L295.638 104.918L293.17 101.872L290.387 99.1167L287.327 96.674L284.021 94.5529L280.445 92.7521L276.586 91.2716L272.634 90.1641L268.468 89.4091L264.062 89.0039L259.387 88.9743L258.211 89.1184L254.62 89.7975L251.13 90.7674L247.731 92.0267L244.411 93.5908L240.197 96.0566L236.222 98.9341L232.463 102.246L229.018 105.871L225.896 109.794L223.09 114.015L220.653 118.465L218.623 123.066L216.993 127.845L215.809 132.737L215.11 137.667L214.895 142.651L215.179 147.65L215.887 152.322L216.993 156.695L218.485 160.801L220.406 164.777L222.636 168.387L225.173 171.661L228.026 174.63L231.194 177.271L234.6 179.507L238.252 181.362L242.181 182.835L246.217 183.858L250.445 184.422L254.89 184.521L259.595 184.132" fill="url(#paint30_linear_306_18556)"/>
<path id="Vector_50" d="M164.336 216.498L298.3 212.225L492.647 242.189L302.612 345.61L164.336 216.498Z" fill="url(#paint31_linear_306_18556)" fill-opacity="0.3"/>
<path id="Vector_51" d="M366.913 244.507C366.539 244.386 366.133 244.505 365.857 244.783C363.366 247.3 359.568 248.353 355.96 247.185C353.058 246.245 350.907 244.07 349.909 241.437C349.373 240.023 350.826 238.897 352.271 239.363L354.794 240.18C356.531 240.744 358.399 239.799 358.965 238.073C359.532 236.347 358.583 234.492 356.845 233.93L354.304 233.107C352.86 232.64 352.352 230.883 353.619 230.052C355.993 228.492 359.035 227.984 361.952 228.928C365.568 230.098 368.015 233.187 368.526 236.689C368.583 237.076 368.842 237.411 369.216 237.532L382.948 241.977C384.888 242.606 385.949 244.677 385.317 246.605C384.683 248.532 382.598 249.586 380.657 248.958L366.913 244.507Z" fill="url(#paint32_linear_306_18556)"/>
</g>
<defs>
<linearGradient id="paint0_linear_306_18556" x1="52.3601" y1="97.69" x2="52.3601" y2="56.3943" gradientUnits="userSpaceOnUse">
<stop stop-color="white" stop-opacity="0.1"/>
<stop offset="1" stop-color="#D9E9FF"/>
</linearGradient>
<linearGradient id="paint1_linear_306_18556" x1="352.66" y1="94.1284" x2="352.66" y2="58.6571" gradientUnits="userSpaceOnUse">
<stop stop-color="white" stop-opacity="0.1"/>
<stop offset="0.14" stop-color="#F8FBFF" stop-opacity="0.27"/>
<stop offset="0.37" stop-color="#EDF5FF" stop-opacity="0.52"/>
<stop offset="0.58" stop-color="#E4F0FF" stop-opacity="0.73"/>
<stop offset="0.76" stop-color="#DEECFF" stop-opacity="0.88"/>
<stop offset="0.91" stop-color="#DAEAFF" stop-opacity="0.97"/>
<stop offset="1" stop-color="#D9E9FF"/>
</linearGradient>
<linearGradient id="paint2_linear_306_18556" x1="434.325" y1="78.0801" x2="434.325" y2="-0.0633589" gradientUnits="userSpaceOnUse">
<stop stop-color="white" stop-opacity="0.1"/>
<stop offset="0.09" stop-color="#FEFEFF" stop-opacity="0.13"/>
<stop offset="0.23" stop-color="#FBFCFF" stop-opacity="0.21"/>
<stop offset="0.4" stop-color="#F5F9FF" stop-opacity="0.33"/>
<stop offset="0.59" stop-color="#EEF5FF" stop-opacity="0.51"/>
<stop offset="0.79" stop-color="#E4EFFF" stop-opacity="0.74"/>
<stop offset="1" stop-color="#D9E9FF"/>
</linearGradient>
<linearGradient id="paint3_linear_306_18556" x1="247.086" y1="342.106" x2="247.086" y2="186.798" gradientUnits="userSpaceOnUse">
<stop stop-color="white" stop-opacity="0.1"/>
<stop offset="0.13" stop-color="#FBFDFF" stop-opacity="0.19"/>
<stop offset="0.41" stop-color="#F1F7FF" stop-opacity="0.43"/>
<stop offset="0.81" stop-color="#E1EEFF" stop-opacity="0.82"/>
<stop offset="1" stop-color="#D9E9FF"/>
</linearGradient>
<linearGradient id="paint4_linear_306_18556" x1="120.68" y1="242.575" x2="114.355" y2="249.293" gradientUnits="userSpaceOnUse">
<stop stop-color="#003A8C"/>
<stop offset="1" stop-color="#5792F0"/>
</linearGradient>
<linearGradient id="paint5_linear_306_18556" x1="105.428" y1="242.575" x2="99.1023" y2="249.293" gradientUnits="userSpaceOnUse">
<stop stop-color="#003A8C"/>
<stop offset="1" stop-color="#5792F0"/>
</linearGradient>
<linearGradient id="paint6_linear_306_18556" x1="107.614" y1="150.365" x2="107.614" y2="156.413" gradientUnits="userSpaceOnUse">
<stop stop-color="#FFCDA5"/>
<stop offset="1" stop-color="#FFE8D1"/>
</linearGradient>
<linearGradient id="paint7_linear_306_18556" x1="113.053" y1="179.052" x2="96.7304" y2="169.179" gradientUnits="userSpaceOnUse">
<stop stop-color="white"/>
<stop offset="1" stop-color="white" stop-opacity="0"/>
</linearGradient>
<linearGradient id="paint8_linear_306_18556" x1="254.342" y1="228.77" x2="288.649" y2="228.77" gradientUnits="userSpaceOnUse">
<stop stop-color="#EEEEEE"/>
<stop offset="0.03" stop-color="#DDDDDD"/>
<stop offset="1" stop-color="#D8D8D8"/>
</linearGradient>
<linearGradient id="paint9_linear_306_18556" x1="254.342" y1="228.77" x2="288.649" y2="228.77" gradientUnits="userSpaceOnUse">
<stop stop-color="#EEEEEE"/>
<stop offset="0.03" stop-color="#DDDDDD"/>
<stop offset="1" stop-color="#D8D8D8"/>
</linearGradient>
<linearGradient id="paint10_linear_306_18556" x1="318.008" y1="91.7891" x2="355.578" y2="91.7891" gradientUnits="userSpaceOnUse">
<stop stop-color="#EEEEEE"/>
<stop offset="0.03" stop-color="#B4D7FE"/>
<stop offset="1" stop-color="#B0D3FA"/>
</linearGradient>
<linearGradient id="paint11_linear_306_18556" x1="318.346" y1="89.3965" x2="345.905" y2="89.3965" gradientUnits="userSpaceOnUse">
<stop stop-color="#B2D5FC"/>
<stop offset="0.03" stop-color="#DDDDDD"/>
<stop offset="1" stop-color="#A8D2FF"/>
</linearGradient>
<linearGradient id="paint12_linear_306_18556" x1="325.88" y1="91.4633" x2="346.847" y2="92.1864" gradientUnits="userSpaceOnUse">
<stop stop-color="#AFD5FE"/>
<stop offset="0.0524188" stop-color="#99CAFD"/>
<stop offset="1" stop-color="#B5D4F6"/>
</linearGradient>
<linearGradient id="paint13_linear_306_18556" x1="326.895" y1="92.8896" x2="357.041" y2="92.8896" gradientUnits="userSpaceOnUse">
<stop stop-color="#EEEEEE"/>
<stop offset="0.03" stop-color="#B2D4F8"/>
<stop offset="1" stop-color="#B2D4FA"/>
</linearGradient>
<linearGradient id="paint14_linear_306_18556" x1="330.156" y1="92.8594" x2="357.04" y2="92.8594" gradientUnits="userSpaceOnUse">
<stop stop-color="#EEEEEE"/>
<stop offset="0.03" stop-color="#DDDDDD"/>
<stop offset="1" stop-color="#D8D8D8"/>
</linearGradient>
<linearGradient id="paint15_linear_306_18556" x1="208.449" y1="132.429" x2="303.572" y2="132.429" gradientUnits="userSpaceOnUse">
<stop stop-color="#97C9FD"/>
<stop offset="0.268565" stop-color="#4199F3"/>
<stop offset="1" stop-color="#AAD2FD"/>
</linearGradient>
<linearGradient id="paint16_linear_306_18556" x1="166.266" y1="228.211" x2="206.422" y2="228.211" gradientUnits="userSpaceOnUse">
<stop stop-color="#EEEEEE"/>
<stop offset="0.03" stop-color="#DDDDDD"/>
<stop offset="1" stop-color="#D8D8D8"/>
</linearGradient>
<linearGradient id="paint17_linear_306_18556" x1="166.152" y1="228.714" x2="207.21" y2="228.714" gradientUnits="userSpaceOnUse">
<stop stop-color="#68AFF7"/>
<stop offset="0.518306" stop-color="#6BB1F8"/>
<stop offset="1" stop-color="#6BB1F7"/>
</linearGradient>
<linearGradient id="paint18_linear_306_18556" x1="149.955" y1="198.835" x2="194.046" y2="198.835" gradientUnits="userSpaceOnUse">
<stop stop-color="#EEEEEE"/>
<stop offset="1" stop-color="#D8D8D8"/>
</linearGradient>
<linearGradient id="paint19_linear_306_18556" x1="163.654" y1="197.886" x2="186.092" y2="206.521" gradientUnits="userSpaceOnUse">
<stop stop-color="#5FABF8"/>
<stop offset="1" stop-color="#6EB2F7"/>
</linearGradient>
<linearGradient id="paint20_linear_306_18556" x1="213.546" y1="27.2694" x2="311.41" y2="29.4677" gradientUnits="userSpaceOnUse">
<stop stop-color="#F0F9FF"/>
<stop offset="1" stop-color="#459FFB"/>
</linearGradient>
<linearGradient id="paint21_linear_306_18556" x1="133.643" y1="98.3423" x2="228.246" y2="98.3423" gradientUnits="userSpaceOnUse">
<stop stop-color="#96C5F4"/>
<stop offset="1" stop-color="#3F9CFA"/>
</linearGradient>
<linearGradient id="paint22_linear_306_18556" x1="145.665" y1="127.176" x2="168.779" y2="157.464" gradientUnits="userSpaceOnUse">
<stop stop-color="#C4DAF1"/>
<stop offset="1" stop-color="#5DAAF8"/>
</linearGradient>
<linearGradient id="paint23_linear_306_18556" x1="154.041" y1="84.5091" x2="212.547" y2="95.7813" gradientUnits="userSpaceOnUse">
<stop stop-color="#C4DAF1"/>
<stop offset="1" stop-color="#3497FB"/>
</linearGradient>
<linearGradient id="paint24_linear_306_18556" x1="166.715" y1="52.9632" x2="194.893" y2="52.9632" gradientUnits="userSpaceOnUse">
<stop stop-color="#87BDF5"/>
<stop offset="1" stop-color="#6AB2FD"/>
</linearGradient>
<linearGradient id="paint25_linear_306_18556" x1="168.627" y1="39.8441" x2="216.566" y2="40.9617" gradientUnits="userSpaceOnUse">
<stop stop-color="#97C9FD"/>
<stop offset="1" stop-color="#54A7FC"/>
</linearGradient>
<linearGradient id="paint26_linear_306_18556" x1="198.66" y1="27.8332" x2="225.882" y2="27.8332" gradientUnits="userSpaceOnUse">
<stop stop-color="#79BAFD"/>
<stop offset="1" stop-color="#57A9FC"/>
</linearGradient>
<linearGradient id="paint27_linear_306_18556" x1="199.787" y1="27.3005" x2="228.583" y2="27.3005" gradientUnits="userSpaceOnUse">
<stop stop-color="#69B2FC"/>
<stop offset="1" stop-color="#54A7FC"/>
</linearGradient>
<linearGradient id="paint28_linear_306_18556" x1="202.262" y1="27.303" x2="229.37" y2="27.303" gradientUnits="userSpaceOnUse">
<stop stop-color="#EEEEEE"/>
<stop offset="1" stop-color="#D8D8D8"/>
</linearGradient>
<linearGradient id="paint29_linear_306_18556" x1="202.936" y1="27.5995" x2="229.482" y2="27.5995" gradientUnits="userSpaceOnUse">
<stop stop-color="#EEEEEE"/>
<stop offset="1" stop-color="#D8D8D8"/>
</linearGradient>
<linearGradient id="paint30_linear_306_18556" x1="337.797" y1="213.709" x2="176.149" y2="121.89" gradientUnits="userSpaceOnUse">
<stop stop-color="#3497FC"/>
<stop offset="1" stop-color="#C0DDFC"/>
</linearGradient>
<linearGradient id="paint31_linear_306_18556" x1="161.622" y1="-0.286859" x2="411.771" y2="332.726" gradientUnits="userSpaceOnUse">
<stop stop-color="#5792F0"/>
<stop offset="1" stop-color="#BFD4FA" stop-opacity="0"/>
</linearGradient>
<linearGradient id="paint32_linear_306_18556" x1="361.823" y1="232.176" x2="394.816" y2="262.517" gradientUnits="userSpaceOnUse">
<stop stop-color="#F7FBFF"/>
<stop offset="1" stop-color="#2399EE"/>
</linearGradient>
<clipPath id="clip0_306_18556">
<rect width="500" height="350" fill="white"/>
</clipPath>
</defs>
</svg>
