<svg width="500" height="350" viewBox="0 0 500 350" fill="none" xmlns="http://www.w3.org/2000/svg">
<g id="&#230;&#154;&#130;&#230;&#151;&#160;&#231;&#189;&#145;&#231;&#187;&#156;&#228;&#191;&#161;&#230;&#129;&#175;" clip-path="url(#clip0_306_18484)">
<path id="Vector" d="M97.1796 204.405L99.414 226.942L85.4189 225.444L97.1796 204.405Z" fill="#E4EFFF"/>
<path id="Vector_2" d="M96.5176 204.405L110.995 222.195L98.7134 226.942L96.5176 204.405Z" fill="#F3F8FF"/>
<path id="Vector_3" d="M48.4228 210.039L51.1544 238.679L34.2637 236.769L48.4228 210.039Z" fill="#E4EFFF"/>
<path id="Vector_4" d="M48.7412 210.039L66.5971 232.674L51.4774 238.679L48.7412 210.039Z" fill="#F3F8FF"/>
<path id="Vector_5" d="M71.6548 190.32L76.2491 237.74L45.3633 234.787L71.6548 190.32Z" fill="#E4EFFF"/>
<path id="Vector_6" d="M70.9404 190.32L103.274 227.584L75.5395 237.74L70.9404 190.32Z" fill="#F3F8FF"/>
<path id="Vector_7" d="M80.7036 86.103C78.8988 76.7034 70.463 69.9566 60.734 70.1302C55.5268 70.1068 50.5031 72.0036 46.6569 75.4546C44.5046 74.4967 42.1688 74.0038 39.8041 74.0038C32.3143 73.8864 25.7559 78.9195 24.0619 86.0889C18.3048 87.3378 14.1544 92.277 13.9951 98.0661C14.2172 105.113 20.182 110.663 27.3533 110.499H77.369C84.5451 110.672 90.5147 105.118 90.7271 98.0661C90.5726 92.2911 86.4416 87.3612 80.7036 86.103Z" fill="url(#paint0_linear_306_18484)"/>
<path id="Vector_8" d="M416.05 116.255C413.454 112.288 409.057 109.828 404.275 109.659C401.49 105.466 396.717 102.978 391.635 103.062C387.568 103.024 383.649 104.602 380.768 107.447C379.451 107.034 378.075 106.818 376.695 106.818C370.295 106.818 365.011 111.185 364.466 116.711C359.587 117.856 356.073 122.058 355.866 127.002C355.866 132.956 361.397 137.806 368.095 137.806H415.061C421.856 137.806 427.289 132.956 427.289 127.002C427.396 121.345 422.372 116.697 416.05 116.255Z" fill="url(#paint1_linear_306_18484)"/>
<path id="Vector_9" d="M480.465 24.293C475.881 15.1047 466.311 9.25459 455.8 9.22173C449.946 9.23582 444.252 11.081 439.561 14.4849C433.982 3.9022 421.86 -1.79765 409.863 0.507638C397.861 2.81763 388.889 12.5787 387.875 24.4244C374.966 28.387 366.956 40.8995 369.007 53.9049C371.062 66.9103 382.562 76.5164 396.098 76.5306H472.468C486.083 76.554 497.66 66.8681 499.653 53.7828C501.651 40.693 493.462 28.1618 480.426 24.3447L480.465 24.293Z" fill="url(#paint2_linear_306_18484)"/>
<path id="Vector_10" d="M494.172 273.893C494.172 294.068 468.142 313.411 421.803 327.675C375.465 341.939 312.617 349.954 247.086 349.954C181.555 349.954 118.708 341.939 72.3692 327.675C26.031 313.411 0 294.068 0 273.893C0 253.719 26.031 234.374 72.3692 220.111C118.708 205.848 181.555 197.832 247.086 197.832C312.617 197.832 375.465 205.848 421.803 220.111C468.142 234.374 494.172 253.719 494.172 273.893Z" fill="url(#paint3_linear_306_18484)"/>
<path id="Vector_11" d="M437.228 210.039L434.877 240.088L417.441 235.168L437.228 210.039Z" fill="#E4EFFF"/>
<path id="Vector_12" d="M436.672 210.039L451.223 236.515L434.332 240.088L436.672 210.039Z" fill="#F3F8FF"/>
<path id="Vector_13" d="M426.832 297.145L317.978 326.125L235.271 255.448L282.837 248.364L426.832 297.145Z" fill="url(#paint4_linear_306_18484)" fill-opacity="0.385356"/>
<path id="Vector_14" d="M254.125 232.604L259.741 232.738L264.835 233.109L268.176 233.504L271.155 233.971L273.8 234.505L276.427 235.177L278.557 235.882L280.264 236.597L281.532 237.282L282.442 237.941L283.075 238.576L283.475 239.193H283.695V250.033V250.113L283.562 250.808L283.185 251.509L282.499 252.237L281.416 253.011L279.878 253.804L277.837 254.602L275.196 255.38L272.527 255.988L269.458 256.531L265.955 256.994L262.443 257.318L258.672 257.532L254.616 257.621H254.125L250.012 257.546L246.181 257.346L242.615 257.031L239.05 256.572L235.933 256.029L233.216 255.422L230.529 254.638L228.451 253.836L226.877 253.035L225.777 252.26L225.076 251.523L224.69 250.817L224.557 250.113V250.033V239.193H224.775L225.176 238.576L225.81 237.941L226.721 237.282L227.988 236.597L229.695 235.882L231.825 235.177L234.452 234.505L237.096 233.971L240.075 233.504L243.416 233.109L248.512 232.738L254.125 232.604Z" fill="url(#paint5_linear_306_18484)"/>
<path id="Vector_15" d="M255.589 237.415L259.659 239.692L263.023 238.46C264.739 237.833 265.875 236.235 265.875 234.452V181.322H255.589V237.415Z" fill="url(#paint6_linear_306_18484)"/>
<path id="Vector_16" d="M243.836 181.109H259.265V239.479H247.85C245.633 239.479 243.836 237.731 243.836 235.574V181.109Z" fill="url(#paint7_linear_306_18484)"/>
<path id="Vector_17" d="M274.206 76.7546L277.227 79.866L280.02 83.0655L282.59 86.3485L284.949 89.7242L287.099 93.1926L289.067 96.7909L290.821 100.436L292.364 104.136L293.7 107.887L294.829 111.703L295.764 115.584L296.483 119.475L296.998 123.379L297.307 127.307L297.407 131.258L297.307 135.212L296.998 139.136L296.483 143.044L295.764 146.935L294.829 150.811L293.7 154.627L292.364 158.383L290.821 162.08L289.067 165.728L287.099 169.327L284.949 172.795L282.59 176.167L280.02 179.454L277.227 182.649L274.206 185.76L271.007 188.7L267.719 191.418L264.344 193.921L260.875 196.212L257.31 198.303L253.612 200.223L249.865 201.929L246.062 203.432L242.206 204.73L238.284 205.828L234.294 206.733L230.3 207.437L226.282 207.939L222.245 208.235L218.184 208.337L214.124 208.235L210.087 207.939L206.073 207.437L202.076 206.733L198.091 205.828L194.168 204.73L190.308 203.432L186.505 201.929L182.758 200.223L179.06 198.303L175.494 196.212L172.025 193.921L168.65 191.418L165.366 188.7L162.168 185.76L159.68 183.233L157.345 180.641L154.833 177.566L153.99 175.869L153.327 174.01L152.864 171.965L152.608 169.712L152.574 167.231L152.807 164.249L153.341 161.018L154.199 157.508L155.419 153.681L156.821 150.051L158.527 146.225L160.553 142.196L162.93 137.953L165.418 133.896L168.193 129.732L171.271 125.452L174.66 121.052L178.144 116.827L181.881 112.58L185.889 108.304L190.169 104.006L194.588 99.842L198.982 95.9423L203.347 92.307L207.689 88.9174L212.213 85.6205L216.607 82.625L220.892 79.9263L225.058 77.5059L229.423 75.1919L233.56 73.2213L237.493 71.5613L241.229 70.1979L245.156 69.0109L248.77 68.1716L252.091 67.657L255.151 67.4297L257.705 67.4622L260.017 67.7125L262.118 68.1623L264.035 68.8022L265.774 69.6276L268.934 72.0713L271.608 74.3387L274.206 76.7546Z" fill="url(#paint8_linear_306_18484)"/>
<path id="Vector_18" d="M267.09 72.4704L267.257 72.9201L267.83 74.9511L268.168 77.2092L268.253 79.7271L268.054 82.5371L267.634 85.2404L266.976 88.1525L266.061 91.2917L264.855 94.6813L263.039 99.0261L260.794 103.654L258.096 108.592L255.189 113.396L251.896 118.372L248.206 123.523L244.332 128.536L240.137 133.603L235.61 138.724L230.91 143.694L225.958 148.595L220.739 153.437L215.844 157.688L211.093 161.564L206.475 165.088L201.989 168.28L197.275 171.385L192.805 174.094L188.573 176.426L184.56 178.41L180.303 180.261L176.405 181.694L172.835 182.751L169.561 183.474L166.759 183.863L164.241 183.998L161.983 183.901L159.947 183.595L158.112 183.094L156.606 182.472L155.267 181.694L154.081 180.761L153.032 179.663L152.112 178.378L151.321 176.899L151.134 176.468L150.587 174.808L150.201 172.977L149.996 170.83V168.479L150.224 165.9L150.711 163.071L151.358 160.364L152.217 157.48L153.309 154.406L154.648 151.131L156.602 146.917L158.928 142.469L161.649 137.777L164.552 133.2L167.783 128.484L171.362 123.634L175.098 118.905L179.117 114.138L183.425 109.334L187.881 104.66L192.567 100.051L197.481 95.4974L202.08 91.4957L206.56 87.8232L210.917 84.4615L215.158 81.401L219.605 78.4056L223.842 75.7671L227.879 73.4533L231.725 71.4548L235.786 69.5629L239.547 68.0419L243.026 66.8503L246.252 65.9646L249.012 65.3989L251.524 65.0651L253.812 64.9399L255.9 65.0048L257.806 65.246L259.746 65.7143L261.457 66.3866L262.963 67.2537L264.297 68.3203L265.465 69.6001L266.352 70.9354L267.09 72.4704Z" fill="url(#paint9_linear_306_18484)"/>
<path id="Vector_19" d="M240.852 132.766L227.979 146.862L187.729 106.989L192.995 101.651L240.852 132.766Z" fill="url(#paint10_linear_306_18484)"/>
<path id="Vector_20" d="M194.807 97.848L194.764 99.6054L194.43 101.238L193.811 102.768L192.929 104.177L191.843 105.397L190.527 106.44L189.059 107.252L187.444 107.799L185.661 108.082L183.854 108.045L182.177 107.72L180.604 107.117L179.155 106.259L177.901 105.198L176.829 103.922L175.995 102.49L175.433 100.922L175.143 99.188L175.18 97.4307L175.514 95.7985L176.138 94.2682L177.015 92.8587L178.107 91.6391L179.417 90.5958L180.89 89.7844L182.501 89.2372L184.284 88.9497L186.089 88.9914L187.768 89.316L189.34 89.9188L190.789 90.7767L192.042 91.8339L193.115 93.1137L193.949 94.5464L194.512 96.1137L194.807 97.848Z" fill="url(#paint11_linear_306_18484)"/>
<path id="Vector_21" d="M165.271 91.7648L164.47 91.686L163.713 91.4588L163.017 91.0971L162.392 90.6009L161.883 89.9982L161.511 89.3165L161.277 88.5793L161.201 87.8048L161.192 83.8495L157.13 83.845L156.044 83.7012L155.077 83.3023L154.257 82.6811L153.618 81.8834L153.208 80.9468L153.06 79.885L153.208 78.8277L153.613 77.8911L154.248 77.0889L155.067 76.4722L156.03 76.0781L157.121 75.9389L161.182 75.9435L161.177 71.9882L161.325 70.931L161.73 69.9944L162.363 69.1921L163.183 68.5754L164.147 68.1813L165.238 68.0375L166.325 68.1859L167.287 68.58L168.112 69.2014L168.75 70.0036L169.156 70.9402L169.309 71.9975L169.312 75.9575L173.379 75.962L174.47 76.1058L175.433 76.5047L176.252 77.1214L176.891 77.9236L177.301 78.8602L177.449 79.922L177.301 80.9793L176.896 81.9159L176.261 82.7181L175.438 83.3348L174.48 83.7289L173.388 83.8681L169.323 83.8635L169.332 87.8142L169.252 88.5932L169.022 89.3258L168.651 90.0074L168.146 90.6102L167.525 91.1017L166.83 91.4635L166.072 91.686L165.271 91.7648ZM140.663 88.9872L139.729 89.131L138.838 89.1125L137.971 88.9409L137.142 88.6302L136.397 88.1944L135.721 87.6332L135.154 86.9703L134.715 86.2143L134.397 85.3473L134.025 82.3657L133.938 79.4167L134.125 76.4815L134.592 73.574L135.316 70.7362L136.312 67.9586L137.566 65.2831L139.066 62.7236L140.83 60.2706L141.979 58.9676L143.357 57.6183L144.996 56.2226L146.732 54.9567L148.747 53.7325L151.078 52.5547L153.489 51.5718L156.245 50.7139L159.39 49.9905L162.569 49.5175L166.172 49.2578L170.247 49.2486L171.172 49.3831L172.01 49.6521L172.783 50.0555L173.473 50.5795L174.055 51.1961L174.537 51.9102L174.88 52.6938L175.084 53.5332L175.137 54.4373L175.023 55.337L174.766 56.1577L174.369 56.9182L173.845 57.5998L173.226 58.1748L172.502 58.6523L171.706 59.0001L170.847 59.2134L169.919 59.2783L166.935 59.269L164.209 59.4359L161.716 59.7698L159.442 60.2474L157.369 60.8688L155.291 61.7035L153.418 62.6911L151.735 63.8318L150.224 65.1255L148.871 66.5769L147.608 68.3992L146.55 70.2911L145.688 72.2572L145.016 74.3113L144.543 76.4211L144.287 78.5448L144.233 80.701L144.395 82.8989L144.548 83.8773L144.5 84.8511L144.262 85.8017L143.828 86.6966L143.223 87.4896L142.484 88.148L141.621 88.6488L140.668 88.9827L140.663 88.9872ZM168.626 41.6579L164.18 41.8758L160.071 42.3256L156.282 42.9887L152.779 43.8466L149.543 44.8991L146.826 46.0028L144.31 47.2501L141.975 48.6319L139.815 50.1574L137.813 51.8221L135.974 53.6306L133.995 55.9676L132.323 58.337L130.936 60.7389L129.74 63.2475L128.782 65.682L128.033 68.0422L127.19 71.5756L126.694 74.6498L126.422 77.5479L126.346 79.6809L126.403 82.2545L126.394 83.154L126.232 84.0072L125.917 84.8233L125.464 85.5744L124.883 86.233L124.168 86.8033L123.358 87.2391L122.514 87.522L121.628 87.6565L120.732 87.6379L119.855 87.471L118.992 87.1464L118.201 86.6734L117.529 86.0984L116.971 85.4122L116.542 84.6471L116.256 83.8217L116.118 82.9314L116.046 81.6238L116.032 79.1523L116.156 76.3469L116.533 72.7163L116.928 70.2215L117.51 67.5135L118.301 64.5645L119.264 61.6803L120.493 58.7033L122.009 55.6337L123.291 53.4218L124.764 51.2239L126.441 49.0353L128.338 46.856L130.693 44.5328L133.219 42.4045L135.926 40.4616L138.824 38.7042L141.922 37.123L145.235 35.7273L148.537 34.5912L152.036 33.6266L155.758 32.8385L159.709 32.2356L163.908 31.8275L168.37 31.6235L169.289 31.6838L170.146 31.8879L170.966 32.2403L171.711 32.7225L172.349 33.3161L172.897 34.0347L173.308 34.8416L173.555 35.6669L173.655 36.5295L173.598 37.3965L173.393 38.2312L173.025 39.0519L172.511 39.7939L171.901 40.4199L171.186 40.9299L170.385 41.3148L169.537 41.5559L168.622 41.6579H168.626Z" fill="url(#paint12_linear_306_18484)"/>
<path id="Vector_22" fill-rule="evenodd" clip-rule="evenodd" d="M99.4561 298.511L99.5704 299.225L99.8945 299.934L100.462 300.654L101.329 301.4L102.607 302.197L104.284 302.991L106.434 303.756L108.631 304.363L111.143 304.896L114.012 305.346L116.886 305.662L119.974 305.856L123.287 305.93L126.599 305.856L129.688 305.662L132.561 305.346L135.431 304.896L137.942 304.363L140.14 303.756L142.29 302.991L143.967 302.202L145.245 301.4L146.112 300.654L146.68 299.934L147.003 299.225L147.117 298.511L147.003 297.797L146.68 297.088L146.112 296.369L145.245 295.623L143.967 294.824L142.29 294.032L140.14 293.267L137.942 292.66L135.431 292.125L132.561 291.676L129.688 291.361L126.599 291.167L123.287 291.092L119.974 291.167L116.886 291.361L114.012 291.676L111.143 292.125L108.631 292.66L106.434 293.267L104.284 294.032L102.607 294.824L101.329 295.623L100.462 296.369L99.8945 297.088L99.5704 297.797L99.4561 298.511Z" fill="#84C1FF" fill-opacity="0.15"/>
<path id="Vector_23" d="M130.612 293.151L131.007 295.664L132.59 295.836L134.33 296.28L136.26 297.041L137.032 297.598L137.357 297.96L137.518 298.354L137.57 298.799L137.417 298.943L136.508 299.086L133.69 299.109L127.252 298.799V292.229L130.612 293.151Z" fill="url(#paint13_linear_306_18484)"/>
<path id="Vector_24" d="M115.361 293.151L115.757 295.664L117.339 295.836L119.079 296.28L121.009 297.041L121.781 297.598L122.105 297.96L122.267 298.354L122.32 298.799L122.167 298.943L121.257 299.086L118.44 299.109L112.001 298.799V292.229L115.361 293.151Z" fill="url(#paint14_linear_306_18484)"/>
<path id="Vector_25" d="M118.768 241.472L116.514 241.55L114.917 241.694L114.312 241.768L114.412 243.266L114.588 247.264L114.665 253.023L114.608 256.291L114.455 259.815L113.769 269.349L112.925 278.702L112.096 286.761L111.467 292.409L111.219 294.537H116.142L116.738 292.53L118.235 287.151L120.174 279.374L121.161 274.95L122.109 270.184L122.934 265.352L123.587 260.553L124.011 255.805L124.149 251.451L124.712 254.646L125.212 258.365L125.608 262.218L125.937 266.312L126.385 274.524L126.618 282.245L126.709 288.703L126.713 293.142L126.704 294.787L131.885 294.287L132.076 292.348L132.557 287.201L133.162 279.861L133.753 271.324L134.163 262.607L134.24 258.383L134.215 254.66L133.982 248.321L133.681 244.129L133.534 242.612L130.989 242.381L128.444 242.353L125.889 242.524L125.87 242.529L124.006 242.01L121.909 241.635L120.432 241.509L119.011 241.472H118.768Z" fill="#153F82"/>
<path id="Vector_26" fill-rule="evenodd" clip-rule="evenodd" d="M120.694 201.836H125.356L125.809 208.639L120.37 208.45L120.694 201.836Z" fill="url(#paint15_linear_306_18484)"/>
<path id="Vector_27" fill-rule="evenodd" clip-rule="evenodd" d="M126.39 205.778L127.276 206.232L128.139 206.756L129.23 207.559L130.255 208.527L131.166 209.719L132.076 211.397L132.896 213.28L133.606 215.214L134.178 217.008L134.973 219.948L135.245 221.14L135.341 221.822L135.841 223.685L136.317 224.905L137.071 226.439L138.552 228.93L139.358 230.015L139.601 230.247L140.026 230.525L141.017 231.141L142.142 231.791L142.976 232.153L144.129 232.515L145.359 232.997L145.926 233.238L144.52 237.452L143.552 237.341L141.122 236.971L139.61 236.665L137.928 236.257L136.26 235.751L134.683 235.144L133.62 234.541L132.743 233.812L132 232.987L131.438 232.195L130.698 230.821L130.465 230.247L126.39 205.778Z" fill="#429CFD"/>
<path id="Vector_28" fill-rule="evenodd" clip-rule="evenodd" d="M125.056 207.749C124.933 208.158 124.453 208.351 124.07 208.144L119.037 205.438C118.812 205.317 118.532 205.351 118.344 205.523L117.858 205.996L117.258 206.427L116.996 206.621L116.562 206.896L115.59 207.683L115.065 208.235L114.579 208.903L114.26 209.654L113.988 210.785L113.702 213.281L113.602 215.451L113.597 216.383L113.631 217.667V220.922L113.454 225.216L113.102 231.17L112.854 236.66L112.711 240.69L112.663 242.252L113.74 242.303L116.467 242.424L120.098 242.548L123.883 242.619L128.72 242.567L132.386 242.429L133.839 242.349L130.746 214.75L130.645 213.971L130.288 212.048L129.998 210.873L129.598 209.608L129.097 208.375L128.496 207.271L128.02 206.723L127.429 206.283L126.266 205.722C125.966 205.626 125.644 205.791 125.556 206.086L125.056 207.749Z" fill="#429CFD"/>
<path id="Vector_29" d="M118.889 223.9L118.893 223.904L118.897 223.907L131.79 233.123L129.448 238.18L121.923 234.133L120.953 233.555L120.952 233.554L118.604 232.112H118.603L115.717 230.254L113.123 228.425L112.133 227.596L111.684 227.085L111.299 226.311L111.088 225.556L110.96 224.267L110.988 223.725L111.069 222.549L111.312 219.652L111.727 215.986L112.007 214.12L112.317 212.5L112.711 211.037L113.087 210.157L113.68 209.365L114.489 208.564L116.096 207.297L116.813 206.815L117.204 207.352L118.131 208.785L118.615 209.662L119.017 210.556L119.306 211.594L119.433 212.661L119.395 214.499L119.296 215.283L119.167 216.005L118.872 217.743V217.745L118.524 219.873L118.524 219.874L118.247 221.756L118.247 221.759L118.247 221.76L118.17 222.767L118.169 222.779L118.174 222.792L118.336 223.238L118.339 223.245L118.343 223.252L118.572 223.585L118.575 223.591L118.58 223.594L118.889 223.9Z" fill="#429CFD"/>
<path id="Vector_30" style="mix-blend-mode:overlay" d="M118.889 223.9L118.893 223.904L118.897 223.907L131.79 233.123L129.448 238.18L121.923 234.133L120.953 233.555L120.952 233.554L118.604 232.112H118.603L115.717 230.254L113.123 228.425L112.133 227.596L111.684 227.085L111.299 226.311L111.088 225.556L110.96 224.267L110.988 223.725L111.069 222.549L111.312 219.652L111.727 215.986L112.007 214.12L112.317 212.5L112.711 211.037L113.087 210.157L113.68 209.365L114.489 208.564L116.096 207.297L116.813 206.815L117.204 207.352L118.131 208.785L118.615 209.662L119.017 210.556L119.306 211.594L119.433 212.661L119.395 214.499L119.296 215.283L119.167 216.005L118.872 217.743V217.745L118.524 219.873L118.524 219.874L118.247 221.756L118.247 221.759L118.247 221.76L118.17 222.767L118.169 222.779L118.174 222.792L118.336 223.238L118.339 223.245L118.343 223.252L118.572 223.585L118.575 223.591L118.58 223.594L118.889 223.9Z" stroke="url(#paint16_linear_306_18484)"/>
<path id="Vector_31" fill-rule="evenodd" clip-rule="evenodd" d="M148.037 226.579H133.558L133.286 226.63L133.058 226.778L132.905 226.996L132.853 227.256L132.434 236.502L132.485 236.762L132.638 236.985L132.867 237.128L133.134 237.179H147.05L147.322 237.128L147.551 236.985L147.704 236.762L147.756 236.502L148.738 227.256L148.686 226.996L148.533 226.778L148.304 226.63L148.037 226.579Z" fill="black"/>
<path id="Vector_32" fill-rule="evenodd" clip-rule="evenodd" d="M131.87 233.237L135.889 233.362L136.07 233.433L136.189 233.58L136.266 233.974L136.193 234.192L136.013 234.346L135.012 234.716L136.513 234.962H138.515L138.725 235.023L138.848 235.166L138.892 235.574L138.744 236.697L138.639 237.299L138.486 237.67L138.215 237.939L137.642 238.157L136.079 238.315L134.416 238.384L133.639 238.403L132.571 238.38L131.513 238.282L130.803 238.116L130.088 237.898L129.765 237.791L130.074 237.026L130.755 235.379L131.271 234.289L131.87 233.237ZM147.842 233.298L144.42 233.103L144.262 233.154L144.153 233.284L144.058 233.654L144.1 233.864L144.244 234.026L145.064 234.452L143.771 234.568L142.075 234.41L141.89 234.452L141.78 234.582L141.708 234.967L141.751 236.038L141.794 236.618L141.87 236.924L142.037 237.183L142.276 237.382L142.576 237.512L143.891 237.777L145.297 237.976L145.955 238.055L147.77 238.106L148.138 238.097L148.496 238L148.734 237.758L148.905 237.466L149.024 236.223L148.891 234.981L148.556 233.864L148.29 233.474L147.842 233.298Z" fill="#FEE0BC"/>
<path id="Vector_33" d="M118.948 198.245C118.948 202.107 119.995 205.238 122.963 205.238C125.931 205.238 127.56 202.107 127.56 198.245C127.56 194.384 125.931 191.253 122.963 191.253C119.995 191.253 118.948 194.384 118.948 198.245Z" fill="#FFE7CA"/>
<path id="Vector_34" d="M124.844 190.661L125.052 190.416L125.307 190.242L125.737 190.111L126.239 190.125L126.996 190.378L127.633 190.824L127.909 191.27L127.995 191.764L127.942 192.2L127.764 192.815L127.773 193.054L127.884 193.219L128.073 193.29L128.396 193.233L128.792 193.12L129.294 193.135L129.767 193.345L130.268 193.943L130.408 194.538L130.287 195.355L129.931 196.162L129.371 196.863L128.898 197.209L128.377 197.393L127.778 197.412L126.509 197.087L125.616 196.641L124.873 196.083L124.342 195.58L123.536 194.952L123.073 194.712L122.697 194.609L122.383 194.661L122.209 194.923L122.074 195.871L121.953 196.782L121.838 197.055L121.702 197.065L121.577 196.877L121.476 196.477L121.215 195.627L120.954 195.318L120.535 195.191L120.105 195.299L119.859 195.585L119.762 195.98L119.801 196.469L119.975 196.947L120.259 197.375L120.491 197.671L120.428 197.97L120.308 198.425L119.984 198.924L119.545 199.303L119.391 199.276L119.154 198.961L118.913 198.477L118.638 197.619L118.498 196.595L118.58 194.971L118.609 194.552L118.542 194.337L118.141 193.914L117.876 193.604L117.649 193.195L117.586 192.741L117.798 192.135L118.213 191.642L118.575 191.458L119.439 191.43L119.844 191.398L119.989 191.299L120.062 190.862L120.23 190.237L120.453 189.843L120.79 189.472L121.22 189.209L121.804 189.111L122.663 189.257L123.223 189.552L123.652 189.975L123.937 190.411L124.212 190.745L124.434 190.829L124.661 190.783L124.844 190.661Z" fill="#003A8C"/>
</g>
<defs>
<linearGradient id="paint0_linear_306_18484" x1="52.3611" y1="110.552" x2="52.3611" y2="70.1036" gradientUnits="userSpaceOnUse">
<stop stop-color="white" stop-opacity="0.1"/>
<stop offset="1" stop-color="#D9E9FF"/>
</linearGradient>
<linearGradient id="paint1_linear_306_18484" x1="391.639" y1="137.806" x2="391.639" y2="103.062" gradientUnits="userSpaceOnUse">
<stop stop-color="white" stop-opacity="0.1"/>
<stop offset="0.14" stop-color="#F8FBFF" stop-opacity="0.27"/>
<stop offset="0.37" stop-color="#EDF5FF" stop-opacity="0.52"/>
<stop offset="0.58" stop-color="#E4F0FF" stop-opacity="0.73"/>
<stop offset="0.76" stop-color="#DEECFF" stop-opacity="0.88"/>
<stop offset="0.91" stop-color="#DAEAFF" stop-opacity="0.97"/>
<stop offset="1" stop-color="#D9E9FF"/>
</linearGradient>
<linearGradient id="paint2_linear_306_18484" x1="434.325" y1="76.478" x2="434.325" y2="-0.0620862" gradientUnits="userSpaceOnUse">
<stop stop-color="white" stop-opacity="0.1"/>
<stop offset="0.09" stop-color="#FEFEFF" stop-opacity="0.13"/>
<stop offset="0.23" stop-color="#FBFCFF" stop-opacity="0.21"/>
<stop offset="0.4" stop-color="#F5F9FF" stop-opacity="0.33"/>
<stop offset="0.59" stop-color="#EEF5FF" stop-opacity="0.51"/>
<stop offset="0.79" stop-color="#E4EFFF" stop-opacity="0.74"/>
<stop offset="1" stop-color="#D9E9FF"/>
</linearGradient>
<linearGradient id="paint3_linear_306_18484" x1="247.086" y1="349.954" x2="247.086" y2="197.832" gradientUnits="userSpaceOnUse">
<stop stop-color="white" stop-opacity="0.1"/>
<stop offset="0.13" stop-color="#FBFDFF" stop-opacity="0.19"/>
<stop offset="0.41" stop-color="#F1F7FF" stop-opacity="0.43"/>
<stop offset="0.81" stop-color="#E1EEFF" stop-opacity="0.82"/>
<stop offset="1" stop-color="#D9E9FF"/>
</linearGradient>
<linearGradient id="paint4_linear_306_18484" x1="339.937" y1="307.73" x2="326.037" y2="261.742" gradientUnits="userSpaceOnUse">
<stop stop-color="white" stop-opacity="0"/>
<stop offset="1" stop-color="#C1DDFD"/>
</linearGradient>
<linearGradient id="paint5_linear_306_18484" x1="270.59" y1="245.051" x2="251.452" y2="220.18" gradientUnits="userSpaceOnUse">
<stop stop-color="#3497FC"/>
<stop offset="1" stop-color="#C0DDFC"/>
</linearGradient>
<linearGradient id="paint6_linear_306_18484" x1="261.331" y1="240.2" x2="246.522" y2="235.63" gradientUnits="userSpaceOnUse">
<stop stop-color="#3497FC"/>
<stop offset="1" stop-color="#C0DDFC"/>
</linearGradient>
<linearGradient id="paint7_linear_306_18484" x1="257.516" y1="230.47" x2="241.527" y2="227.794" gradientUnits="userSpaceOnUse">
<stop stop-color="#3497FC"/>
<stop offset="1" stop-color="#C0DDFC"/>
</linearGradient>
<linearGradient id="paint8_linear_306_18484" x1="279.914" y1="176.953" x2="220.187" y2="138.084" gradientUnits="userSpaceOnUse">
<stop stop-color="#3497FC"/>
<stop offset="1" stop-color="#C0DDFC"/>
</linearGradient>
<linearGradient id="paint9_linear_306_18484" x1="239.057" y1="131.092" x2="201.471" y2="100.316" gradientUnits="userSpaceOnUse">
<stop stop-color="#3497FC"/>
<stop offset="1" stop-color="#BDDCFC"/>
</linearGradient>
<linearGradient id="paint10_linear_306_18484" x1="174.825" y1="94.1776" x2="236.797" y2="150.037" gradientUnits="userSpaceOnUse">
<stop stop-color="#3497FC"/>
<stop offset="1" stop-color="#BDDCFC"/>
</linearGradient>
<linearGradient id="paint11_linear_306_18484" x1="196.663" y1="114.001" x2="173.966" y2="88.3287" gradientUnits="userSpaceOnUse">
<stop stop-color="#3799FD"/>
<stop offset="1" stop-color="#A6D1FD"/>
</linearGradient>
<linearGradient id="paint12_linear_306_18484" x1="160.933" y1="26.7909" x2="178.251" y2="84.9703" gradientUnits="userSpaceOnUse">
<stop stop-color="#EEF6FF"/>
<stop offset="1" stop-color="#3497FC"/>
</linearGradient>
<linearGradient id="paint13_linear_306_18484" x1="136.09" y1="293.034" x2="129.904" y2="299.741" gradientUnits="userSpaceOnUse">
<stop stop-color="#003A8C"/>
<stop offset="1" stop-color="#5792F0"/>
</linearGradient>
<linearGradient id="paint14_linear_306_18484" x1="120.839" y1="293.034" x2="114.653" y2="299.741" gradientUnits="userSpaceOnUse">
<stop stop-color="#003A8C"/>
<stop offset="1" stop-color="#5792F0"/>
</linearGradient>
<linearGradient id="paint15_linear_306_18484" x1="123.025" y1="202.715" x2="123.025" y2="208.639" gradientUnits="userSpaceOnUse">
<stop stop-color="#FFCDA5"/>
<stop offset="1" stop-color="#FFE8D1"/>
</linearGradient>
<linearGradient id="paint16_linear_306_18484" x1="128.464" y1="230.813" x2="112.325" y2="220.847" gradientUnits="userSpaceOnUse">
<stop stop-color="white"/>
<stop offset="1" stop-color="white" stop-opacity="0"/>
</linearGradient>
<clipPath id="clip0_306_18484">
<rect width="500" height="350" fill="white"/>
</clipPath>
</defs>
</svg>
