<svg width="44" height="45" viewBox="0 0 44 45" fill="none" xmlns="http://www.w3.org/2000/svg">
<g id="&#229;&#190;&#174;&#228;&#191;&#161;">
<g clip-path="url(#clip0_333_16032)">
<path id="Vector" d="M22 44.2856C9.84973 44.2856 0 34.4359 0 22.2856C0 10.1354 9.84973 0.285645 22 0.285645C34.1503 0.285645 44 10.1354 44 22.2856C44 34.4359 34.1503 44.2856 22 44.2856ZM26.6368 17.3713H27.5C26.6368 13.3002 22.5343 10.369 17.819 10.369C12.4908 10.369 8.25 14.066 8.25 18.9029C8.25 21.7 9.73552 23.8654 12.0927 25.6464L11.0995 28.7023L14.4509 26.9214C15.5453 27.2144 16.669 27.3844 17.8011 27.4284H18.6654C18.4596 26.7691 18.3744 26.0782 18.414 25.3887C18.4485 23.2143 19.3352 21.1404 20.8832 19.6132C21.6349 18.8715 22.5294 18.2904 23.5125 17.905C24.4956 17.5196 25.5468 17.338 26.6022 17.3713H26.6368ZM21.6836 14.9523C22.3646 14.9523 22.9167 15.5662 22.9167 16.3236C22.9167 17.0811 22.3646 17.695 21.6836 17.695C20.9251 17.7788 20.2484 17.1659 20.1667 16.3226C20.1667 15.3651 20.9168 14.9523 21.6585 14.9523H21.6836ZM14.3346 17.6971C13.5803 17.7599 12.9161 17.1534 12.8333 16.3268C12.9161 15.5013 13.5803 14.8947 14.3346 14.9565C15.0239 14.9565 15.5833 15.5704 15.5833 16.3279C15.5833 17.0842 15.0239 17.6981 14.3346 17.6981V17.6971ZM35.75 24.9843C35.75 21.0212 31.877 17.7023 27.5 17.7023C22.8695 17.7023 19.25 21.0212 19.25 24.9833C19.25 28.9474 22.879 32.2663 27.5 32.2663C28.4751 32.2204 29.4403 32.0489 30.3715 31.7561L32.9822 33.2856L32.2342 30.7274C34.3577 29.1979 35.7154 27.1487 35.7154 24.9759L35.75 24.9843ZM24.6452 24.1127C24.1969 24.1127 23.8333 23.7052 23.8333 23.2023C23.8333 22.6994 24.1969 22.2909 24.6452 22.2909C25.1491 22.2312 25.6038 22.6345 25.6667 23.1981C25.6069 23.7659 25.1523 24.1734 24.6452 24.1127ZM30.1452 24.1169C29.6969 24.1169 29.3333 23.7083 29.3333 23.2054C29.3333 22.7005 29.6969 22.2919 30.1452 22.2919C30.6491 22.2312 31.1038 22.6355 31.1667 23.2002C31.0724 23.7554 30.6261 24.1473 30.1243 24.1169H30.1452Z" fill="#0ABC64"/>
</g>
</g>
<defs>
<clipPath id="clip0_333_16032">
<rect y="0.285645" width="44" height="44" rx="22" fill="white"/>
</clipPath>
</defs>
</svg>
